<ttFont>
    <TTGlyph name=".notdef" xMin="65" yMin="-240" xMax="575" yMax="900">
      <contour>
        <pt x="65" y="900" on="1"/>
        <pt x="575" y="900" on="1"/>
        <pt x="575" y="-240" on="1"/>
        <pt x="65" y="-240" on="1"/>
      </contour>
      <contour>
        <pt x="192" y="-155" on="1"/>
        <pt x="448" y="-155" on="1"/>
        <pt x="448" y="815" on="1"/>
        <pt x="192" y="815" on="1"/>
      </contour>
    </TTGlyph>
    <TTGlyph name="A" xMin="-13" yMin="0" xMax="738" yMax="730">
      <contour>
        <pt x="464" y="234" on="1"/>
        <pt x="220" y="234" on="1"/>
        <pt x="168" y="79" on="1"/>
        <pt x="251" y="58" on="1"/>
        <pt x="251" y="0" on="1"/>
        <pt x="-13" y="0" on="1"/>
        <pt x="-13" y="58" on="1"/>
        <pt x="69" y="79" on="1"/>
        <pt x="303" y="730" on="1"/>
        <pt x="426" y="730" on="1"/>
        <pt x="658" y="79" on="1"/>
        <pt x="738" y="58" on="1"/>
        <pt x="738" y="0" on="1"/>
        <pt x="433" y="0" on="1"/>
        <pt x="433" y="58" on="1"/>
        <pt x="515" y="79" on="1"/>
      </contour>
      <contour>
        <pt x="245" y="307" on="1"/>
        <pt x="440" y="307" on="1"/>
        <pt x="347" y="598" on="1"/>
        <pt x="343" y="598" on="1"/>
      </contour>
    </TTGlyph>
    <TTGlyph name="AE" xMin="-14" yMin="0" xMax="1025" yMax="720">
      <contour>
        <pt x="788" y="238" on="1"/>
        <pt x="772" y="332" on="1"/>
        <pt x="634" y="332" on="1"/>
        <pt x="634" y="75" on="1"/>
        <pt x="909" y="75" on="1"/>
        <pt x="937" y="223" on="1"/>
        <pt x="1025" y="223" on="1"/>
        <pt x="1025" y="0" on="1"/>
        <pt x="410" y="0" on="1"/>
        <pt x="410" y="58" on="1"/>
        <pt x="504" y="79" on="1"/>
        <pt x="504" y="234" on="1"/>
        <pt x="277" y="234" on="1"/>
        <pt x="192" y="79" on="1"/>
        <pt x="263" y="58" on="1"/>
        <pt x="263" y="0" on="1"/>
        <pt x="-14" y="0" on="1"/>
        <pt x="-14" y="58" on="1"/>
        <pt x="88" y="79" on="1"/>
        <pt x="408" y="651" on="1"/>
        <pt x="333" y="662" on="1"/>
        <pt x="333" y="720" on="1"/>
        <pt x="1003" y="720" on="1"/>
        <pt x="1003" y="508" on="1"/>
        <pt x="921" y="508" on="1"/>
        <pt x="892" y="647" on="1"/>
        <pt x="634" y="647" on="1"/>
        <pt x="634" y="407" on="1"/>
        <pt x="772" y="407" on="1"/>
        <pt x="788" y="502" on="1"/>
        <pt x="869" y="502" on="1"/>
        <pt x="869" y="238" on="1"/>
      </contour>
      <contour>
        <pt x="497" y="642" on="1"/>
        <pt x="318" y="307" on="1"/>
        <pt x="504" y="307" on="1"/>
        <pt x="504" y="641" on="1"/>
      </contour>
    </TTGlyph>
    <TTGlyph name="AEacute" xMin="-14" yMin="0" xMax="1025" yMax="900">
      <contour>
        <pt x="788" y="238" on="1"/>
        <pt x="772" y="332" on="1"/>
        <pt x="634" y="332" on="1"/>
        <pt x="634" y="75" on="1"/>
        <pt x="909" y="75" on="1"/>
        <pt x="937" y="223" on="1"/>
        <pt x="1025" y="223" on="1"/>
        <pt x="1025" y="0" on="1"/>
        <pt x="410" y="0" on="1"/>
        <pt x="410" y="58" on="1"/>
        <pt x="504" y="79" on="1"/>
        <pt x="504" y="234" on="1"/>
        <pt x="277" y="234" on="1"/>
        <pt x="192" y="79" on="1"/>
        <pt x="263" y="58" on="1"/>
        <pt x="263" y="0" on="1"/>
        <pt x="-14" y="0" on="1"/>
        <pt x="-14" y="58" on="1"/>
        <pt x="88" y="79" on="1"/>
        <pt x="408" y="651" on="1"/>
        <pt x="333" y="662" on="1"/>
        <pt x="333" y="720" on="1"/>
        <pt x="1003" y="720" on="1"/>
        <pt x="1003" y="508" on="1"/>
        <pt x="921" y="508" on="1"/>
        <pt x="892" y="647" on="1"/>
        <pt x="634" y="647" on="1"/>
        <pt x="634" y="407" on="1"/>
        <pt x="772" y="407" on="1"/>
        <pt x="788" y="502" on="1"/>
        <pt x="869" y="502" on="1"/>
        <pt x="869" y="238" on="1"/>
      </contour>
      <contour>
        <pt x="497" y="642" on="1"/>
        <pt x="318" y="307" on="1"/>
        <pt x="504" y="307" on="1"/>
        <pt x="504" y="641" on="1"/>
      </contour>
      <contour>
        <pt x="644" y="836" on="1"/>
        <pt x="660" y="857" on="0"/>
        <pt x="685" y="882" on="0"/>
        <pt x="706" y="895" on="0"/>
        <pt x="728" y="900" on="0"/>
        <pt x="742" y="900" on="1"/>
        <pt x="766" y="900" on="0"/>
        <pt x="789" y="876" on="0"/>
        <pt x="789" y="861" on="1"/>
        <pt x="789" y="851" on="0"/>
        <pt x="783" y="836" on="0"/>
        <pt x="766" y="821" on="0"/>
        <pt x="737" y="802" on="0"/>
        <pt x="714" y="788" on="1"/>
        <pt x="667" y="760" on="1"/>
        <pt x="584" y="760" on="1"/>
      </contour>
    </TTGlyph>
    <TTGlyph name="Aacute" xMin="-13" yMin="0" xMax="738" yMax="900">
      <contour>
        <pt x="464" y="234" on="1"/>
        <pt x="220" y="234" on="1"/>
        <pt x="168" y="79" on="1"/>
        <pt x="251" y="58" on="1"/>
        <pt x="251" y="0" on="1"/>
        <pt x="-13" y="0" on="1"/>
        <pt x="-13" y="58" on="1"/>
        <pt x="69" y="79" on="1"/>
        <pt x="303" y="730" on="1"/>
        <pt x="426" y="730" on="1"/>
        <pt x="658" y="79" on="1"/>
        <pt x="738" y="58" on="1"/>
        <pt x="738" y="0" on="1"/>
        <pt x="433" y="0" on="1"/>
        <pt x="433" y="58" on="1"/>
        <pt x="515" y="79" on="1"/>
      </contour>
      <contour>
        <pt x="245" y="307" on="1"/>
        <pt x="440" y="307" on="1"/>
        <pt x="347" y="598" on="1"/>
        <pt x="343" y="598" on="1"/>
      </contour>
      <contour>
        <pt x="383" y="836" on="1"/>
        <pt x="399" y="857" on="0"/>
        <pt x="424" y="882" on="0"/>
        <pt x="445" y="895" on="0"/>
        <pt x="467" y="900" on="0"/>
        <pt x="481" y="900" on="1"/>
        <pt x="505" y="900" on="0"/>
        <pt x="528" y="876" on="0"/>
        <pt x="528" y="861" on="1"/>
        <pt x="528" y="851" on="0"/>
        <pt x="522" y="836" on="0"/>
        <pt x="505" y="821" on="0"/>
        <pt x="476" y="802" on="0"/>
        <pt x="453" y="788" on="1"/>
        <pt x="406" y="760" on="1"/>
        <pt x="323" y="760" on="1"/>
      </contour>
    </TTGlyph>
    <TTGlyph name="Abreve" xMin="-13" yMin="0" xMax="738" yMax="899">
      <contour>
        <pt x="533" y="899" on="1"/>
        <pt x="531" y="833" on="0"/>
        <pt x="474" y="745" on="0"/>
        <pt x="426" y="728" on="1"/>
        <pt x="658" y="79" on="1"/>
        <pt x="738" y="58" on="1"/>
        <pt x="738" y="0" on="1"/>
        <pt x="433" y="0" on="1"/>
        <pt x="433" y="58" on="1"/>
        <pt x="515" y="79" on="1"/>
        <pt x="464" y="234" on="1"/>
        <pt x="220" y="234" on="1"/>
        <pt x="168" y="79" on="1"/>
        <pt x="251" y="58" on="1"/>
        <pt x="251" y="0" on="1"/>
        <pt x="-13" y="0" on="1"/>
        <pt x="-13" y="58" on="1"/>
        <pt x="69" y="79" on="1"/>
        <pt x="302" y="729" on="1"/>
        <pt x="257" y="747" on="0"/>
        <pt x="209" y="836" on="0"/>
        <pt x="209" y="899" on="1"/>
        <pt x="272" y="899" on="1"/>
        <pt x="274" y="855" on="0"/>
        <pt x="326" y="817" on="0"/>
        <pt x="365" y="817" on="1"/>
        <pt x="415" y="817" on="0"/>
        <pt x="470" y="855" on="0"/>
        <pt x="470" y="899" on="1"/>
      </contour>
      <contour>
        <pt x="245" y="307" on="1"/>
        <pt x="440" y="307" on="1"/>
        <pt x="347" y="598" on="1"/>
        <pt x="343" y="598" on="1"/>
      </contour>
    </TTGlyph>
    <TTGlyph name="Acircumflex" xMin="-13" yMin="0" xMax="738" yMax="890">
      <contour>
        <pt x="464" y="234" on="1"/>
        <pt x="220" y="234" on="1"/>
        <pt x="168" y="79" on="1"/>
        <pt x="251" y="58" on="1"/>
        <pt x="251" y="0" on="1"/>
        <pt x="-13" y="0" on="1"/>
        <pt x="-13" y="58" on="1"/>
        <pt x="69" y="79" on="1"/>
        <pt x="303" y="730" on="1"/>
        <pt x="426" y="730" on="1"/>
        <pt x="658" y="79" on="1"/>
        <pt x="738" y="58" on="1"/>
        <pt x="738" y="0" on="1"/>
        <pt x="433" y="0" on="1"/>
        <pt x="433" y="58" on="1"/>
        <pt x="515" y="79" on="1"/>
      </contour>
      <contour>
        <pt x="245" y="307" on="1"/>
        <pt x="440" y="307" on="1"/>
        <pt x="347" y="598" on="1"/>
        <pt x="343" y="598" on="1"/>
      </contour>
      <contour>
        <pt x="546" y="769" on="1"/>
        <pt x="463" y="769" on="1"/>
        <pt x="365" y="830" on="1"/>
        <pt x="267" y="769" on="1"/>
        <pt x="184" y="769" on="1"/>
        <pt x="302" y="890" on="1"/>
        <pt x="427" y="890" on="1"/>
      </contour>
    </TTGlyph>
    <TTGlyph name="Adieresis" xMin="-13" yMin="0" xMax="738" yMax="730">
      <contour>
        <pt x="464" y="234" on="1"/>
        <pt x="220" y="234" on="1"/>
        <pt x="168" y="79" on="1"/>
        <pt x="251" y="58" on="1"/>
        <pt x="251" y="0" on="1"/>
        <pt x="-13" y="0" on="1"/>
        <pt x="-13" y="58" on="1"/>
        <pt x="69" y="79" on="1"/>
        <pt x="303" y="730" on="1"/>
        <pt x="426" y="730" on="1"/>
        <pt x="658" y="79" on="1"/>
        <pt x="738" y="58" on="1"/>
        <pt x="738" y="0" on="1"/>
        <pt x="433" y="0" on="1"/>
        <pt x="433" y="58" on="1"/>
        <pt x="515" y="79" on="1"/>
      </contour>
      <contour>
        <pt x="245" y="307" on="1"/>
        <pt x="440" y="307" on="1"/>
        <pt x="347" y="598" on="1"/>
        <pt x="343" y="598" on="1"/>
      </contour>
    </TTGlyph>
    <TTGlyph name="Agrave" xMin="-13" yMin="0" xMax="738" yMax="900">
      <contour>
        <pt x="464" y="234" on="1"/>
        <pt x="220" y="234" on="1"/>
        <pt x="168" y="79" on="1"/>
        <pt x="251" y="58" on="1"/>
        <pt x="251" y="0" on="1"/>
        <pt x="-13" y="0" on="1"/>
        <pt x="-13" y="58" on="1"/>
        <pt x="69" y="79" on="1"/>
        <pt x="303" y="730" on="1"/>
        <pt x="426" y="730" on="1"/>
        <pt x="658" y="79" on="1"/>
        <pt x="738" y="58" on="1"/>
        <pt x="738" y="0" on="1"/>
        <pt x="433" y="0" on="1"/>
        <pt x="433" y="58" on="1"/>
        <pt x="515" y="79" on="1"/>
      </contour>
      <contour>
        <pt x="245" y="307" on="1"/>
        <pt x="440" y="307" on="1"/>
        <pt x="347" y="598" on="1"/>
        <pt x="343" y="598" on="1"/>
      </contour>
      <contour>
        <pt x="428" y="760" on="1"/>
        <pt x="345" y="760" on="1"/>
        <pt x="298" y="788" on="1"/>
        <pt x="275" y="802" on="0"/>
        <pt x="245" y="821" on="0"/>
        <pt x="229" y="836" on="0"/>
        <pt x="223" y="851" on="0"/>
        <pt x="223" y="861" on="1"/>
        <pt x="223" y="876" on="0"/>
        <pt x="246" y="900" on="0"/>
        <pt x="270" y="900" on="1"/>
        <pt x="284" y="900" on="0"/>
        <pt x="306" y="895" on="0"/>
        <pt x="327" y="882" on="0"/>
        <pt x="351" y="857" on="0"/>
        <pt x="368" y="836" on="1"/>
      </contour>
    </TTGlyph>
    <TTGlyph name="Amacron" xMin="-13" yMin="0" xMax="738" yMax="730">
      <contour>
        <pt x="464" y="234" on="1"/>
        <pt x="220" y="234" on="1"/>
        <pt x="168" y="79" on="1"/>
        <pt x="251" y="58" on="1"/>
        <pt x="251" y="0" on="1"/>
        <pt x="-13" y="0" on="1"/>
        <pt x="-13" y="58" on="1"/>
        <pt x="69" y="79" on="1"/>
        <pt x="303" y="730" on="1"/>
        <pt x="426" y="730" on="1"/>
        <pt x="658" y="79" on="1"/>
        <pt x="738" y="58" on="1"/>
        <pt x="738" y="0" on="1"/>
        <pt x="433" y="0" on="1"/>
        <pt x="433" y="58" on="1"/>
        <pt x="515" y="79" on="1"/>
      </contour>
      <contour>
        <pt x="245" y="307" on="1"/>
        <pt x="440" y="307" on="1"/>
        <pt x="347" y="598" on="1"/>
        <pt x="343" y="598" on="1"/>
      </contour>
    </TTGlyph>
    <TTGlyph name="Aogonek" xMin="-13" yMin="-210" xMax="738" yMax="730">
      <contour>
        <pt x="577" y="-210" on="1"/>
        <pt x="521" y="-210" on="0"/>
        <pt x="466" y="-163" on="0"/>
        <pt x="466" y="-125" on="1"/>
        <pt x="466" y="-57" on="0"/>
        <pt x="556" y="0" on="1"/>
        <pt x="433" y="0" on="1"/>
        <pt x="433" y="58" on="1"/>
        <pt x="515" y="79" on="1"/>
        <pt x="464" y="234" on="1"/>
        <pt x="220" y="234" on="1"/>
        <pt x="168" y="79" on="1"/>
        <pt x="251" y="58" on="1"/>
        <pt x="251" y="0" on="1"/>
        <pt x="-13" y="0" on="1"/>
        <pt x="-13" y="58" on="1"/>
        <pt x="69" y="79" on="1"/>
        <pt x="303" y="730" on="1"/>
        <pt x="426" y="730" on="1"/>
        <pt x="658" y="79" on="1"/>
        <pt x="738" y="58" on="1"/>
        <pt x="738" y="0" on="1"/>
        <pt x="631" y="0" on="1"/>
        <pt x="609" y="-18" on="0"/>
        <pt x="568" y="-73" on="0"/>
        <pt x="568" y="-98" on="1"/>
        <pt x="568" y="-116" on="0"/>
        <pt x="595" y="-137" on="0"/>
        <pt x="618" y="-137" on="1"/>
        <pt x="634" y="-137" on="0"/>
        <pt x="665" y="-129" on="0"/>
        <pt x="677" y="-119" on="1"/>
        <pt x="701" y="-154" on="1"/>
        <pt x="684" y="-180" on="0"/>
        <pt x="628" y="-210" on="0"/>
      </contour>
      <contour>
        <pt x="245" y="307" on="1"/>
        <pt x="440" y="307" on="1"/>
        <pt x="347" y="598" on="1"/>
        <pt x="343" y="598" on="1"/>
      </contour>
    </TTGlyph>
    <TTGlyph name="Aring" xMin="-13" yMin="0" xMax="738" yMax="900">
      <contour>
        <pt x="464" y="234" on="1"/>
        <pt x="220" y="234" on="1"/>
        <pt x="168" y="79" on="1"/>
        <pt x="251" y="58" on="1"/>
        <pt x="251" y="0" on="1"/>
        <pt x="-13" y="0" on="1"/>
        <pt x="-13" y="58" on="1"/>
        <pt x="69" y="79" on="1"/>
        <pt x="303" y="730" on="1"/>
        <pt x="426" y="730" on="1"/>
        <pt x="658" y="79" on="1"/>
        <pt x="738" y="58" on="1"/>
        <pt x="738" y="0" on="1"/>
        <pt x="433" y="0" on="1"/>
        <pt x="433" y="58" on="1"/>
        <pt x="515" y="79" on="1"/>
      </contour>
      <contour>
        <pt x="245" y="307" on="1"/>
        <pt x="440" y="307" on="1"/>
        <pt x="347" y="598" on="1"/>
        <pt x="343" y="598" on="1"/>
      </contour>
      <contour>
        <pt x="275" y="824" on="1"/>
        <pt x="275" y="862" on="0"/>
        <pt x="328" y="900" on="0"/>
        <pt x="365" y="900" on="1"/>
        <pt x="403" y="900" on="0"/>
        <pt x="456" y="862" on="0"/>
        <pt x="456" y="824" on="1"/>
        <pt x="456" y="787" on="0"/>
        <pt x="403" y="750" on="0"/>
        <pt x="365" y="750" on="1"/>
        <pt x="328" y="750" on="0"/>
        <pt x="275" y="787" on="0"/>
      </contour>
      <contour>
        <pt x="335" y="824" on="1"/>
        <pt x="335" y="794" on="0"/>
        <pt x="365" y="794" on="1"/>
        <pt x="397" y="794" on="0"/>
        <pt x="397" y="824" on="1"/>
        <pt x="397" y="856" on="0"/>
        <pt x="365" y="856" on="1"/>
        <pt x="335" y="856" on="0"/>
      </contour>
    </TTGlyph>
    <TTGlyph name="Aringacute" xMin="-13" yMin="0" xMax="738" yMax="900">
      <contour>
        <pt x="271" y="759" on="1"/>
        <pt x="271" y="797" on="0"/>
        <pt x="325" y="835" on="0"/>
        <pt x="366" y="835" on="1"/>
        <pt x="382" y="856" on="0"/>
        <pt x="405" y="882" on="0"/>
        <pt x="425" y="895" on="0"/>
        <pt x="442" y="900" on="0"/>
        <pt x="453" y="900" on="1"/>
        <pt x="472" y="900" on="0"/>
        <pt x="490" y="877" on="0"/>
        <pt x="490" y="864" on="1"/>
        <pt x="490" y="850" on="0"/>
        <pt x="467" y="830" on="0"/>
        <pt x="433" y="808" on="1"/>
        <pt x="452" y="789" on="0"/>
        <pt x="452" y="759" on="1"/>
        <pt x="452" y="723" on="0"/>
        <pt x="426" y="704" on="1"/>
        <pt x="658" y="79" on="1"/>
        <pt x="738" y="58" on="1"/>
        <pt x="738" y="0" on="1"/>
        <pt x="433" y="0" on="1"/>
        <pt x="433" y="58" on="1"/>
        <pt x="515" y="79" on="1"/>
        <pt x="464" y="234" on="1"/>
        <pt x="220" y="234" on="1"/>
        <pt x="168" y="79" on="1"/>
        <pt x="251" y="58" on="1"/>
        <pt x="251" y="0" on="1"/>
        <pt x="-13" y="0" on="1"/>
        <pt x="-13" y="58" on="1"/>
        <pt x="69" y="79" on="1"/>
        <pt x="301" y="701" on="1"/>
        <pt x="287" y="710" on="0"/>
        <pt x="271" y="739" on="0"/>
      </contour>
      <contour>
        <pt x="245" y="307" on="1"/>
        <pt x="440" y="307" on="1"/>
        <pt x="347" y="573" on="1"/>
        <pt x="343" y="573" on="1"/>
      </contour>
      <contour>
        <pt x="331" y="759" on="1"/>
        <pt x="331" y="729" on="0"/>
        <pt x="361" y="729" on="1"/>
        <pt x="393" y="729" on="0"/>
        <pt x="393" y="759" on="1"/>
        <pt x="393" y="791" on="0"/>
        <pt x="361" y="791" on="1"/>
        <pt x="331" y="791" on="0"/>
      </contour>
    </TTGlyph>
    <TTGlyph name="Atilde" xMin="-13" yMin="0" xMax="738" yMax="900">
      <contour>
        <pt x="464" y="234" on="1"/>
        <pt x="220" y="234" on="1"/>
        <pt x="168" y="79" on="1"/>
        <pt x="251" y="58" on="1"/>
        <pt x="251" y="0" on="1"/>
        <pt x="-13" y="0" on="1"/>
        <pt x="-13" y="58" on="1"/>
        <pt x="69" y="79" on="1"/>
        <pt x="303" y="730" on="1"/>
        <pt x="426" y="730" on="1"/>
        <pt x="658" y="79" on="1"/>
        <pt x="738" y="58" on="1"/>
        <pt x="738" y="0" on="1"/>
        <pt x="433" y="0" on="1"/>
        <pt x="433" y="58" on="1"/>
        <pt x="515" y="79" on="1"/>
      </contour>
      <contour>
        <pt x="245" y="307" on="1"/>
        <pt x="440" y="307" on="1"/>
        <pt x="347" y="598" on="1"/>
        <pt x="343" y="598" on="1"/>
      </contour>
      <contour>
        <pt x="166" y="755" on="1"/>
        <pt x="168" y="828" on="0"/>
        <pt x="238" y="900" on="0"/>
        <pt x="293" y="900" on="1"/>
        <pt x="318" y="900" on="0"/>
        <pt x="356" y="883" on="0"/>
        <pt x="388" y="862" on="0"/>
        <pt x="419" y="845" on="0"/>
        <pt x="439" y="845" on="1"/>
        <pt x="469" y="845" on="0"/>
        <pt x="499" y="871" on="0"/>
        <pt x="504" y="895" on="1"/>
        <pt x="564" y="895" on="1"/>
        <pt x="543" y="744" on="0"/>
        <pt x="437" y="744" on="1"/>
        <pt x="412" y="744" on="0"/>
        <pt x="375" y="761" on="0"/>
        <pt x="342" y="782" on="0"/>
        <pt x="310" y="800" on="0"/>
        <pt x="291" y="800" on="1"/>
        <pt x="261" y="800" on="0"/>
        <pt x="231" y="776" on="0"/>
        <pt x="226" y="755" on="1"/>
      </contour>
    </TTGlyph>
    <TTGlyph name="B" xMin="41" yMin="0" xMax="658" yMax="720">
      <contour>
        <pt x="624" y="547" on="1"/>
        <pt x="624" y="518" on="0"/>
        <pt x="604" y="466" on="0"/>
        <pt x="568" y="425" on="0"/>
        <pt x="519" y="398" on="0"/>
        <pt x="490" y="394" on="1"/>
        <pt x="490" y="390" on="1"/>
        <pt x="568" y="373" on="0"/>
        <pt x="658" y="274" on="0"/>
        <pt x="658" y="201" on="1"/>
        <pt x="658" y="144" on="0"/>
        <pt x="599" y="50" on="0"/>
        <pt x="554" y="27" on="1"/>
        <pt x="540" y="20" on="0"/>
        <pt x="507" y="10" on="0"/>
        <pt x="463" y="3" on="0"/>
        <pt x="407" y="0" on="0"/>
        <pt x="370" y="0" on="1"/>
        <pt x="41" y="0" on="1"/>
        <pt x="41" y="58" on="1"/>
        <pt x="125" y="79" on="1"/>
        <pt x="125" y="641" on="1"/>
        <pt x="41" y="662" on="1"/>
        <pt x="41" y="720" on="1"/>
        <pt x="407" y="720" on="1"/>
        <pt x="512" y="720" on="0"/>
        <pt x="569" y="669" on="1"/>
        <pt x="595" y="645" on="0"/>
        <pt x="624" y="581" on="0"/>
      </contour>
      <contour>
        <pt x="255" y="339" on="1"/>
        <pt x="255" y="75" on="1"/>
        <pt x="335" y="75" on="1"/>
        <pt x="381" y="75" on="0"/>
        <pt x="437" y="85" on="0"/>
        <pt x="456" y="96" on="1"/>
        <pt x="483" y="110" on="0"/>
        <pt x="517" y="171" on="0"/>
        <pt x="517" y="211" on="1"/>
        <pt x="517" y="246" on="0"/>
        <pt x="491" y="294" on="0"/>
        <pt x="471" y="310" on="1"/>
        <pt x="453" y="324" on="0"/>
        <pt x="397" y="339" on="0"/>
        <pt x="353" y="339" on="1"/>
      </contour>
      <contour>
        <pt x="255" y="412" on="1"/>
        <pt x="350" y="412" on="1"/>
        <pt x="420" y="412" on="0"/>
        <pt x="453" y="447" on="1"/>
        <pt x="468" y="461" on="0"/>
        <pt x="490" y="504" on="0"/>
        <pt x="490" y="532" on="1"/>
        <pt x="490" y="560" on="0"/>
        <pt x="468" y="603" on="0"/>
        <pt x="453" y="617" on="1"/>
        <pt x="423" y="647" on="0"/>
        <pt x="354" y="647" on="1"/>
        <pt x="255" y="647" on="1"/>
      </contour>
    </TTGlyph>
    <TTGlyph name="C" xMin="43" yMin="-10" xMax="668" yMax="730">
      <contour>
        <pt x="377" y="661" on="1"/>
        <pt x="339" y="661" on="0"/>
        <pt x="270" y="629" on="0"/>
        <pt x="249" y="599" on="1"/>
        <pt x="222" y="560" on="0"/>
        <pt x="185" y="444" on="0"/>
        <pt x="185" y="372" on="1"/>
        <pt x="185" y="300" on="0"/>
        <pt x="215" y="177" on="0"/>
        <pt x="242" y="135" on="1"/>
        <pt x="264" y="100" on="0"/>
        <pt x="338" y="69" on="0"/>
        <pt x="386" y="69" on="1"/>
        <pt x="554" y="69" on="0"/>
        <pt x="583" y="238" on="1"/>
        <pt x="668" y="238" on="1"/>
        <pt x="643" y="112" on="0"/>
        <pt x="494" y="-10" on="0"/>
        <pt x="364" y="-10" on="1"/>
        <pt x="226" y="-10" on="0"/>
        <pt x="144" y="70" on="1"/>
        <pt x="95" y="118" on="0"/>
        <pt x="43" y="263" on="0"/>
        <pt x="43" y="353" on="1"/>
        <pt x="43" y="454" on="0"/>
        <pt x="109" y="617" on="0"/>
        <pt x="169" y="667" on="1"/>
        <pt x="245" y="730" on="0"/>
        <pt x="370" y="730" on="1"/>
        <pt x="401" y="730" on="0"/>
        <pt x="450" y="723" on="0"/>
        <pt x="492" y="706" on="0"/>
        <pt x="529" y="678" on="0"/>
        <pt x="548" y="657" on="1"/>
        <pt x="568" y="720" on="1"/>
        <pt x="653" y="720" on="1"/>
        <pt x="653" y="484" on="1"/>
        <pt x="562" y="484" on="1"/>
        <pt x="548" y="572" on="0"/>
        <pt x="451" y="661" on="0"/>
      </contour>
    </TTGlyph>
    <TTGlyph name="Cacute" xMin="43" yMin="-10" xMax="668" yMax="900">
      <contour>
        <pt x="377" y="661" on="1"/>
        <pt x="339" y="661" on="0"/>
        <pt x="270" y="629" on="0"/>
        <pt x="249" y="599" on="1"/>
        <pt x="222" y="560" on="0"/>
        <pt x="185" y="444" on="0"/>
        <pt x="185" y="372" on="1"/>
        <pt x="185" y="300" on="0"/>
        <pt x="215" y="177" on="0"/>
        <pt x="242" y="135" on="1"/>
        <pt x="264" y="100" on="0"/>
        <pt x="338" y="69" on="0"/>
        <pt x="386" y="69" on="1"/>
        <pt x="554" y="69" on="0"/>
        <pt x="583" y="238" on="1"/>
        <pt x="668" y="238" on="1"/>
        <pt x="643" y="112" on="0"/>
        <pt x="494" y="-10" on="0"/>
        <pt x="364" y="-10" on="1"/>
        <pt x="226" y="-10" on="0"/>
        <pt x="144" y="70" on="1"/>
        <pt x="95" y="118" on="0"/>
        <pt x="43" y="263" on="0"/>
        <pt x="43" y="353" on="1"/>
        <pt x="43" y="454" on="0"/>
        <pt x="109" y="617" on="0"/>
        <pt x="169" y="667" on="1"/>
        <pt x="245" y="730" on="0"/>
        <pt x="370" y="730" on="1"/>
        <pt x="401" y="730" on="0"/>
        <pt x="450" y="723" on="0"/>
        <pt x="492" y="706" on="0"/>
        <pt x="529" y="678" on="0"/>
        <pt x="548" y="657" on="1"/>
        <pt x="568" y="720" on="1"/>
        <pt x="653" y="720" on="1"/>
        <pt x="653" y="484" on="1"/>
        <pt x="562" y="484" on="1"/>
        <pt x="548" y="572" on="0"/>
        <pt x="451" y="661" on="0"/>
      </contour>
      <contour>
        <pt x="405" y="836" on="1"/>
        <pt x="421" y="857" on="0"/>
        <pt x="446" y="882" on="0"/>
        <pt x="467" y="895" on="0"/>
        <pt x="489" y="900" on="0"/>
        <pt x="503" y="900" on="1"/>
        <pt x="527" y="900" on="0"/>
        <pt x="550" y="876" on="0"/>
        <pt x="550" y="861" on="1"/>
        <pt x="550" y="851" on="0"/>
        <pt x="544" y="836" on="0"/>
        <pt x="527" y="821" on="0"/>
        <pt x="498" y="802" on="0"/>
        <pt x="475" y="788" on="1"/>
        <pt x="428" y="760" on="1"/>
        <pt x="345" y="760" on="1"/>
      </contour>
    </TTGlyph>
    <TTGlyph name="Ccaron" xMin="43" yMin="-10" xMax="668" yMax="890">
      <contour>
        <pt x="377" y="661" on="1"/>
        <pt x="339" y="661" on="0"/>
        <pt x="270" y="629" on="0"/>
        <pt x="249" y="599" on="1"/>
        <pt x="222" y="560" on="0"/>
        <pt x="185" y="444" on="0"/>
        <pt x="185" y="372" on="1"/>
        <pt x="185" y="300" on="0"/>
        <pt x="215" y="177" on="0"/>
        <pt x="242" y="135" on="1"/>
        <pt x="264" y="100" on="0"/>
        <pt x="338" y="69" on="0"/>
        <pt x="386" y="69" on="1"/>
        <pt x="554" y="69" on="0"/>
        <pt x="583" y="238" on="1"/>
        <pt x="668" y="238" on="1"/>
        <pt x="643" y="112" on="0"/>
        <pt x="494" y="-10" on="0"/>
        <pt x="364" y="-10" on="1"/>
        <pt x="226" y="-10" on="0"/>
        <pt x="144" y="70" on="1"/>
        <pt x="95" y="118" on="0"/>
        <pt x="43" y="263" on="0"/>
        <pt x="43" y="353" on="1"/>
        <pt x="43" y="454" on="0"/>
        <pt x="109" y="617" on="0"/>
        <pt x="169" y="667" on="1"/>
        <pt x="245" y="730" on="0"/>
        <pt x="370" y="730" on="1"/>
        <pt x="401" y="730" on="0"/>
        <pt x="450" y="723" on="0"/>
        <pt x="492" y="706" on="0"/>
        <pt x="529" y="678" on="0"/>
        <pt x="548" y="657" on="1"/>
        <pt x="568" y="720" on="1"/>
        <pt x="653" y="720" on="1"/>
        <pt x="653" y="484" on="1"/>
        <pt x="562" y="484" on="1"/>
        <pt x="548" y="572" on="0"/>
        <pt x="451" y="661" on="0"/>
      </contour>
      <contour>
        <pt x="449" y="769" on="1"/>
        <pt x="324" y="769" on="1"/>
        <pt x="206" y="890" on="1"/>
        <pt x="289" y="890" on="1"/>
        <pt x="387" y="829" on="1"/>
        <pt x="485" y="890" on="1"/>
        <pt x="568" y="890" on="1"/>
      </contour>
    </TTGlyph>
    <TTGlyph name="Ccedilla" xMin="43" yMin="-210" xMax="668" yMax="730">
      <contour>
        <pt x="344" y="-210" on="1"/>
        <pt x="291" y="-210" on="0"/>
        <pt x="253" y="-182" on="1"/>
        <pt x="284" y="-140" on="1"/>
        <pt x="313" y="-160" on="0"/>
        <pt x="343" y="-160" on="1"/>
        <pt x="385" y="-160" on="0"/>
        <pt x="385" y="-134" on="1"/>
        <pt x="385" y="-121" on="0"/>
        <pt x="360" y="-106" on="0"/>
        <pt x="340" y="-106" on="1"/>
        <pt x="329" y="-106" on="0"/>
        <pt x="303" y="-109" on="0"/>
        <pt x="294" y="-112" on="1"/>
        <pt x="277" y="-83" on="1"/>
        <pt x="334" y="-9" on="1"/>
        <pt x="215" y="0" on="0"/>
        <pt x="144" y="70" on="1"/>
        <pt x="95" y="118" on="0"/>
        <pt x="43" y="263" on="0"/>
        <pt x="43" y="353" on="1"/>
        <pt x="43" y="454" on="0"/>
        <pt x="109" y="617" on="0"/>
        <pt x="169" y="667" on="1"/>
        <pt x="245" y="730" on="0"/>
        <pt x="370" y="730" on="1"/>
        <pt x="401" y="730" on="0"/>
        <pt x="450" y="723" on="0"/>
        <pt x="492" y="706" on="0"/>
        <pt x="529" y="678" on="0"/>
        <pt x="548" y="657" on="1"/>
        <pt x="568" y="720" on="1"/>
        <pt x="653" y="720" on="1"/>
        <pt x="653" y="484" on="1"/>
        <pt x="562" y="484" on="1"/>
        <pt x="548" y="572" on="0"/>
        <pt x="451" y="661" on="0"/>
        <pt x="377" y="661" on="1"/>
        <pt x="339" y="661" on="0"/>
        <pt x="270" y="629" on="0"/>
        <pt x="249" y="599" on="1"/>
        <pt x="222" y="560" on="0"/>
        <pt x="185" y="444" on="0"/>
        <pt x="185" y="372" on="1"/>
        <pt x="185" y="300" on="0"/>
        <pt x="215" y="177" on="0"/>
        <pt x="242" y="135" on="1"/>
        <pt x="264" y="100" on="0"/>
        <pt x="338" y="69" on="0"/>
        <pt x="386" y="69" on="1"/>
        <pt x="554" y="69" on="0"/>
        <pt x="583" y="238" on="1"/>
        <pt x="668" y="238" on="1"/>
        <pt x="645" y="124" on="0"/>
        <pt x="520" y="4" on="0"/>
        <pt x="413" y="-7" on="1"/>
        <pt x="386" y="-53" on="1"/>
        <pt x="387" y="-56" on="1"/>
        <pt x="443" y="-56" on="0"/>
        <pt x="487" y="-94" on="0"/>
        <pt x="487" y="-126" on="1"/>
        <pt x="487" y="-146" on="0"/>
        <pt x="464" y="-178" on="0"/>
        <pt x="425" y="-199" on="0"/>
        <pt x="373" y="-210" on="0"/>
      </contour>
    </TTGlyph>
    <TTGlyph name="Ccircumflex" xMin="43" yMin="-10" xMax="668" yMax="890">
      <contour>
        <pt x="377" y="661" on="1"/>
        <pt x="339" y="661" on="0"/>
        <pt x="270" y="629" on="0"/>
        <pt x="249" y="599" on="1"/>
        <pt x="222" y="560" on="0"/>
        <pt x="185" y="444" on="0"/>
        <pt x="185" y="372" on="1"/>
        <pt x="185" y="300" on="0"/>
        <pt x="215" y="177" on="0"/>
        <pt x="242" y="135" on="1"/>
        <pt x="264" y="100" on="0"/>
        <pt x="338" y="69" on="0"/>
        <pt x="386" y="69" on="1"/>
        <pt x="554" y="69" on="0"/>
        <pt x="583" y="238" on="1"/>
        <pt x="668" y="238" on="1"/>
        <pt x="643" y="112" on="0"/>
        <pt x="494" y="-10" on="0"/>
        <pt x="364" y="-10" on="1"/>
        <pt x="226" y="-10" on="0"/>
        <pt x="144" y="70" on="1"/>
        <pt x="95" y="118" on="0"/>
        <pt x="43" y="263" on="0"/>
        <pt x="43" y="353" on="1"/>
        <pt x="43" y="454" on="0"/>
        <pt x="109" y="617" on="0"/>
        <pt x="169" y="667" on="1"/>
        <pt x="245" y="730" on="0"/>
        <pt x="370" y="730" on="1"/>
        <pt x="401" y="730" on="0"/>
        <pt x="450" y="723" on="0"/>
        <pt x="492" y="706" on="0"/>
        <pt x="529" y="678" on="0"/>
        <pt x="548" y="657" on="1"/>
        <pt x="568" y="720" on="1"/>
        <pt x="653" y="720" on="1"/>
        <pt x="653" y="484" on="1"/>
        <pt x="562" y="484" on="1"/>
        <pt x="548" y="572" on="0"/>
        <pt x="451" y="661" on="0"/>
      </contour>
      <contour>
        <pt x="568" y="769" on="1"/>
        <pt x="485" y="769" on="1"/>
        <pt x="387" y="830" on="1"/>
        <pt x="289" y="769" on="1"/>
        <pt x="206" y="769" on="1"/>
        <pt x="324" y="890" on="1"/>
        <pt x="449" y="890" on="1"/>
      </contour>
    </TTGlyph>
    <TTGlyph name="Cdotaccent" xMin="43" yMin="-10" xMax="668" yMax="895">
      <contour>
        <pt x="377" y="661" on="1"/>
        <pt x="339" y="661" on="0"/>
        <pt x="270" y="629" on="0"/>
        <pt x="249" y="599" on="1"/>
        <pt x="222" y="560" on="0"/>
        <pt x="185" y="444" on="0"/>
        <pt x="185" y="372" on="1"/>
        <pt x="185" y="300" on="0"/>
        <pt x="215" y="177" on="0"/>
        <pt x="242" y="135" on="1"/>
        <pt x="264" y="100" on="0"/>
        <pt x="338" y="69" on="0"/>
        <pt x="386" y="69" on="1"/>
        <pt x="554" y="69" on="0"/>
        <pt x="583" y="238" on="1"/>
        <pt x="668" y="238" on="1"/>
        <pt x="643" y="112" on="0"/>
        <pt x="494" y="-10" on="0"/>
        <pt x="364" y="-10" on="1"/>
        <pt x="226" y="-10" on="0"/>
        <pt x="144" y="70" on="1"/>
        <pt x="95" y="118" on="0"/>
        <pt x="43" y="263" on="0"/>
        <pt x="43" y="353" on="1"/>
        <pt x="43" y="454" on="0"/>
        <pt x="109" y="617" on="0"/>
        <pt x="169" y="667" on="1"/>
        <pt x="245" y="730" on="0"/>
        <pt x="370" y="730" on="1"/>
        <pt x="401" y="730" on="0"/>
        <pt x="450" y="723" on="0"/>
        <pt x="492" y="706" on="0"/>
        <pt x="529" y="678" on="0"/>
        <pt x="548" y="657" on="1"/>
        <pt x="568" y="720" on="1"/>
        <pt x="653" y="720" on="1"/>
        <pt x="653" y="484" on="1"/>
        <pt x="562" y="484" on="1"/>
        <pt x="548" y="572" on="0"/>
        <pt x="451" y="661" on="0"/>
      </contour>
      <contour>
        <pt x="310" y="817" on="1"/>
        <pt x="310" y="853" on="0"/>
        <pt x="352" y="895" on="0"/>
        <pt x="387" y="895" on="1"/>
        <pt x="422" y="895" on="0"/>
        <pt x="465" y="852" on="0"/>
        <pt x="465" y="817" on="1"/>
        <pt x="465" y="782" on="0"/>
        <pt x="423" y="740" on="0"/>
        <pt x="387" y="740" on="1"/>
        <pt x="351" y="740" on="0"/>
        <pt x="310" y="781" on="0"/>
      </contour>
    </TTGlyph>
    <TTGlyph name="D" xMin="41" yMin="0" xMax="736" yMax="720">
      <contour>
        <pt x="380" y="75" on="1"/>
        <pt x="434" y="75" on="0"/>
        <pt x="510" y="108" on="0"/>
        <pt x="536" y="141" on="1"/>
        <pt x="563" y="175" on="0"/>
        <pt x="591" y="280" on="0"/>
        <pt x="591" y="354" on="1"/>
        <pt x="591" y="496" on="0"/>
        <pt x="536" y="571" on="1"/>
        <pt x="509" y="608" on="0"/>
        <pt x="428" y="645" on="0"/>
        <pt x="370" y="645" on="1"/>
        <pt x="255" y="645" on="1"/>
        <pt x="255" y="75" on="1"/>
      </contour>
      <contour>
        <pt x="407" y="720" on="1"/>
        <pt x="556" y="720" on="0"/>
        <pt x="639" y="636" on="1"/>
        <pt x="686" y="588" on="0"/>
        <pt x="736" y="448" on="0"/>
        <pt x="736" y="368" on="1"/>
        <pt x="736" y="283" on="0"/>
        <pt x="684" y="137" on="0"/>
        <pt x="636" y="87" on="1"/>
        <pt x="594" y="42" on="0"/>
        <pt x="478" y="0" on="0"/>
        <pt x="398" y="0" on="1"/>
        <pt x="41" y="0" on="1"/>
        <pt x="41" y="58" on="1"/>
        <pt x="125" y="79" on="1"/>
        <pt x="125" y="641" on="1"/>
        <pt x="41" y="662" on="1"/>
        <pt x="41" y="720" on="1"/>
      </contour>
    </TTGlyph>
    <TTGlyph name="Dcaron" xMin="41" yMin="0" xMax="736" yMax="890">
      <contour>
        <pt x="380" y="75" on="1"/>
        <pt x="434" y="75" on="0"/>
        <pt x="510" y="108" on="0"/>
        <pt x="536" y="141" on="1"/>
        <pt x="563" y="175" on="0"/>
        <pt x="591" y="280" on="0"/>
        <pt x="591" y="354" on="1"/>
        <pt x="591" y="496" on="0"/>
        <pt x="536" y="571" on="1"/>
        <pt x="509" y="608" on="0"/>
        <pt x="428" y="645" on="0"/>
        <pt x="370" y="645" on="1"/>
        <pt x="255" y="645" on="1"/>
        <pt x="255" y="75" on="1"/>
      </contour>
      <contour>
        <pt x="407" y="720" on="1"/>
        <pt x="556" y="720" on="0"/>
        <pt x="639" y="636" on="1"/>
        <pt x="686" y="588" on="0"/>
        <pt x="736" y="448" on="0"/>
        <pt x="736" y="368" on="1"/>
        <pt x="736" y="283" on="0"/>
        <pt x="684" y="137" on="0"/>
        <pt x="636" y="87" on="1"/>
        <pt x="594" y="42" on="0"/>
        <pt x="478" y="0" on="0"/>
        <pt x="398" y="0" on="1"/>
        <pt x="41" y="0" on="1"/>
        <pt x="41" y="58" on="1"/>
        <pt x="125" y="79" on="1"/>
        <pt x="125" y="641" on="1"/>
        <pt x="41" y="662" on="1"/>
        <pt x="41" y="720" on="1"/>
      </contour>
      <contour>
        <pt x="432" y="769" on="1"/>
        <pt x="307" y="769" on="1"/>
        <pt x="189" y="890" on="1"/>
        <pt x="272" y="890" on="1"/>
        <pt x="370" y="829" on="1"/>
        <pt x="468" y="890" on="1"/>
        <pt x="551" y="890" on="1"/>
      </contour>
    </TTGlyph>
    <TTGlyph name="Dcroat" xMin="46" yMin="0" xMax="741" yMax="720">
      <contour>
        <pt x="61" y="404" on="1"/>
        <pt x="130" y="404" on="1"/>
        <pt x="130" y="641" on="1"/>
        <pt x="46" y="662" on="1"/>
        <pt x="46" y="720" on="1"/>
        <pt x="412" y="720" on="1"/>
        <pt x="561" y="720" on="0"/>
        <pt x="644" y="636" on="1"/>
        <pt x="691" y="588" on="0"/>
        <pt x="741" y="448" on="0"/>
        <pt x="741" y="368" on="1"/>
        <pt x="741" y="283" on="0"/>
        <pt x="689" y="137" on="0"/>
        <pt x="641" y="87" on="1"/>
        <pt x="599" y="42" on="0"/>
        <pt x="483" y="0" on="0"/>
        <pt x="403" y="0" on="1"/>
        <pt x="46" y="0" on="1"/>
        <pt x="46" y="58" on="1"/>
        <pt x="130" y="79" on="1"/>
        <pt x="130" y="324" on="1"/>
        <pt x="61" y="324" on="1"/>
      </contour>
      <contour>
        <pt x="385" y="75" on="1"/>
        <pt x="439" y="75" on="0"/>
        <pt x="515" y="108" on="0"/>
        <pt x="541" y="141" on="1"/>
        <pt x="568" y="175" on="0"/>
        <pt x="596" y="280" on="0"/>
        <pt x="596" y="354" on="1"/>
        <pt x="596" y="496" on="0"/>
        <pt x="541" y="571" on="1"/>
        <pt x="514" y="608" on="0"/>
        <pt x="433" y="645" on="0"/>
        <pt x="375" y="645" on="1"/>
        <pt x="260" y="645" on="1"/>
        <pt x="260" y="404" on="1"/>
        <pt x="390" y="404" on="1"/>
        <pt x="390" y="324" on="1"/>
        <pt x="260" y="324" on="1"/>
        <pt x="260" y="75" on="1"/>
      </contour>
    </TTGlyph>
    <TTGlyph name="Ddotbelow" xMin="41" yMin="0" xMax="736" yMax="720">
      <contour>
        <pt x="380" y="75" on="1"/>
        <pt x="434" y="75" on="0"/>
        <pt x="510" y="108" on="0"/>
        <pt x="536" y="141" on="1"/>
        <pt x="563" y="175" on="0"/>
        <pt x="591" y="280" on="0"/>
        <pt x="591" y="354" on="1"/>
        <pt x="591" y="496" on="0"/>
        <pt x="536" y="571" on="1"/>
        <pt x="509" y="608" on="0"/>
        <pt x="428" y="645" on="0"/>
        <pt x="370" y="645" on="1"/>
        <pt x="255" y="645" on="1"/>
        <pt x="255" y="75" on="1"/>
      </contour>
      <contour>
        <pt x="407" y="720" on="1"/>
        <pt x="556" y="720" on="0"/>
        <pt x="639" y="636" on="1"/>
        <pt x="686" y="588" on="0"/>
        <pt x="736" y="448" on="0"/>
        <pt x="736" y="368" on="1"/>
        <pt x="736" y="283" on="0"/>
        <pt x="684" y="137" on="0"/>
        <pt x="636" y="87" on="1"/>
        <pt x="594" y="42" on="0"/>
        <pt x="478" y="0" on="0"/>
        <pt x="398" y="0" on="1"/>
        <pt x="41" y="0" on="1"/>
        <pt x="41" y="58" on="1"/>
        <pt x="125" y="79" on="1"/>
        <pt x="125" y="641" on="1"/>
        <pt x="41" y="662" on="1"/>
        <pt x="41" y="720" on="1"/>
      </contour>
    </TTGlyph>
    <TTGlyph name="E" xMin="36" yMin="0" xMax="651" yMax="720">
      <contour>
        <pt x="414" y="238" on="1"/>
        <pt x="397" y="332" on="1"/>
        <pt x="260" y="332" on="1"/>
        <pt x="260" y="75" on="1"/>
        <pt x="535" y="75" on="1"/>
        <pt x="563" y="223" on="1"/>
        <pt x="651" y="223" on="1"/>
        <pt x="651" y="0" on="1"/>
        <pt x="36" y="0" on="1"/>
        <pt x="36" y="58" on="1"/>
        <pt x="130" y="79" on="1"/>
        <pt x="130" y="641" on="1"/>
        <pt x="36" y="662" on="1"/>
        <pt x="36" y="720" on="1"/>
        <pt x="629" y="720" on="1"/>
        <pt x="629" y="508" on="1"/>
        <pt x="547" y="508" on="1"/>
        <pt x="518" y="647" on="1"/>
        <pt x="260" y="647" on="1"/>
        <pt x="260" y="407" on="1"/>
        <pt x="397" y="407" on="1"/>
        <pt x="414" y="502" on="1"/>
        <pt x="495" y="502" on="1"/>
        <pt x="495" y="238" on="1"/>
      </contour>
    </TTGlyph>
    <TTGlyph name="Eacute" xMin="36" yMin="0" xMax="651" yMax="900">
      <contour>
        <pt x="414" y="238" on="1"/>
        <pt x="397" y="332" on="1"/>
        <pt x="260" y="332" on="1"/>
        <pt x="260" y="75" on="1"/>
        <pt x="535" y="75" on="1"/>
        <pt x="563" y="223" on="1"/>
        <pt x="651" y="223" on="1"/>
        <pt x="651" y="0" on="1"/>
        <pt x="36" y="0" on="1"/>
        <pt x="36" y="58" on="1"/>
        <pt x="130" y="79" on="1"/>
        <pt x="130" y="641" on="1"/>
        <pt x="36" y="662" on="1"/>
        <pt x="36" y="720" on="1"/>
        <pt x="629" y="720" on="1"/>
        <pt x="629" y="508" on="1"/>
        <pt x="547" y="508" on="1"/>
        <pt x="518" y="647" on="1"/>
        <pt x="260" y="647" on="1"/>
        <pt x="260" y="407" on="1"/>
        <pt x="397" y="407" on="1"/>
        <pt x="414" y="502" on="1"/>
        <pt x="495" y="502" on="1"/>
        <pt x="495" y="238" on="1"/>
      </contour>
      <contour>
        <pt x="372" y="836" on="1"/>
        <pt x="388" y="857" on="0"/>
        <pt x="413" y="882" on="0"/>
        <pt x="434" y="895" on="0"/>
        <pt x="456" y="900" on="0"/>
        <pt x="470" y="900" on="1"/>
        <pt x="494" y="900" on="0"/>
        <pt x="517" y="876" on="0"/>
        <pt x="517" y="861" on="1"/>
        <pt x="517" y="851" on="0"/>
        <pt x="511" y="836" on="0"/>
        <pt x="494" y="821" on="0"/>
        <pt x="465" y="802" on="0"/>
        <pt x="442" y="788" on="1"/>
        <pt x="395" y="760" on="1"/>
        <pt x="312" y="760" on="1"/>
      </contour>
    </TTGlyph>
    <TTGlyph name="Ebreve" xMin="36" yMin="0" xMax="651" yMax="899">
      <contour>
        <pt x="522" y="899" on="1"/>
        <pt x="520" y="821" on="0"/>
        <pt x="443" y="729" on="0"/>
        <pt x="382" y="720" on="1"/>
        <pt x="629" y="720" on="1"/>
        <pt x="629" y="508" on="1"/>
        <pt x="547" y="508" on="1"/>
        <pt x="518" y="647" on="1"/>
        <pt x="260" y="647" on="1"/>
        <pt x="260" y="407" on="1"/>
        <pt x="397" y="407" on="1"/>
        <pt x="414" y="502" on="1"/>
        <pt x="495" y="502" on="1"/>
        <pt x="495" y="238" on="1"/>
        <pt x="414" y="238" on="1"/>
        <pt x="397" y="332" on="1"/>
        <pt x="260" y="332" on="1"/>
        <pt x="260" y="75" on="1"/>
        <pt x="535" y="75" on="1"/>
        <pt x="563" y="223" on="1"/>
        <pt x="651" y="223" on="1"/>
        <pt x="651" y="0" on="1"/>
        <pt x="36" y="0" on="1"/>
        <pt x="36" y="58" on="1"/>
        <pt x="130" y="79" on="1"/>
        <pt x="130" y="641" on="1"/>
        <pt x="36" y="662" on="1"/>
        <pt x="36" y="720" on="1"/>
        <pt x="325" y="720" on="1"/>
        <pt x="263" y="730" on="0"/>
        <pt x="198" y="826" on="0"/>
        <pt x="198" y="899" on="1"/>
        <pt x="261" y="899" on="1"/>
        <pt x="263" y="855" on="0"/>
        <pt x="315" y="817" on="0"/>
        <pt x="354" y="817" on="1"/>
        <pt x="404" y="817" on="0"/>
        <pt x="459" y="855" on="0"/>
        <pt x="459" y="899" on="1"/>
      </contour>
    </TTGlyph>
    <TTGlyph name="Ecaron" xMin="36" yMin="0" xMax="651" yMax="890">
      <contour>
        <pt x="414" y="238" on="1"/>
        <pt x="397" y="332" on="1"/>
        <pt x="260" y="332" on="1"/>
        <pt x="260" y="75" on="1"/>
        <pt x="535" y="75" on="1"/>
        <pt x="563" y="223" on="1"/>
        <pt x="651" y="223" on="1"/>
        <pt x="651" y="0" on="1"/>
        <pt x="36" y="0" on="1"/>
        <pt x="36" y="58" on="1"/>
        <pt x="130" y="79" on="1"/>
        <pt x="130" y="641" on="1"/>
        <pt x="36" y="662" on="1"/>
        <pt x="36" y="720" on="1"/>
        <pt x="629" y="720" on="1"/>
        <pt x="629" y="508" on="1"/>
        <pt x="547" y="508" on="1"/>
        <pt x="518" y="647" on="1"/>
        <pt x="260" y="647" on="1"/>
        <pt x="260" y="407" on="1"/>
        <pt x="397" y="407" on="1"/>
        <pt x="414" y="502" on="1"/>
        <pt x="495" y="502" on="1"/>
        <pt x="495" y="238" on="1"/>
      </contour>
      <contour>
        <pt x="435" y="769" on="1"/>
        <pt x="310" y="769" on="1"/>
        <pt x="192" y="890" on="1"/>
        <pt x="275" y="890" on="1"/>
        <pt x="373" y="829" on="1"/>
        <pt x="471" y="890" on="1"/>
        <pt x="554" y="890" on="1"/>
      </contour>
    </TTGlyph>
    <TTGlyph name="Ecircumflex" xMin="36" yMin="0" xMax="651" yMax="890">
      <contour>
        <pt x="414" y="238" on="1"/>
        <pt x="397" y="332" on="1"/>
        <pt x="260" y="332" on="1"/>
        <pt x="260" y="75" on="1"/>
        <pt x="535" y="75" on="1"/>
        <pt x="563" y="223" on="1"/>
        <pt x="651" y="223" on="1"/>
        <pt x="651" y="0" on="1"/>
        <pt x="36" y="0" on="1"/>
        <pt x="36" y="58" on="1"/>
        <pt x="130" y="79" on="1"/>
        <pt x="130" y="641" on="1"/>
        <pt x="36" y="662" on="1"/>
        <pt x="36" y="720" on="1"/>
        <pt x="629" y="720" on="1"/>
        <pt x="629" y="508" on="1"/>
        <pt x="547" y="508" on="1"/>
        <pt x="518" y="647" on="1"/>
        <pt x="260" y="647" on="1"/>
        <pt x="260" y="407" on="1"/>
        <pt x="397" y="407" on="1"/>
        <pt x="414" y="502" on="1"/>
        <pt x="495" y="502" on="1"/>
        <pt x="495" y="238" on="1"/>
      </contour>
      <contour>
        <pt x="535" y="769" on="1"/>
        <pt x="452" y="769" on="1"/>
        <pt x="354" y="830" on="1"/>
        <pt x="256" y="769" on="1"/>
        <pt x="173" y="769" on="1"/>
        <pt x="291" y="890" on="1"/>
        <pt x="416" y="890" on="1"/>
      </contour>
    </TTGlyph>
    <TTGlyph name="Edieresis" xMin="36" yMin="0" xMax="651" yMax="720">
      <contour>
        <pt x="414" y="238" on="1"/>
        <pt x="397" y="332" on="1"/>
        <pt x="260" y="332" on="1"/>
        <pt x="260" y="75" on="1"/>
        <pt x="535" y="75" on="1"/>
        <pt x="563" y="223" on="1"/>
        <pt x="651" y="223" on="1"/>
        <pt x="651" y="0" on="1"/>
        <pt x="36" y="0" on="1"/>
        <pt x="36" y="58" on="1"/>
        <pt x="130" y="79" on="1"/>
        <pt x="130" y="641" on="1"/>
        <pt x="36" y="662" on="1"/>
        <pt x="36" y="720" on="1"/>
        <pt x="629" y="720" on="1"/>
        <pt x="629" y="508" on="1"/>
        <pt x="547" y="508" on="1"/>
        <pt x="518" y="647" on="1"/>
        <pt x="260" y="647" on="1"/>
        <pt x="260" y="407" on="1"/>
        <pt x="397" y="407" on="1"/>
        <pt x="414" y="502" on="1"/>
        <pt x="495" y="502" on="1"/>
        <pt x="495" y="238" on="1"/>
      </contour>
    </TTGlyph>
    <TTGlyph name="Edotaccent" xMin="36" yMin="0" xMax="651" yMax="895">
      <contour>
        <pt x="414" y="238" on="1"/>
        <pt x="397" y="332" on="1"/>
        <pt x="260" y="332" on="1"/>
        <pt x="260" y="75" on="1"/>
        <pt x="535" y="75" on="1"/>
        <pt x="563" y="223" on="1"/>
        <pt x="651" y="223" on="1"/>
        <pt x="651" y="0" on="1"/>
        <pt x="36" y="0" on="1"/>
        <pt x="36" y="58" on="1"/>
        <pt x="130" y="79" on="1"/>
        <pt x="130" y="641" on="1"/>
        <pt x="36" y="662" on="1"/>
        <pt x="36" y="720" on="1"/>
        <pt x="629" y="720" on="1"/>
        <pt x="629" y="508" on="1"/>
        <pt x="547" y="508" on="1"/>
        <pt x="518" y="647" on="1"/>
        <pt x="260" y="647" on="1"/>
        <pt x="260" y="407" on="1"/>
        <pt x="397" y="407" on="1"/>
        <pt x="414" y="502" on="1"/>
        <pt x="495" y="502" on="1"/>
        <pt x="495" y="238" on="1"/>
      </contour>
      <contour>
        <pt x="279" y="817" on="1"/>
        <pt x="279" y="853" on="0"/>
        <pt x="321" y="895" on="0"/>
        <pt x="356" y="895" on="1"/>
        <pt x="391" y="895" on="0"/>
        <pt x="434" y="852" on="0"/>
        <pt x="434" y="817" on="1"/>
        <pt x="434" y="782" on="0"/>
        <pt x="392" y="740" on="0"/>
        <pt x="356" y="740" on="1"/>
        <pt x="320" y="740" on="0"/>
        <pt x="279" y="781" on="0"/>
      </contour>
    </TTGlyph>
    <TTGlyph name="Edotbelow" xMin="36" yMin="0" xMax="651" yMax="720">
      <contour>
        <pt x="414" y="238" on="1"/>
        <pt x="397" y="332" on="1"/>
        <pt x="260" y="332" on="1"/>
        <pt x="260" y="75" on="1"/>
        <pt x="535" y="75" on="1"/>
        <pt x="563" y="223" on="1"/>
        <pt x="651" y="223" on="1"/>
        <pt x="651" y="0" on="1"/>
        <pt x="36" y="0" on="1"/>
        <pt x="36" y="58" on="1"/>
        <pt x="130" y="79" on="1"/>
        <pt x="130" y="641" on="1"/>
        <pt x="36" y="662" on="1"/>
        <pt x="36" y="720" on="1"/>
        <pt x="629" y="720" on="1"/>
        <pt x="629" y="508" on="1"/>
        <pt x="547" y="508" on="1"/>
        <pt x="518" y="647" on="1"/>
        <pt x="260" y="647" on="1"/>
        <pt x="260" y="407" on="1"/>
        <pt x="397" y="407" on="1"/>
        <pt x="414" y="502" on="1"/>
        <pt x="495" y="502" on="1"/>
        <pt x="495" y="238" on="1"/>
      </contour>
    </TTGlyph>
    <TTGlyph name="Egrave" xMin="36" yMin="0" xMax="651" yMax="900">
      <contour>
        <pt x="414" y="238" on="1"/>
        <pt x="397" y="332" on="1"/>
        <pt x="260" y="332" on="1"/>
        <pt x="260" y="75" on="1"/>
        <pt x="535" y="75" on="1"/>
        <pt x="563" y="223" on="1"/>
        <pt x="651" y="223" on="1"/>
        <pt x="651" y="0" on="1"/>
        <pt x="36" y="0" on="1"/>
        <pt x="36" y="58" on="1"/>
        <pt x="130" y="79" on="1"/>
        <pt x="130" y="641" on="1"/>
        <pt x="36" y="662" on="1"/>
        <pt x="36" y="720" on="1"/>
        <pt x="629" y="720" on="1"/>
        <pt x="629" y="508" on="1"/>
        <pt x="547" y="508" on="1"/>
        <pt x="518" y="647" on="1"/>
        <pt x="260" y="647" on="1"/>
        <pt x="260" y="407" on="1"/>
        <pt x="397" y="407" on="1"/>
        <pt x="414" y="502" on="1"/>
        <pt x="495" y="502" on="1"/>
        <pt x="495" y="238" on="1"/>
      </contour>
      <contour>
        <pt x="440" y="760" on="1"/>
        <pt x="357" y="760" on="1"/>
        <pt x="310" y="788" on="1"/>
        <pt x="287" y="802" on="0"/>
        <pt x="257" y="821" on="0"/>
        <pt x="241" y="836" on="0"/>
        <pt x="235" y="851" on="0"/>
        <pt x="235" y="861" on="1"/>
        <pt x="235" y="876" on="0"/>
        <pt x="258" y="900" on="0"/>
        <pt x="282" y="900" on="1"/>
        <pt x="296" y="900" on="0"/>
        <pt x="318" y="895" on="0"/>
        <pt x="339" y="882" on="0"/>
        <pt x="363" y="857" on="0"/>
        <pt x="380" y="836" on="1"/>
      </contour>
    </TTGlyph>
    <TTGlyph name="Emacron" xMin="36" yMin="0" xMax="651" yMax="720">
      <contour>
        <pt x="414" y="238" on="1"/>
        <pt x="397" y="332" on="1"/>
        <pt x="260" y="332" on="1"/>
        <pt x="260" y="75" on="1"/>
        <pt x="535" y="75" on="1"/>
        <pt x="563" y="223" on="1"/>
        <pt x="651" y="223" on="1"/>
        <pt x="651" y="0" on="1"/>
        <pt x="36" y="0" on="1"/>
        <pt x="36" y="58" on="1"/>
        <pt x="130" y="79" on="1"/>
        <pt x="130" y="641" on="1"/>
        <pt x="36" y="662" on="1"/>
        <pt x="36" y="720" on="1"/>
        <pt x="629" y="720" on="1"/>
        <pt x="629" y="508" on="1"/>
        <pt x="547" y="508" on="1"/>
        <pt x="518" y="647" on="1"/>
        <pt x="260" y="647" on="1"/>
        <pt x="260" y="407" on="1"/>
        <pt x="397" y="407" on="1"/>
        <pt x="414" y="502" on="1"/>
        <pt x="495" y="502" on="1"/>
        <pt x="495" y="238" on="1"/>
      </contour>
    </TTGlyph>
    <TTGlyph name="Eng" xMin="41" yMin="-190" xMax="785" yMax="720">
      <contour>
        <pt x="125" y="641" on="1"/>
        <pt x="41" y="662" on="1"/>
        <pt x="41" y="720" on="1"/>
        <pt x="272" y="720" on="1"/>
        <pt x="606" y="192" on="1"/>
        <pt x="606" y="641" on="1"/>
        <pt x="522" y="662" on="1"/>
        <pt x="522" y="720" on="1"/>
        <pt x="785" y="720" on="1"/>
        <pt x="785" y="662" on="1"/>
        <pt x="701" y="641" on="1"/>
        <pt x="701" y="85" on="1"/>
        <pt x="701" y="11" on="0"/>
        <pt x="691" y="-74" on="0"/>
        <pt x="679" y="-101" on="1"/>
        <pt x="660" y="-144" on="0"/>
        <pt x="586" y="-190" on="0"/>
        <pt x="538" y="-190" on="1"/>
        <pt x="511" y="-190" on="0"/>
        <pt x="462" y="-176" on="0"/>
        <pt x="425" y="-149" on="0"/>
        <pt x="402" y="-112" on="0"/>
        <pt x="402" y="-88" on="1"/>
        <pt x="402" y="-60" on="0"/>
        <pt x="429" y="-23" on="0"/>
        <pt x="455" y="-23" on="1"/>
        <pt x="478" y="-23" on="0"/>
        <pt x="513" y="-50" on="0"/>
        <pt x="513" y="-78" on="1"/>
        <pt x="513" y="-94" on="0"/>
        <pt x="498" y="-113" on="0"/>
        <pt x="488" y="-117" on="1"/>
        <pt x="490" y="-126" on="0"/>
        <pt x="514" y="-138" on="0"/>
        <pt x="536" y="-138" on="1"/>
        <pt x="570" y="-138" on="0"/>
        <pt x="595" y="-75" on="0"/>
        <pt x="595" y="-24" on="1"/>
        <pt x="595" y="-7" on="1"/>
        <pt x="220" y="574" on="1"/>
        <pt x="220" y="79" on="1"/>
        <pt x="304" y="58" on="1"/>
        <pt x="304" y="0" on="1"/>
        <pt x="41" y="0" on="1"/>
        <pt x="41" y="58" on="1"/>
        <pt x="125" y="79" on="1"/>
      </contour>
    </TTGlyph>
    <TTGlyph name="Eogonek" xMin="36" yMin="-210" xMax="651" yMax="720">
      <contour>
        <pt x="339" y="-210" on="1"/>
        <pt x="283" y="-210" on="0"/>
        <pt x="228" y="-163" on="0"/>
        <pt x="228" y="-125" on="1"/>
        <pt x="228" y="-57" on="0"/>
        <pt x="318" y="0" on="1"/>
        <pt x="36" y="0" on="1"/>
        <pt x="36" y="58" on="1"/>
        <pt x="130" y="79" on="1"/>
        <pt x="130" y="641" on="1"/>
        <pt x="36" y="662" on="1"/>
        <pt x="36" y="720" on="1"/>
        <pt x="629" y="720" on="1"/>
        <pt x="629" y="508" on="1"/>
        <pt x="547" y="508" on="1"/>
        <pt x="518" y="647" on="1"/>
        <pt x="260" y="647" on="1"/>
        <pt x="260" y="407" on="1"/>
        <pt x="397" y="407" on="1"/>
        <pt x="414" y="502" on="1"/>
        <pt x="495" y="502" on="1"/>
        <pt x="495" y="238" on="1"/>
        <pt x="414" y="238" on="1"/>
        <pt x="397" y="332" on="1"/>
        <pt x="260" y="332" on="1"/>
        <pt x="260" y="75" on="1"/>
        <pt x="535" y="75" on="1"/>
        <pt x="563" y="223" on="1"/>
        <pt x="651" y="223" on="1"/>
        <pt x="651" y="0" on="1"/>
        <pt x="393" y="0" on="1"/>
        <pt x="371" y="-18" on="0"/>
        <pt x="330" y="-73" on="0"/>
        <pt x="330" y="-98" on="1"/>
        <pt x="330" y="-116" on="0"/>
        <pt x="357" y="-137" on="0"/>
        <pt x="380" y="-137" on="1"/>
        <pt x="396" y="-137" on="0"/>
        <pt x="427" y="-129" on="0"/>
        <pt x="439" y="-119" on="1"/>
        <pt x="463" y="-154" on="1"/>
        <pt x="446" y="-180" on="0"/>
        <pt x="390" y="-210" on="0"/>
      </contour>
    </TTGlyph>
    <TTGlyph name="Eth" xMin="47" yMin="0" xMax="742" yMax="720">
      <contour>
        <pt x="47" y="404" on="1"/>
        <pt x="131" y="404" on="1"/>
        <pt x="131" y="641" on="1"/>
        <pt x="47" y="662" on="1"/>
        <pt x="47" y="720" on="1"/>
        <pt x="413" y="720" on="1"/>
        <pt x="562" y="720" on="0"/>
        <pt x="645" y="636" on="1"/>
        <pt x="692" y="588" on="0"/>
        <pt x="742" y="448" on="0"/>
        <pt x="742" y="368" on="1"/>
        <pt x="742" y="283" on="0"/>
        <pt x="690" y="137" on="0"/>
        <pt x="642" y="87" on="1"/>
        <pt x="600" y="42" on="0"/>
        <pt x="484" y="0" on="0"/>
        <pt x="404" y="0" on="1"/>
        <pt x="47" y="0" on="1"/>
        <pt x="47" y="58" on="1"/>
        <pt x="131" y="79" on="1"/>
        <pt x="131" y="322" on="1"/>
        <pt x="47" y="322" on="1"/>
      </contour>
      <contour>
        <pt x="386" y="75" on="1"/>
        <pt x="440" y="75" on="0"/>
        <pt x="516" y="100" on="0"/>
        <pt x="542" y="126" on="1"/>
        <pt x="597" y="199" on="0"/>
        <pt x="597" y="354" on="1"/>
        <pt x="597" y="510" on="0"/>
        <pt x="542" y="586" on="1"/>
        <pt x="490" y="645" on="0"/>
        <pt x="376" y="645" on="1"/>
        <pt x="261" y="645" on="1"/>
        <pt x="261" y="404" on="1"/>
        <pt x="388" y="404" on="1"/>
        <pt x="388" y="322" on="1"/>
        <pt x="261" y="322" on="1"/>
        <pt x="261" y="75" on="1"/>
      </contour>
    </TTGlyph>
    <TTGlyph name="Etilde" xMin="36" yMin="0" xMax="651" yMax="900">
      <contour>
        <pt x="414" y="238" on="1"/>
        <pt x="397" y="332" on="1"/>
        <pt x="260" y="332" on="1"/>
        <pt x="260" y="75" on="1"/>
        <pt x="535" y="75" on="1"/>
        <pt x="563" y="223" on="1"/>
        <pt x="651" y="223" on="1"/>
        <pt x="651" y="0" on="1"/>
        <pt x="36" y="0" on="1"/>
        <pt x="36" y="58" on="1"/>
        <pt x="130" y="79" on="1"/>
        <pt x="130" y="641" on="1"/>
        <pt x="36" y="662" on="1"/>
        <pt x="36" y="720" on="1"/>
        <pt x="629" y="720" on="1"/>
        <pt x="629" y="508" on="1"/>
        <pt x="547" y="508" on="1"/>
        <pt x="518" y="647" on="1"/>
        <pt x="260" y="647" on="1"/>
        <pt x="260" y="407" on="1"/>
        <pt x="397" y="407" on="1"/>
        <pt x="414" y="502" on="1"/>
        <pt x="495" y="502" on="1"/>
        <pt x="495" y="238" on="1"/>
      </contour>
      <contour>
        <pt x="155" y="755" on="1"/>
        <pt x="157" y="828" on="0"/>
        <pt x="227" y="900" on="0"/>
        <pt x="282" y="900" on="1"/>
        <pt x="307" y="900" on="0"/>
        <pt x="345" y="883" on="0"/>
        <pt x="377" y="862" on="0"/>
        <pt x="408" y="845" on="0"/>
        <pt x="428" y="845" on="1"/>
        <pt x="458" y="845" on="0"/>
        <pt x="488" y="871" on="0"/>
        <pt x="493" y="895" on="1"/>
        <pt x="553" y="895" on="1"/>
        <pt x="532" y="744" on="0"/>
        <pt x="426" y="744" on="1"/>
        <pt x="401" y="744" on="0"/>
        <pt x="364" y="761" on="0"/>
        <pt x="331" y="782" on="0"/>
        <pt x="299" y="800" on="0"/>
        <pt x="280" y="800" on="1"/>
        <pt x="250" y="800" on="0"/>
        <pt x="220" y="776" on="0"/>
        <pt x="215" y="755" on="1"/>
      </contour>
    </TTGlyph>
    <TTGlyph name="Euro" xMin="34" yMin="-10" xMax="697" yMax="730">
      <contour>
        <pt x="34" y="463" on="1"/>
        <pt x="141" y="463" on="1"/>
        <pt x="162" y="594" on="0"/>
        <pt x="310" y="730" on="0"/>
        <pt x="439" y="730" on="1"/>
        <pt x="497" y="730" on="0"/>
        <pt x="592" y="702" on="0"/>
        <pt x="660" y="654" on="0"/>
        <pt x="697" y="588" on="0"/>
        <pt x="697" y="550" on="1"/>
        <pt x="697" y="512" on="0"/>
        <pt x="653" y="473" on="0"/>
        <pt x="615" y="473" on="1"/>
        <pt x="589" y="473" on="0"/>
        <pt x="550" y="507" on="0"/>
        <pt x="550" y="533" on="1"/>
        <pt x="550" y="553" on="0"/>
        <pt x="569" y="583" on="0"/>
        <pt x="586" y="591" on="1"/>
        <pt x="566" y="623" on="0"/>
        <pt x="496" y="660" on="0"/>
        <pt x="448" y="660" on="1"/>
        <pt x="376" y="660" on="0"/>
        <pt x="289" y="563" on="0"/>
        <pt x="278" y="463" on="1"/>
        <pt x="472" y="463" on="1"/>
        <pt x="472" y="388" on="1"/>
        <pt x="273" y="388" on="1"/>
        <pt x="272" y="380" on="0"/>
        <pt x="272" y="365" on="0"/>
        <pt x="272" y="357" on="1"/>
        <pt x="272" y="348" on="0"/>
        <pt x="272" y="331" on="0"/>
        <pt x="273" y="323" on="1"/>
        <pt x="472" y="323" on="1"/>
        <pt x="472" y="247" on="1"/>
        <pt x="279" y="247" on="1"/>
        <pt x="291" y="149" on="0"/>
        <pt x="364" y="58" on="0"/>
        <pt x="430" y="58" on="1"/>
        <pt x="505" y="58" on="0"/>
        <pt x="598" y="135" on="0"/>
        <pt x="608" y="205" on="1"/>
        <pt x="693" y="205" on="1"/>
        <pt x="670" y="95" on="0"/>
        <pt x="534" y="-10" on="0"/>
        <pt x="416" y="-10" on="1"/>
        <pt x="178" y="-10" on="0"/>
        <pt x="140" y="247" on="1"/>
        <pt x="34" y="247" on="1"/>
        <pt x="34" y="323" on="1"/>
        <pt x="134" y="323" on="1"/>
        <pt x="133" y="330" on="0"/>
        <pt x="133" y="343" on="0"/>
        <pt x="133" y="351" on="1"/>
        <pt x="133" y="361" on="0"/>
        <pt x="133" y="379" on="0"/>
        <pt x="134" y="388" on="1"/>
        <pt x="34" y="388" on="1"/>
      </contour>
    </TTGlyph>
    <TTGlyph name="F" xMin="37" yMin="0" xMax="630" yMax="720">
      <contour>
        <pt x="415" y="227" on="1"/>
        <pt x="398" y="321" on="1"/>
        <pt x="261" y="321" on="1"/>
        <pt x="261" y="82" on="1"/>
        <pt x="378" y="63" on="1"/>
        <pt x="378" y="0" on="1"/>
        <pt x="37" y="0" on="1"/>
        <pt x="37" y="58" on="1"/>
        <pt x="131" y="82" on="1"/>
        <pt x="131" y="641" on="1"/>
        <pt x="37" y="662" on="1"/>
        <pt x="37" y="720" on="1"/>
        <pt x="630" y="720" on="1"/>
        <pt x="630" y="506" on="1"/>
        <pt x="546" y="506" on="1"/>
        <pt x="514" y="647" on="1"/>
        <pt x="261" y="647" on="1"/>
        <pt x="261" y="396" on="1"/>
        <pt x="398" y="396" on="1"/>
        <pt x="415" y="491" on="1"/>
        <pt x="496" y="491" on="1"/>
        <pt x="496" y="227" on="1"/>
      </contour>
    </TTGlyph>
    <TTGlyph name="G" xMin="43" yMin="-10" xMax="749" yMax="730">
      <contour>
        <pt x="378" y="70" on="1"/>
        <pt x="463" y="70" on="0"/>
        <pt x="535" y="154" on="0"/>
        <pt x="535" y="238" on="1"/>
        <pt x="535" y="278" on="1"/>
        <pt x="451" y="299" on="1"/>
        <pt x="451" y="359" on="1"/>
        <pt x="749" y="359" on="1"/>
        <pt x="749" y="299" on="1"/>
        <pt x="665" y="278" on="1"/>
        <pt x="665" y="0" on="1"/>
        <pt x="583" y="0" on="1"/>
        <pt x="558" y="79" on="1"/>
        <pt x="514" y="31" on="0"/>
        <pt x="422" y="-10" on="0"/>
        <pt x="359" y="-10" on="1"/>
        <pt x="222" y="-10" on="0"/>
        <pt x="140" y="74" on="1"/>
        <pt x="93" y="122" on="0"/>
        <pt x="43" y="264" on="0"/>
        <pt x="43" y="352" on="1"/>
        <pt x="43" y="441" on="0"/>
        <pt x="96" y="593" on="0"/>
        <pt x="144" y="644" on="1"/>
        <pt x="185" y="687" on="0"/>
        <pt x="296" y="730" on="0"/>
        <pt x="373" y="730" on="1"/>
        <pt x="403" y="730" on="0"/>
        <pt x="451" y="722" on="0"/>
        <pt x="492" y="705" on="0"/>
        <pt x="529" y="678" on="0"/>
        <pt x="548" y="658" on="1"/>
        <pt x="568" y="720" on="1"/>
        <pt x="653" y="720" on="1"/>
        <pt x="653" y="484" on="1"/>
        <pt x="562" y="484" on="1"/>
        <pt x="548" y="565" on="0"/>
        <pt x="458" y="661" on="0"/>
        <pt x="377" y="661" on="1"/>
        <pt x="332" y="661" on="0"/>
        <pt x="272" y="631" on="0"/>
        <pt x="250" y="603" on="1"/>
        <pt x="222" y="561" on="0"/>
        <pt x="184" y="438" on="0"/>
        <pt x="184" y="366" on="1"/>
        <pt x="184" y="295" on="0"/>
        <pt x="219" y="166" on="0"/>
        <pt x="251" y="122" on="1"/>
        <pt x="271" y="95" on="0"/>
        <pt x="338" y="70" on="0"/>
      </contour>
    </TTGlyph>
    <TTGlyph name="Gbreve" xMin="43" yMin="-10" xMax="749" yMax="899">
      <contour>
        <pt x="547" y="899" on="1"/>
        <pt x="545" y="830" on="0"/>
        <pt x="482" y="741" on="0"/>
        <pt x="431" y="725" on="1"/>
        <pt x="466" y="719" on="0"/>
        <pt x="520" y="687" on="0"/>
        <pt x="548" y="658" on="1"/>
        <pt x="568" y="720" on="1"/>
        <pt x="653" y="720" on="1"/>
        <pt x="653" y="484" on="1"/>
        <pt x="562" y="484" on="1"/>
        <pt x="548" y="565" on="0"/>
        <pt x="458" y="661" on="0"/>
        <pt x="377" y="661" on="1"/>
        <pt x="332" y="661" on="0"/>
        <pt x="272" y="631" on="0"/>
        <pt x="250" y="603" on="1"/>
        <pt x="222" y="561" on="0"/>
        <pt x="184" y="438" on="0"/>
        <pt x="184" y="366" on="1"/>
        <pt x="184" y="295" on="0"/>
        <pt x="219" y="166" on="0"/>
        <pt x="251" y="122" on="1"/>
        <pt x="271" y="95" on="0"/>
        <pt x="338" y="70" on="0"/>
        <pt x="378" y="70" on="1"/>
        <pt x="463" y="70" on="0"/>
        <pt x="535" y="154" on="0"/>
        <pt x="535" y="238" on="1"/>
        <pt x="535" y="278" on="1"/>
        <pt x="451" y="299" on="1"/>
        <pt x="451" y="359" on="1"/>
        <pt x="749" y="359" on="1"/>
        <pt x="749" y="299" on="1"/>
        <pt x="665" y="278" on="1"/>
        <pt x="665" y="0" on="1"/>
        <pt x="583" y="0" on="1"/>
        <pt x="558" y="79" on="1"/>
        <pt x="514" y="31" on="0"/>
        <pt x="422" y="-10" on="0"/>
        <pt x="359" y="-10" on="1"/>
        <pt x="222" y="-10" on="0"/>
        <pt x="140" y="74" on="1"/>
        <pt x="93" y="122" on="0"/>
        <pt x="43" y="264" on="0"/>
        <pt x="43" y="352" on="1"/>
        <pt x="43" y="441" on="0"/>
        <pt x="96" y="593" on="0"/>
        <pt x="144" y="644" on="1"/>
        <pt x="177" y="679" on="0"/>
        <pt x="264" y="721" on="0"/>
        <pt x="321" y="727" on="1"/>
        <pt x="273" y="744" on="0"/>
        <pt x="223" y="835" on="0"/>
        <pt x="223" y="899" on="1"/>
        <pt x="286" y="899" on="1"/>
        <pt x="288" y="855" on="0"/>
        <pt x="340" y="817" on="0"/>
        <pt x="379" y="817" on="1"/>
        <pt x="429" y="817" on="0"/>
        <pt x="484" y="855" on="0"/>
        <pt x="484" y="899" on="1"/>
      </contour>
    </TTGlyph>
    <TTGlyph name="Gcircumflex" xMin="43" yMin="-10" xMax="749" yMax="890">
      <contour>
        <pt x="378" y="70" on="1"/>
        <pt x="463" y="70" on="0"/>
        <pt x="535" y="154" on="0"/>
        <pt x="535" y="238" on="1"/>
        <pt x="535" y="278" on="1"/>
        <pt x="451" y="299" on="1"/>
        <pt x="451" y="359" on="1"/>
        <pt x="749" y="359" on="1"/>
        <pt x="749" y="299" on="1"/>
        <pt x="665" y="278" on="1"/>
        <pt x="665" y="0" on="1"/>
        <pt x="583" y="0" on="1"/>
        <pt x="558" y="79" on="1"/>
        <pt x="514" y="31" on="0"/>
        <pt x="422" y="-10" on="0"/>
        <pt x="359" y="-10" on="1"/>
        <pt x="222" y="-10" on="0"/>
        <pt x="140" y="74" on="1"/>
        <pt x="93" y="122" on="0"/>
        <pt x="43" y="264" on="0"/>
        <pt x="43" y="352" on="1"/>
        <pt x="43" y="441" on="0"/>
        <pt x="96" y="593" on="0"/>
        <pt x="144" y="644" on="1"/>
        <pt x="185" y="687" on="0"/>
        <pt x="296" y="730" on="0"/>
        <pt x="373" y="730" on="1"/>
        <pt x="403" y="730" on="0"/>
        <pt x="451" y="722" on="0"/>
        <pt x="492" y="705" on="0"/>
        <pt x="529" y="678" on="0"/>
        <pt x="548" y="658" on="1"/>
        <pt x="568" y="720" on="1"/>
        <pt x="653" y="720" on="1"/>
        <pt x="653" y="484" on="1"/>
        <pt x="562" y="484" on="1"/>
        <pt x="548" y="565" on="0"/>
        <pt x="458" y="661" on="0"/>
        <pt x="377" y="661" on="1"/>
        <pt x="332" y="661" on="0"/>
        <pt x="272" y="631" on="0"/>
        <pt x="250" y="603" on="1"/>
        <pt x="222" y="561" on="0"/>
        <pt x="184" y="438" on="0"/>
        <pt x="184" y="366" on="1"/>
        <pt x="184" y="295" on="0"/>
        <pt x="219" y="166" on="0"/>
        <pt x="251" y="122" on="1"/>
        <pt x="271" y="95" on="0"/>
        <pt x="338" y="70" on="0"/>
      </contour>
      <contour>
        <pt x="560" y="769" on="1"/>
        <pt x="477" y="769" on="1"/>
        <pt x="379" y="830" on="1"/>
        <pt x="281" y="769" on="1"/>
        <pt x="198" y="769" on="1"/>
        <pt x="316" y="890" on="1"/>
        <pt x="441" y="890" on="1"/>
      </contour>
    </TTGlyph>
    <TTGlyph name="Gcommaaccent" xMin="43" yMin="-240" xMax="749" yMax="730">
      <contour>
        <pt x="378" y="70" on="1"/>
        <pt x="463" y="70" on="0"/>
        <pt x="535" y="154" on="0"/>
        <pt x="535" y="238" on="1"/>
        <pt x="535" y="278" on="1"/>
        <pt x="451" y="299" on="1"/>
        <pt x="451" y="359" on="1"/>
        <pt x="749" y="359" on="1"/>
        <pt x="749" y="299" on="1"/>
        <pt x="665" y="278" on="1"/>
        <pt x="665" y="0" on="1"/>
        <pt x="583" y="0" on="1"/>
        <pt x="558" y="79" on="1"/>
        <pt x="514" y="31" on="0"/>
        <pt x="422" y="-10" on="0"/>
        <pt x="359" y="-10" on="1"/>
        <pt x="222" y="-10" on="0"/>
        <pt x="140" y="74" on="1"/>
        <pt x="93" y="122" on="0"/>
        <pt x="43" y="264" on="0"/>
        <pt x="43" y="352" on="1"/>
        <pt x="43" y="441" on="0"/>
        <pt x="96" y="593" on="0"/>
        <pt x="144" y="644" on="1"/>
        <pt x="185" y="687" on="0"/>
        <pt x="296" y="730" on="0"/>
        <pt x="373" y="730" on="1"/>
        <pt x="403" y="730" on="0"/>
        <pt x="451" y="722" on="0"/>
        <pt x="492" y="705" on="0"/>
        <pt x="529" y="678" on="0"/>
        <pt x="548" y="658" on="1"/>
        <pt x="568" y="720" on="1"/>
        <pt x="653" y="720" on="1"/>
        <pt x="653" y="484" on="1"/>
        <pt x="562" y="484" on="1"/>
        <pt x="548" y="565" on="0"/>
        <pt x="458" y="661" on="0"/>
        <pt x="377" y="661" on="1"/>
        <pt x="332" y="661" on="0"/>
        <pt x="272" y="631" on="0"/>
        <pt x="250" y="603" on="1"/>
        <pt x="222" y="561" on="0"/>
        <pt x="184" y="438" on="0"/>
        <pt x="184" y="366" on="1"/>
        <pt x="184" y="295" on="0"/>
        <pt x="219" y="166" on="0"/>
        <pt x="251" y="122" on="1"/>
        <pt x="271" y="95" on="0"/>
        <pt x="338" y="70" on="0"/>
      </contour>
      <contour>
        <pt x="388" y="-44" on="1"/>
        <pt x="421" y="-44" on="0"/>
        <pt x="460" y="-79" on="0"/>
        <pt x="460" y="-109" on="1"/>
        <pt x="460" y="-148" on="0"/>
        <pt x="414" y="-212" on="0"/>
        <pt x="360" y="-240" on="1"/>
        <pt x="330" y="-208" on="1"/>
        <pt x="379" y="-169" on="0"/>
        <pt x="382" y="-141" on="1"/>
        <pt x="379" y="-139" on="1"/>
        <pt x="377" y="-141" on="0"/>
        <pt x="367" y="-144" on="0"/>
        <pt x="362" y="-144" on="1"/>
        <pt x="343" y="-144" on="0"/>
        <pt x="323" y="-116" on="0"/>
        <pt x="323" y="-99" on="1"/>
        <pt x="323" y="-73" on="0"/>
        <pt x="355" y="-44" on="0"/>
      </contour>
    </TTGlyph>
    <TTGlyph name="Gdotaccent" xMin="43" yMin="-10" xMax="749" yMax="895">
      <contour>
        <pt x="378" y="70" on="1"/>
        <pt x="463" y="70" on="0"/>
        <pt x="535" y="154" on="0"/>
        <pt x="535" y="238" on="1"/>
        <pt x="535" y="278" on="1"/>
        <pt x="451" y="299" on="1"/>
        <pt x="451" y="359" on="1"/>
        <pt x="749" y="359" on="1"/>
        <pt x="749" y="299" on="1"/>
        <pt x="665" y="278" on="1"/>
        <pt x="665" y="0" on="1"/>
        <pt x="583" y="0" on="1"/>
        <pt x="558" y="79" on="1"/>
        <pt x="514" y="31" on="0"/>
        <pt x="422" y="-10" on="0"/>
        <pt x="359" y="-10" on="1"/>
        <pt x="222" y="-10" on="0"/>
        <pt x="140" y="74" on="1"/>
        <pt x="93" y="122" on="0"/>
        <pt x="43" y="264" on="0"/>
        <pt x="43" y="352" on="1"/>
        <pt x="43" y="441" on="0"/>
        <pt x="96" y="593" on="0"/>
        <pt x="144" y="644" on="1"/>
        <pt x="185" y="687" on="0"/>
        <pt x="296" y="730" on="0"/>
        <pt x="373" y="730" on="1"/>
        <pt x="403" y="730" on="0"/>
        <pt x="451" y="722" on="0"/>
        <pt x="492" y="705" on="0"/>
        <pt x="529" y="678" on="0"/>
        <pt x="548" y="658" on="1"/>
        <pt x="568" y="720" on="1"/>
        <pt x="653" y="720" on="1"/>
        <pt x="653" y="484" on="1"/>
        <pt x="562" y="484" on="1"/>
        <pt x="548" y="565" on="0"/>
        <pt x="458" y="661" on="0"/>
        <pt x="377" y="661" on="1"/>
        <pt x="332" y="661" on="0"/>
        <pt x="272" y="631" on="0"/>
        <pt x="250" y="603" on="1"/>
        <pt x="222" y="561" on="0"/>
        <pt x="184" y="438" on="0"/>
        <pt x="184" y="366" on="1"/>
        <pt x="184" y="295" on="0"/>
        <pt x="219" y="166" on="0"/>
        <pt x="251" y="122" on="1"/>
        <pt x="271" y="95" on="0"/>
        <pt x="338" y="70" on="0"/>
      </contour>
      <contour>
        <pt x="302" y="817" on="1"/>
        <pt x="302" y="853" on="0"/>
        <pt x="344" y="895" on="0"/>
        <pt x="379" y="895" on="1"/>
        <pt x="414" y="895" on="0"/>
        <pt x="457" y="852" on="0"/>
        <pt x="457" y="817" on="1"/>
        <pt x="457" y="782" on="0"/>
        <pt x="415" y="740" on="0"/>
        <pt x="379" y="740" on="1"/>
        <pt x="343" y="740" on="0"/>
        <pt x="302" y="781" on="0"/>
      </contour>
    </TTGlyph>
    <TTGlyph name="H" xMin="41" yMin="0" xMax="778" yMax="720">
      <contour>
        <pt x="694" y="79" on="1"/>
        <pt x="778" y="58" on="1"/>
        <pt x="778" y="0" on="1"/>
        <pt x="480" y="0" on="1"/>
        <pt x="480" y="58" on="1"/>
        <pt x="564" y="79" on="1"/>
        <pt x="564" y="333" on="1"/>
        <pt x="255" y="333" on="1"/>
        <pt x="255" y="79" on="1"/>
        <pt x="339" y="58" on="1"/>
        <pt x="339" y="0" on="1"/>
        <pt x="41" y="0" on="1"/>
        <pt x="41" y="58" on="1"/>
        <pt x="125" y="79" on="1"/>
        <pt x="125" y="641" on="1"/>
        <pt x="41" y="662" on="1"/>
        <pt x="41" y="720" on="1"/>
        <pt x="339" y="720" on="1"/>
        <pt x="339" y="662" on="1"/>
        <pt x="255" y="641" on="1"/>
        <pt x="255" y="406" on="1"/>
        <pt x="564" y="406" on="1"/>
        <pt x="564" y="641" on="1"/>
        <pt x="480" y="662" on="1"/>
        <pt x="480" y="720" on="1"/>
        <pt x="778" y="720" on="1"/>
        <pt x="778" y="662" on="1"/>
        <pt x="694" y="641" on="1"/>
      </contour>
    </TTGlyph>
    <TTGlyph name="Hbar" xMin="46" yMin="0" xMax="783" yMax="720">
      <contour>
        <pt x="699" y="568" on="1"/>
        <pt x="768" y="568" on="1"/>
        <pt x="768" y="488" on="1"/>
        <pt x="699" y="488" on="1"/>
        <pt x="699" y="79" on="1"/>
        <pt x="783" y="58" on="1"/>
        <pt x="783" y="0" on="1"/>
        <pt x="485" y="0" on="1"/>
        <pt x="485" y="58" on="1"/>
        <pt x="569" y="79" on="1"/>
        <pt x="569" y="333" on="1"/>
        <pt x="260" y="333" on="1"/>
        <pt x="260" y="79" on="1"/>
        <pt x="344" y="58" on="1"/>
        <pt x="344" y="0" on="1"/>
        <pt x="46" y="0" on="1"/>
        <pt x="46" y="58" on="1"/>
        <pt x="130" y="79" on="1"/>
        <pt x="130" y="488" on="1"/>
        <pt x="62" y="488" on="1"/>
        <pt x="62" y="568" on="1"/>
        <pt x="130" y="568" on="1"/>
        <pt x="130" y="641" on="1"/>
        <pt x="46" y="662" on="1"/>
        <pt x="46" y="720" on="1"/>
        <pt x="344" y="720" on="1"/>
        <pt x="344" y="662" on="1"/>
        <pt x="260" y="641" on="1"/>
        <pt x="260" y="568" on="1"/>
        <pt x="569" y="568" on="1"/>
        <pt x="569" y="641" on="1"/>
        <pt x="485" y="662" on="1"/>
        <pt x="485" y="720" on="1"/>
        <pt x="783" y="720" on="1"/>
        <pt x="783" y="662" on="1"/>
        <pt x="699" y="641" on="1"/>
      </contour>
      <contour>
        <pt x="569" y="406" on="1"/>
        <pt x="569" y="488" on="1"/>
        <pt x="260" y="488" on="1"/>
        <pt x="260" y="406" on="1"/>
      </contour>
    </TTGlyph>
    <TTGlyph name="Hcircumflex" xMin="41" yMin="0" xMax="778" yMax="890">
      <contour>
        <pt x="694" y="79" on="1"/>
        <pt x="778" y="58" on="1"/>
        <pt x="778" y="0" on="1"/>
        <pt x="480" y="0" on="1"/>
        <pt x="480" y="58" on="1"/>
        <pt x="564" y="79" on="1"/>
        <pt x="564" y="333" on="1"/>
        <pt x="255" y="333" on="1"/>
        <pt x="255" y="79" on="1"/>
        <pt x="339" y="58" on="1"/>
        <pt x="339" y="0" on="1"/>
        <pt x="41" y="0" on="1"/>
        <pt x="41" y="58" on="1"/>
        <pt x="125" y="79" on="1"/>
        <pt x="125" y="641" on="1"/>
        <pt x="41" y="662" on="1"/>
        <pt x="41" y="720" on="1"/>
        <pt x="339" y="720" on="1"/>
        <pt x="339" y="662" on="1"/>
        <pt x="255" y="641" on="1"/>
        <pt x="255" y="406" on="1"/>
        <pt x="564" y="406" on="1"/>
        <pt x="564" y="641" on="1"/>
        <pt x="480" y="662" on="1"/>
        <pt x="480" y="720" on="1"/>
        <pt x="778" y="720" on="1"/>
        <pt x="778" y="662" on="1"/>
        <pt x="694" y="641" on="1"/>
      </contour>
      <contour>
        <pt x="594" y="769" on="1"/>
        <pt x="511" y="769" on="1"/>
        <pt x="413" y="830" on="1"/>
        <pt x="315" y="769" on="1"/>
        <pt x="232" y="769" on="1"/>
        <pt x="350" y="890" on="1"/>
        <pt x="475" y="890" on="1"/>
      </contour>
    </TTGlyph>
    <TTGlyph name="Hdotbelow" xMin="41" yMin="0" xMax="778" yMax="720">
      <contour>
        <pt x="694" y="79" on="1"/>
        <pt x="778" y="58" on="1"/>
        <pt x="778" y="0" on="1"/>
        <pt x="480" y="0" on="1"/>
        <pt x="480" y="58" on="1"/>
        <pt x="564" y="79" on="1"/>
        <pt x="564" y="333" on="1"/>
        <pt x="255" y="333" on="1"/>
        <pt x="255" y="79" on="1"/>
        <pt x="339" y="58" on="1"/>
        <pt x="339" y="0" on="1"/>
        <pt x="41" y="0" on="1"/>
        <pt x="41" y="58" on="1"/>
        <pt x="125" y="79" on="1"/>
        <pt x="125" y="641" on="1"/>
        <pt x="41" y="662" on="1"/>
        <pt x="41" y="720" on="1"/>
        <pt x="339" y="720" on="1"/>
        <pt x="339" y="662" on="1"/>
        <pt x="255" y="641" on="1"/>
        <pt x="255" y="406" on="1"/>
        <pt x="564" y="406" on="1"/>
        <pt x="564" y="641" on="1"/>
        <pt x="480" y="662" on="1"/>
        <pt x="480" y="720" on="1"/>
        <pt x="778" y="720" on="1"/>
        <pt x="778" y="662" on="1"/>
        <pt x="694" y="641" on="1"/>
      </contour>
    </TTGlyph>
    <TTGlyph name="I" xMin="36" yMin="0" xMax="354" yMax="720">
      <contour>
        <pt x="260" y="79" on="1"/>
        <pt x="354" y="58" on="1"/>
        <pt x="354" y="0" on="1"/>
        <pt x="36" y="0" on="1"/>
        <pt x="36" y="58" on="1"/>
        <pt x="130" y="79" on="1"/>
        <pt x="130" y="641" on="1"/>
        <pt x="36" y="662" on="1"/>
        <pt x="36" y="720" on="1"/>
        <pt x="354" y="720" on="1"/>
        <pt x="354" y="662" on="1"/>
        <pt x="260" y="641" on="1"/>
      </contour>
    </TTGlyph>
    <TTGlyph name="IJ" xMin="36" yMin="-11" xMax="954" yMax="720">
      <contour>
        <pt x="260" y="79" on="1"/>
        <pt x="354" y="58" on="1"/>
        <pt x="354" y="0" on="1"/>
        <pt x="36" y="0" on="1"/>
        <pt x="36" y="58" on="1"/>
        <pt x="130" y="79" on="1"/>
        <pt x="130" y="641" on="1"/>
        <pt x="36" y="662" on="1"/>
        <pt x="36" y="720" on="1"/>
        <pt x="354" y="720" on="1"/>
        <pt x="354" y="662" on="1"/>
        <pt x="260" y="641" on="1"/>
      </contour>
      <contour>
        <pt x="745" y="641" on="1"/>
        <pt x="646" y="662" on="1"/>
        <pt x="646" y="720" on="1"/>
        <pt x="954" y="720" on="1"/>
        <pt x="954" y="662" on="1"/>
        <pt x="875" y="641" on="1"/>
        <pt x="875" y="218" on="1"/>
        <pt x="875" y="166" on="0"/>
        <pt x="841" y="82" on="0"/>
        <pt x="779" y="22" on="0"/>
        <pt x="692" y="-11" on="0"/>
        <pt x="639" y="-11" on="1"/>
        <pt x="585" y="-11" on="0"/>
        <pt x="497" y="15" on="0"/>
        <pt x="433" y="63" on="0"/>
        <pt x="398" y="129" on="0"/>
        <pt x="398" y="170" on="1"/>
        <pt x="398" y="216" on="0"/>
        <pt x="438" y="274" on="0"/>
        <pt x="478" y="274" on="1"/>
        <pt x="513" y="274" on="0"/>
        <pt x="557" y="234" on="0"/>
        <pt x="557" y="201" on="1"/>
        <pt x="557" y="178" on="0"/>
        <pt x="531" y="131" on="0"/>
        <pt x="514" y="123" on="1"/>
        <pt x="519" y="97" on="0"/>
        <pt x="576" y="62" on="0"/>
        <pt x="630" y="62" on="1"/>
        <pt x="685" y="62" on="0"/>
        <pt x="745" y="134" on="0"/>
        <pt x="745" y="207" on="1"/>
      </contour>
    </TTGlyph>
    <TTGlyph name="Iacute" xMin="36" yMin="0" xMax="358" yMax="900">
      <contour>
        <pt x="260" y="79" on="1"/>
        <pt x="354" y="58" on="1"/>
        <pt x="354" y="0" on="1"/>
        <pt x="36" y="0" on="1"/>
        <pt x="36" y="58" on="1"/>
        <pt x="130" y="79" on="1"/>
        <pt x="130" y="641" on="1"/>
        <pt x="36" y="662" on="1"/>
        <pt x="36" y="720" on="1"/>
        <pt x="354" y="720" on="1"/>
        <pt x="354" y="662" on="1"/>
        <pt x="260" y="641" on="1"/>
      </contour>
      <contour>
        <pt x="213" y="836" on="1"/>
        <pt x="229" y="857" on="0"/>
        <pt x="254" y="882" on="0"/>
        <pt x="275" y="895" on="0"/>
        <pt x="297" y="900" on="0"/>
        <pt x="311" y="900" on="1"/>
        <pt x="335" y="900" on="0"/>
        <pt x="358" y="876" on="0"/>
        <pt x="358" y="861" on="1"/>
        <pt x="358" y="851" on="0"/>
        <pt x="352" y="836" on="0"/>
        <pt x="335" y="821" on="0"/>
        <pt x="306" y="802" on="0"/>
        <pt x="283" y="788" on="1"/>
        <pt x="236" y="760" on="1"/>
        <pt x="153" y="760" on="1"/>
      </contour>
    </TTGlyph>
    <TTGlyph name="Ibreve" xMin="24" yMin="0" xMax="354" yMax="899">
      <contour>
        <pt x="348" y="899" on="1"/>
        <pt x="346" y="821" on="0"/>
        <pt x="269" y="729" on="0"/>
        <pt x="208" y="720" on="1"/>
        <pt x="354" y="720" on="1"/>
        <pt x="354" y="662" on="1"/>
        <pt x="260" y="641" on="1"/>
        <pt x="260" y="79" on="1"/>
        <pt x="354" y="58" on="1"/>
        <pt x="354" y="0" on="1"/>
        <pt x="36" y="0" on="1"/>
        <pt x="36" y="58" on="1"/>
        <pt x="130" y="79" on="1"/>
        <pt x="130" y="641" on="1"/>
        <pt x="36" y="662" on="1"/>
        <pt x="36" y="720" on="1"/>
        <pt x="151" y="720" on="1"/>
        <pt x="89" y="730" on="0"/>
        <pt x="24" y="826" on="0"/>
        <pt x="24" y="899" on="1"/>
        <pt x="87" y="899" on="1"/>
        <pt x="89" y="855" on="0"/>
        <pt x="141" y="817" on="0"/>
        <pt x="180" y="817" on="1"/>
        <pt x="230" y="817" on="0"/>
        <pt x="285" y="855" on="0"/>
        <pt x="285" y="899" on="1"/>
      </contour>
    </TTGlyph>
    <TTGlyph name="Icircumflex" xMin="14" yMin="0" xMax="376" yMax="890">
      <contour>
        <pt x="260" y="79" on="1"/>
        <pt x="354" y="58" on="1"/>
        <pt x="354" y="0" on="1"/>
        <pt x="36" y="0" on="1"/>
        <pt x="36" y="58" on="1"/>
        <pt x="130" y="79" on="1"/>
        <pt x="130" y="641" on="1"/>
        <pt x="36" y="662" on="1"/>
        <pt x="36" y="720" on="1"/>
        <pt x="354" y="720" on="1"/>
        <pt x="354" y="662" on="1"/>
        <pt x="260" y="641" on="1"/>
      </contour>
      <contour>
        <pt x="376" y="769" on="1"/>
        <pt x="293" y="769" on="1"/>
        <pt x="195" y="830" on="1"/>
        <pt x="97" y="769" on="1"/>
        <pt x="14" y="769" on="1"/>
        <pt x="132" y="890" on="1"/>
        <pt x="257" y="890" on="1"/>
      </contour>
    </TTGlyph>
    <TTGlyph name="Idieresis" xMin="36" yMin="0" xMax="354" yMax="720">
      <contour>
        <pt x="260" y="79" on="1"/>
        <pt x="354" y="58" on="1"/>
        <pt x="354" y="0" on="1"/>
        <pt x="36" y="0" on="1"/>
        <pt x="36" y="58" on="1"/>
        <pt x="130" y="79" on="1"/>
        <pt x="130" y="641" on="1"/>
        <pt x="36" y="662" on="1"/>
        <pt x="36" y="720" on="1"/>
        <pt x="354" y="720" on="1"/>
        <pt x="354" y="662" on="1"/>
        <pt x="260" y="641" on="1"/>
      </contour>
    </TTGlyph>
    <TTGlyph name="Idotaccent" xMin="36" yMin="0" xMax="354" yMax="895">
      <contour>
        <pt x="260" y="79" on="1"/>
        <pt x="354" y="58" on="1"/>
        <pt x="354" y="0" on="1"/>
        <pt x="36" y="0" on="1"/>
        <pt x="36" y="58" on="1"/>
        <pt x="130" y="79" on="1"/>
        <pt x="130" y="641" on="1"/>
        <pt x="36" y="662" on="1"/>
        <pt x="36" y="720" on="1"/>
        <pt x="354" y="720" on="1"/>
        <pt x="354" y="662" on="1"/>
        <pt x="260" y="641" on="1"/>
      </contour>
      <contour>
        <pt x="118" y="817" on="1"/>
        <pt x="118" y="853" on="0"/>
        <pt x="160" y="895" on="0"/>
        <pt x="195" y="895" on="1"/>
        <pt x="230" y="895" on="0"/>
        <pt x="273" y="852" on="0"/>
        <pt x="273" y="817" on="1"/>
        <pt x="273" y="782" on="0"/>
        <pt x="231" y="740" on="0"/>
        <pt x="195" y="740" on="1"/>
        <pt x="159" y="740" on="0"/>
        <pt x="118" y="781" on="0"/>
      </contour>
    </TTGlyph>
    <TTGlyph name="Idotbelow" xMin="36" yMin="0" xMax="354" yMax="720">
      <contour>
        <pt x="260" y="79" on="1"/>
        <pt x="354" y="58" on="1"/>
        <pt x="354" y="0" on="1"/>
        <pt x="36" y="0" on="1"/>
        <pt x="36" y="58" on="1"/>
        <pt x="130" y="79" on="1"/>
        <pt x="130" y="641" on="1"/>
        <pt x="36" y="662" on="1"/>
        <pt x="36" y="720" on="1"/>
        <pt x="354" y="720" on="1"/>
        <pt x="354" y="662" on="1"/>
        <pt x="260" y="641" on="1"/>
      </contour>
    </TTGlyph>
    <TTGlyph name="Igrave" xMin="36" yMin="0" xMax="354" yMax="900">
      <contour>
        <pt x="260" y="79" on="1"/>
        <pt x="354" y="58" on="1"/>
        <pt x="354" y="0" on="1"/>
        <pt x="36" y="0" on="1"/>
        <pt x="36" y="58" on="1"/>
        <pt x="130" y="79" on="1"/>
        <pt x="130" y="641" on="1"/>
        <pt x="36" y="662" on="1"/>
        <pt x="36" y="720" on="1"/>
        <pt x="354" y="720" on="1"/>
        <pt x="354" y="662" on="1"/>
        <pt x="260" y="641" on="1"/>
      </contour>
      <contour>
        <pt x="280" y="760" on="1"/>
        <pt x="197" y="760" on="1"/>
        <pt x="150" y="788" on="1"/>
        <pt x="127" y="802" on="0"/>
        <pt x="97" y="821" on="0"/>
        <pt x="81" y="836" on="0"/>
        <pt x="75" y="851" on="0"/>
        <pt x="75" y="861" on="1"/>
        <pt x="75" y="876" on="0"/>
        <pt x="98" y="900" on="0"/>
        <pt x="122" y="900" on="1"/>
        <pt x="136" y="900" on="0"/>
        <pt x="158" y="895" on="0"/>
        <pt x="179" y="882" on="0"/>
        <pt x="203" y="857" on="0"/>
        <pt x="220" y="836" on="1"/>
      </contour>
    </TTGlyph>
    <TTGlyph name="Imacron" xMin="36" yMin="0" xMax="354" yMax="720">
      <contour>
        <pt x="260" y="79" on="1"/>
        <pt x="354" y="58" on="1"/>
        <pt x="354" y="0" on="1"/>
        <pt x="36" y="0" on="1"/>
        <pt x="36" y="58" on="1"/>
        <pt x="130" y="79" on="1"/>
        <pt x="130" y="641" on="1"/>
        <pt x="36" y="662" on="1"/>
        <pt x="36" y="720" on="1"/>
        <pt x="354" y="720" on="1"/>
        <pt x="354" y="662" on="1"/>
        <pt x="260" y="641" on="1"/>
      </contour>
    </TTGlyph>
    <TTGlyph name="Iogonek" xMin="36" yMin="-210" xMax="354" yMax="720">
      <contour>
        <pt x="174" y="-210" on="1"/>
        <pt x="118" y="-210" on="0"/>
        <pt x="63" y="-163" on="0"/>
        <pt x="63" y="-125" on="1"/>
        <pt x="63" y="-57" on="0"/>
        <pt x="153" y="0" on="1"/>
        <pt x="36" y="0" on="1"/>
        <pt x="36" y="58" on="1"/>
        <pt x="130" y="79" on="1"/>
        <pt x="130" y="641" on="1"/>
        <pt x="36" y="662" on="1"/>
        <pt x="36" y="720" on="1"/>
        <pt x="354" y="720" on="1"/>
        <pt x="354" y="662" on="1"/>
        <pt x="260" y="641" on="1"/>
        <pt x="260" y="79" on="1"/>
        <pt x="354" y="58" on="1"/>
        <pt x="354" y="0" on="1"/>
        <pt x="228" y="0" on="1"/>
        <pt x="206" y="-18" on="0"/>
        <pt x="165" y="-73" on="0"/>
        <pt x="165" y="-98" on="1"/>
        <pt x="165" y="-116" on="0"/>
        <pt x="192" y="-137" on="0"/>
        <pt x="215" y="-137" on="1"/>
        <pt x="231" y="-137" on="0"/>
        <pt x="262" y="-129" on="0"/>
        <pt x="274" y="-119" on="1"/>
        <pt x="298" y="-154" on="1"/>
        <pt x="281" y="-180" on="0"/>
        <pt x="225" y="-210" on="0"/>
      </contour>
    </TTGlyph>
    <TTGlyph name="Itilde" xMin="-4" yMin="0" xMax="394" yMax="900">
      <contour>
        <pt x="260" y="79" on="1"/>
        <pt x="354" y="58" on="1"/>
        <pt x="354" y="0" on="1"/>
        <pt x="36" y="0" on="1"/>
        <pt x="36" y="58" on="1"/>
        <pt x="130" y="79" on="1"/>
        <pt x="130" y="641" on="1"/>
        <pt x="36" y="662" on="1"/>
        <pt x="36" y="720" on="1"/>
        <pt x="354" y="720" on="1"/>
        <pt x="354" y="662" on="1"/>
        <pt x="260" y="641" on="1"/>
      </contour>
      <contour>
        <pt x="-4" y="755" on="1"/>
        <pt x="-2" y="828" on="0"/>
        <pt x="68" y="900" on="0"/>
        <pt x="123" y="900" on="1"/>
        <pt x="148" y="900" on="0"/>
        <pt x="186" y="883" on="0"/>
        <pt x="218" y="862" on="0"/>
        <pt x="249" y="845" on="0"/>
        <pt x="269" y="845" on="1"/>
        <pt x="299" y="845" on="0"/>
        <pt x="329" y="871" on="0"/>
        <pt x="334" y="895" on="1"/>
        <pt x="394" y="895" on="1"/>
        <pt x="373" y="744" on="0"/>
        <pt x="267" y="744" on="1"/>
        <pt x="242" y="744" on="0"/>
        <pt x="205" y="761" on="0"/>
        <pt x="172" y="782" on="0"/>
        <pt x="140" y="800" on="0"/>
        <pt x="121" y="800" on="1"/>
        <pt x="91" y="800" on="0"/>
        <pt x="61" y="776" on="0"/>
        <pt x="56" y="755" on="1"/>
      </contour>
    </TTGlyph>
    <TTGlyph name="J" xMin="8" yMin="-11" xMax="564" yMax="720">
      <contour>
        <pt x="355" y="641" on="1"/>
        <pt x="256" y="662" on="1"/>
        <pt x="256" y="720" on="1"/>
        <pt x="564" y="720" on="1"/>
        <pt x="564" y="662" on="1"/>
        <pt x="485" y="641" on="1"/>
        <pt x="485" y="218" on="1"/>
        <pt x="485" y="166" on="0"/>
        <pt x="451" y="82" on="0"/>
        <pt x="389" y="22" on="0"/>
        <pt x="302" y="-11" on="0"/>
        <pt x="249" y="-11" on="1"/>
        <pt x="195" y="-11" on="0"/>
        <pt x="107" y="15" on="0"/>
        <pt x="43" y="63" on="0"/>
        <pt x="8" y="129" on="0"/>
        <pt x="8" y="170" on="1"/>
        <pt x="8" y="216" on="0"/>
        <pt x="48" y="274" on="0"/>
        <pt x="88" y="274" on="1"/>
        <pt x="123" y="274" on="0"/>
        <pt x="167" y="234" on="0"/>
        <pt x="167" y="201" on="1"/>
        <pt x="167" y="178" on="0"/>
        <pt x="141" y="131" on="0"/>
        <pt x="124" y="123" on="1"/>
        <pt x="129" y="97" on="0"/>
        <pt x="186" y="62" on="0"/>
        <pt x="240" y="62" on="1"/>
        <pt x="295" y="62" on="0"/>
        <pt x="355" y="134" on="0"/>
        <pt x="355" y="207" on="1"/>
      </contour>
    </TTGlyph>
    <TTGlyph name="Jcircumflex" xMin="8" yMin="-11" xMax="603" yMax="890">
      <contour>
        <pt x="355" y="641" on="1"/>
        <pt x="256" y="662" on="1"/>
        <pt x="256" y="720" on="1"/>
        <pt x="564" y="720" on="1"/>
        <pt x="564" y="662" on="1"/>
        <pt x="485" y="641" on="1"/>
        <pt x="485" y="218" on="1"/>
        <pt x="485" y="166" on="0"/>
        <pt x="451" y="82" on="0"/>
        <pt x="389" y="22" on="0"/>
        <pt x="302" y="-11" on="0"/>
        <pt x="249" y="-11" on="1"/>
        <pt x="195" y="-11" on="0"/>
        <pt x="107" y="15" on="0"/>
        <pt x="43" y="63" on="0"/>
        <pt x="8" y="129" on="0"/>
        <pt x="8" y="170" on="1"/>
        <pt x="8" y="216" on="0"/>
        <pt x="48" y="274" on="0"/>
        <pt x="88" y="274" on="1"/>
        <pt x="123" y="274" on="0"/>
        <pt x="167" y="234" on="0"/>
        <pt x="167" y="201" on="1"/>
        <pt x="167" y="178" on="0"/>
        <pt x="141" y="131" on="0"/>
        <pt x="124" y="123" on="1"/>
        <pt x="129" y="97" on="0"/>
        <pt x="186" y="62" on="0"/>
        <pt x="240" y="62" on="1"/>
        <pt x="295" y="62" on="0"/>
        <pt x="355" y="134" on="0"/>
        <pt x="355" y="207" on="1"/>
      </contour>
      <contour>
        <pt x="603" y="769" on="1"/>
        <pt x="520" y="769" on="1"/>
        <pt x="422" y="830" on="1"/>
        <pt x="324" y="769" on="1"/>
        <pt x="241" y="769" on="1"/>
        <pt x="359" y="890" on="1"/>
        <pt x="484" y="890" on="1"/>
      </contour>
    </TTGlyph>
    <TTGlyph name="K" xMin="36" yMin="0" xMax="761" yMax="720">
      <contour>
        <pt x="260" y="397" on="1"/>
        <pt x="495" y="641" on="1"/>
        <pt x="404" y="662" on="1"/>
        <pt x="404" y="720" on="1"/>
        <pt x="697" y="720" on="1"/>
        <pt x="697" y="662" on="1"/>
        <pt x="609" y="641" on="1"/>
        <pt x="390" y="424" on="1"/>
        <pt x="677" y="77" on="1"/>
        <pt x="761" y="58" on="1"/>
        <pt x="761" y="0" on="1"/>
        <pt x="452" y="0" on="1"/>
        <pt x="452" y="58" on="1"/>
        <pt x="518" y="78" on="1"/>
        <pt x="306" y="340" on="1"/>
        <pt x="260" y="296" on="1"/>
        <pt x="260" y="79" on="1"/>
        <pt x="344" y="58" on="1"/>
        <pt x="344" y="0" on="1"/>
        <pt x="36" y="0" on="1"/>
        <pt x="36" y="58" on="1"/>
        <pt x="130" y="79" on="1"/>
        <pt x="130" y="641" on="1"/>
        <pt x="36" y="662" on="1"/>
        <pt x="36" y="720" on="1"/>
        <pt x="344" y="720" on="1"/>
        <pt x="344" y="662" on="1"/>
        <pt x="260" y="641" on="1"/>
      </contour>
    </TTGlyph>
    <TTGlyph name="Kcommaaccent" xMin="36" yMin="-240" xMax="761" yMax="720">
      <contour>
        <pt x="260" y="397" on="1"/>
        <pt x="495" y="641" on="1"/>
        <pt x="404" y="662" on="1"/>
        <pt x="404" y="720" on="1"/>
        <pt x="697" y="720" on="1"/>
        <pt x="697" y="662" on="1"/>
        <pt x="609" y="641" on="1"/>
        <pt x="390" y="424" on="1"/>
        <pt x="677" y="77" on="1"/>
        <pt x="761" y="58" on="1"/>
        <pt x="761" y="0" on="1"/>
        <pt x="452" y="0" on="1"/>
        <pt x="452" y="58" on="1"/>
        <pt x="518" y="78" on="1"/>
        <pt x="306" y="340" on="1"/>
        <pt x="260" y="296" on="1"/>
        <pt x="260" y="79" on="1"/>
        <pt x="344" y="58" on="1"/>
        <pt x="344" y="0" on="1"/>
        <pt x="36" y="0" on="1"/>
        <pt x="36" y="58" on="1"/>
        <pt x="130" y="79" on="1"/>
        <pt x="130" y="641" on="1"/>
        <pt x="36" y="662" on="1"/>
        <pt x="36" y="720" on="1"/>
        <pt x="344" y="720" on="1"/>
        <pt x="344" y="662" on="1"/>
        <pt x="260" y="641" on="1"/>
      </contour>
      <contour>
        <pt x="403" y="-44" on="1"/>
        <pt x="436" y="-44" on="0"/>
        <pt x="475" y="-79" on="0"/>
        <pt x="475" y="-109" on="1"/>
        <pt x="475" y="-148" on="0"/>
        <pt x="429" y="-212" on="0"/>
        <pt x="375" y="-240" on="1"/>
        <pt x="345" y="-208" on="1"/>
        <pt x="394" y="-169" on="0"/>
        <pt x="397" y="-141" on="1"/>
        <pt x="394" y="-139" on="1"/>
        <pt x="392" y="-141" on="0"/>
        <pt x="382" y="-144" on="0"/>
        <pt x="377" y="-144" on="1"/>
        <pt x="358" y="-144" on="0"/>
        <pt x="338" y="-116" on="0"/>
        <pt x="338" y="-99" on="1"/>
        <pt x="338" y="-73" on="0"/>
        <pt x="370" y="-44" on="0"/>
      </contour>
    </TTGlyph>
    <TTGlyph name="L" xMin="36" yMin="0" xMax="621" yMax="720">
      <contour>
        <pt x="260" y="75" on="1"/>
        <pt x="502" y="75" on="1"/>
        <pt x="536" y="248" on="1"/>
        <pt x="621" y="248" on="1"/>
        <pt x="621" y="0" on="1"/>
        <pt x="36" y="0" on="1"/>
        <pt x="36" y="58" on="1"/>
        <pt x="130" y="79" on="1"/>
        <pt x="130" y="641" on="1"/>
        <pt x="36" y="662" on="1"/>
        <pt x="36" y="720" on="1"/>
        <pt x="364" y="720" on="1"/>
        <pt x="364" y="662" on="1"/>
        <pt x="260" y="641" on="1"/>
      </contour>
    </TTGlyph>
    <TTGlyph name="Lacute" xMin="36" yMin="0" xMax="621" yMax="900">
      <contour>
        <pt x="260" y="75" on="1"/>
        <pt x="502" y="75" on="1"/>
        <pt x="536" y="248" on="1"/>
        <pt x="621" y="248" on="1"/>
        <pt x="621" y="0" on="1"/>
        <pt x="36" y="0" on="1"/>
        <pt x="36" y="58" on="1"/>
        <pt x="130" y="79" on="1"/>
        <pt x="130" y="641" on="1"/>
        <pt x="36" y="662" on="1"/>
        <pt x="36" y="720" on="1"/>
        <pt x="364" y="720" on="1"/>
        <pt x="364" y="662" on="1"/>
        <pt x="260" y="641" on="1"/>
      </contour>
      <contour>
        <pt x="212" y="836" on="1"/>
        <pt x="228" y="857" on="0"/>
        <pt x="253" y="882" on="0"/>
        <pt x="274" y="895" on="0"/>
        <pt x="296" y="900" on="0"/>
        <pt x="310" y="900" on="1"/>
        <pt x="334" y="900" on="0"/>
        <pt x="357" y="876" on="0"/>
        <pt x="357" y="861" on="1"/>
        <pt x="357" y="851" on="0"/>
        <pt x="351" y="836" on="0"/>
        <pt x="334" y="821" on="0"/>
        <pt x="305" y="802" on="0"/>
        <pt x="282" y="788" on="1"/>
        <pt x="235" y="760" on="1"/>
        <pt x="152" y="760" on="1"/>
      </contour>
    </TTGlyph>
    <TTGlyph name="Lcaron" xMin="13" yMin="0" xMax="621" yMax="890">
      <contour>
        <pt x="260" y="75" on="1"/>
        <pt x="502" y="75" on="1"/>
        <pt x="536" y="248" on="1"/>
        <pt x="621" y="248" on="1"/>
        <pt x="621" y="0" on="1"/>
        <pt x="36" y="0" on="1"/>
        <pt x="36" y="58" on="1"/>
        <pt x="130" y="79" on="1"/>
        <pt x="130" y="641" on="1"/>
        <pt x="36" y="662" on="1"/>
        <pt x="36" y="720" on="1"/>
        <pt x="364" y="720" on="1"/>
        <pt x="364" y="662" on="1"/>
        <pt x="260" y="641" on="1"/>
      </contour>
      <contour>
        <pt x="256" y="769" on="1"/>
        <pt x="131" y="769" on="1"/>
        <pt x="13" y="890" on="1"/>
        <pt x="96" y="890" on="1"/>
        <pt x="194" y="829" on="1"/>
        <pt x="292" y="890" on="1"/>
        <pt x="375" y="890" on="1"/>
      </contour>
    </TTGlyph>
    <TTGlyph name="Lcommaaccent" xMin="36" yMin="-240" xMax="621" yMax="720">
      <contour>
        <pt x="260" y="75" on="1"/>
        <pt x="502" y="75" on="1"/>
        <pt x="536" y="248" on="1"/>
        <pt x="621" y="248" on="1"/>
        <pt x="621" y="0" on="1"/>
        <pt x="36" y="0" on="1"/>
        <pt x="36" y="58" on="1"/>
        <pt x="130" y="79" on="1"/>
        <pt x="130" y="641" on="1"/>
        <pt x="36" y="662" on="1"/>
        <pt x="36" y="720" on="1"/>
        <pt x="364" y="720" on="1"/>
        <pt x="364" y="662" on="1"/>
        <pt x="260" y="641" on="1"/>
      </contour>
      <contour>
        <pt x="352" y="-44" on="1"/>
        <pt x="385" y="-44" on="0"/>
        <pt x="424" y="-79" on="0"/>
        <pt x="424" y="-109" on="1"/>
        <pt x="424" y="-148" on="0"/>
        <pt x="378" y="-212" on="0"/>
        <pt x="324" y="-240" on="1"/>
        <pt x="294" y="-208" on="1"/>
        <pt x="343" y="-169" on="0"/>
        <pt x="346" y="-141" on="1"/>
        <pt x="343" y="-139" on="1"/>
        <pt x="341" y="-141" on="0"/>
        <pt x="331" y="-144" on="0"/>
        <pt x="326" y="-144" on="1"/>
        <pt x="307" y="-144" on="0"/>
        <pt x="287" y="-116" on="0"/>
        <pt x="287" y="-99" on="1"/>
        <pt x="287" y="-73" on="0"/>
        <pt x="319" y="-44" on="0"/>
      </contour>
    </TTGlyph>
    <TTGlyph name="Ldot" xMin="36" yMin="0" xMax="621" yMax="720">
      <contour>
        <pt x="260" y="75" on="1"/>
        <pt x="502" y="75" on="1"/>
        <pt x="536" y="248" on="1"/>
        <pt x="621" y="248" on="1"/>
        <pt x="621" y="0" on="1"/>
        <pt x="36" y="0" on="1"/>
        <pt x="36" y="58" on="1"/>
        <pt x="130" y="79" on="1"/>
        <pt x="130" y="641" on="1"/>
        <pt x="36" y="662" on="1"/>
        <pt x="36" y="720" on="1"/>
        <pt x="364" y="720" on="1"/>
        <pt x="364" y="662" on="1"/>
        <pt x="260" y="641" on="1"/>
      </contour>
      <contour>
        <pt x="324" y="360" on="1"/>
        <pt x="324" y="397" on="0"/>
        <pt x="366" y="440" on="0"/>
        <pt x="402" y="440" on="1"/>
        <pt x="438" y="440" on="0"/>
        <pt x="481" y="396" on="0"/>
        <pt x="481" y="360" on="1"/>
        <pt x="481" y="324" on="0"/>
        <pt x="438" y="282" on="0"/>
        <pt x="402" y="282" on="1"/>
        <pt x="364" y="282" on="0"/>
        <pt x="324" y="322" on="0"/>
      </contour>
    </TTGlyph>
    <TTGlyph name="Lslash" xMin="37" yMin="0" xMax="622" yMax="720">
      <contour>
        <pt x="261" y="449" on="1"/>
        <pt x="354" y="504" on="1"/>
        <pt x="354" y="420" on="1"/>
        <pt x="261" y="365" on="1"/>
        <pt x="261" y="75" on="1"/>
        <pt x="503" y="75" on="1"/>
        <pt x="537" y="248" on="1"/>
        <pt x="622" y="248" on="1"/>
        <pt x="622" y="0" on="1"/>
        <pt x="37" y="0" on="1"/>
        <pt x="37" y="58" on="1"/>
        <pt x="131" y="79" on="1"/>
        <pt x="131" y="289" on="1"/>
        <pt x="66" y="251" on="1"/>
        <pt x="66" y="334" on="1"/>
        <pt x="131" y="372" on="1"/>
        <pt x="131" y="641" on="1"/>
        <pt x="37" y="662" on="1"/>
        <pt x="37" y="720" on="1"/>
        <pt x="365" y="720" on="1"/>
        <pt x="365" y="662" on="1"/>
        <pt x="261" y="641" on="1"/>
      </contour>
    </TTGlyph>
    <TTGlyph name="M" xMin="41" yMin="0" xMax="936" yMax="720">
      <contour>
        <pt x="672" y="720" on="1"/>
        <pt x="936" y="720" on="1"/>
        <pt x="936" y="662" on="1"/>
        <pt x="852" y="641" on="1"/>
        <pt x="852" y="79" on="1"/>
        <pt x="936" y="58" on="1"/>
        <pt x="936" y="0" on="1"/>
        <pt x="649" y="0" on="1"/>
        <pt x="649" y="58" on="1"/>
        <pt x="722" y="79" on="1"/>
        <pt x="722" y="640" on="1"/>
        <pt x="540" y="0" on="1"/>
        <pt x="398" y="0" on="1"/>
        <pt x="220" y="640" on="1"/>
        <pt x="220" y="79" on="1"/>
        <pt x="293" y="58" on="1"/>
        <pt x="293" y="0" on="1"/>
        <pt x="41" y="0" on="1"/>
        <pt x="41" y="58" on="1"/>
        <pt x="125" y="79" on="1"/>
        <pt x="125" y="641" on="1"/>
        <pt x="41" y="662" on="1"/>
        <pt x="41" y="720" on="1"/>
        <pt x="309" y="720" on="1"/>
        <pt x="482" y="106" on="1"/>
        <pt x="486" y="106" on="1"/>
      </contour>
    </TTGlyph>
    <TTGlyph name="N" xMin="41" yMin="0" xMax="785" yMax="720">
      <contour>
        <pt x="125" y="641" on="1"/>
        <pt x="41" y="662" on="1"/>
        <pt x="41" y="720" on="1"/>
        <pt x="272" y="720" on="1"/>
        <pt x="606" y="192" on="1"/>
        <pt x="606" y="641" on="1"/>
        <pt x="522" y="662" on="1"/>
        <pt x="522" y="720" on="1"/>
        <pt x="785" y="720" on="1"/>
        <pt x="785" y="662" on="1"/>
        <pt x="701" y="641" on="1"/>
        <pt x="701" y="0" on="1"/>
        <pt x="590" y="0" on="1"/>
        <pt x="220" y="574" on="1"/>
        <pt x="220" y="79" on="1"/>
        <pt x="304" y="58" on="1"/>
        <pt x="304" y="0" on="1"/>
        <pt x="41" y="0" on="1"/>
        <pt x="41" y="58" on="1"/>
        <pt x="125" y="79" on="1"/>
      </contour>
    </TTGlyph>
    <TTGlyph name="Nacute" xMin="41" yMin="0" xMax="785" yMax="900">
      <contour>
        <pt x="125" y="641" on="1"/>
        <pt x="41" y="662" on="1"/>
        <pt x="41" y="720" on="1"/>
        <pt x="272" y="720" on="1"/>
        <pt x="606" y="192" on="1"/>
        <pt x="606" y="641" on="1"/>
        <pt x="522" y="662" on="1"/>
        <pt x="522" y="720" on="1"/>
        <pt x="785" y="720" on="1"/>
        <pt x="785" y="662" on="1"/>
        <pt x="701" y="641" on="1"/>
        <pt x="701" y="0" on="1"/>
        <pt x="590" y="0" on="1"/>
        <pt x="220" y="574" on="1"/>
        <pt x="220" y="79" on="1"/>
        <pt x="304" y="58" on="1"/>
        <pt x="304" y="0" on="1"/>
        <pt x="41" y="0" on="1"/>
        <pt x="41" y="58" on="1"/>
        <pt x="125" y="79" on="1"/>
      </contour>
      <contour>
        <pt x="426" y="836" on="1"/>
        <pt x="442" y="857" on="0"/>
        <pt x="467" y="882" on="0"/>
        <pt x="488" y="895" on="0"/>
        <pt x="510" y="900" on="0"/>
        <pt x="524" y="900" on="1"/>
        <pt x="548" y="900" on="0"/>
        <pt x="571" y="876" on="0"/>
        <pt x="571" y="861" on="1"/>
        <pt x="571" y="851" on="0"/>
        <pt x="565" y="836" on="0"/>
        <pt x="548" y="821" on="0"/>
        <pt x="519" y="802" on="0"/>
        <pt x="496" y="788" on="1"/>
        <pt x="449" y="760" on="1"/>
        <pt x="366" y="760" on="1"/>
      </contour>
    </TTGlyph>
    <TTGlyph name="Ncaron" xMin="41" yMin="0" xMax="785" yMax="890">
      <contour>
        <pt x="125" y="641" on="1"/>
        <pt x="41" y="662" on="1"/>
        <pt x="41" y="720" on="1"/>
        <pt x="272" y="720" on="1"/>
        <pt x="606" y="192" on="1"/>
        <pt x="606" y="641" on="1"/>
        <pt x="522" y="662" on="1"/>
        <pt x="522" y="720" on="1"/>
        <pt x="785" y="720" on="1"/>
        <pt x="785" y="662" on="1"/>
        <pt x="701" y="641" on="1"/>
        <pt x="701" y="0" on="1"/>
        <pt x="590" y="0" on="1"/>
        <pt x="220" y="574" on="1"/>
        <pt x="220" y="79" on="1"/>
        <pt x="304" y="58" on="1"/>
        <pt x="304" y="0" on="1"/>
        <pt x="41" y="0" on="1"/>
        <pt x="41" y="58" on="1"/>
        <pt x="125" y="79" on="1"/>
      </contour>
      <contour>
        <pt x="470" y="769" on="1"/>
        <pt x="345" y="769" on="1"/>
        <pt x="227" y="890" on="1"/>
        <pt x="310" y="890" on="1"/>
        <pt x="408" y="829" on="1"/>
        <pt x="506" y="890" on="1"/>
        <pt x="589" y="890" on="1"/>
      </contour>
    </TTGlyph>
    <TTGlyph name="Ncommaaccent" xMin="41" yMin="-240" xMax="785" yMax="720">
      <contour>
        <pt x="125" y="641" on="1"/>
        <pt x="41" y="662" on="1"/>
        <pt x="41" y="720" on="1"/>
        <pt x="272" y="720" on="1"/>
        <pt x="606" y="192" on="1"/>
        <pt x="606" y="641" on="1"/>
        <pt x="522" y="662" on="1"/>
        <pt x="522" y="720" on="1"/>
        <pt x="785" y="720" on="1"/>
        <pt x="785" y="662" on="1"/>
        <pt x="701" y="641" on="1"/>
        <pt x="701" y="0" on="1"/>
        <pt x="590" y="0" on="1"/>
        <pt x="220" y="574" on="1"/>
        <pt x="220" y="79" on="1"/>
        <pt x="304" y="58" on="1"/>
        <pt x="304" y="0" on="1"/>
        <pt x="41" y="0" on="1"/>
        <pt x="41" y="58" on="1"/>
        <pt x="125" y="79" on="1"/>
      </contour>
      <contour>
        <pt x="418" y="-44" on="1"/>
        <pt x="451" y="-44" on="0"/>
        <pt x="490" y="-79" on="0"/>
        <pt x="490" y="-109" on="1"/>
        <pt x="490" y="-148" on="0"/>
        <pt x="444" y="-212" on="0"/>
        <pt x="390" y="-240" on="1"/>
        <pt x="360" y="-208" on="1"/>
        <pt x="409" y="-169" on="0"/>
        <pt x="412" y="-141" on="1"/>
        <pt x="409" y="-139" on="1"/>
        <pt x="407" y="-141" on="0"/>
        <pt x="397" y="-144" on="0"/>
        <pt x="392" y="-144" on="1"/>
        <pt x="373" y="-144" on="0"/>
        <pt x="353" y="-116" on="0"/>
        <pt x="353" y="-99" on="1"/>
        <pt x="353" y="-73" on="0"/>
        <pt x="385" y="-44" on="0"/>
      </contour>
    </TTGlyph>
    <TTGlyph name="Ndotaccent" xMin="41" yMin="0" xMax="785" yMax="895">
      <contour>
        <pt x="125" y="641" on="1"/>
        <pt x="41" y="662" on="1"/>
        <pt x="41" y="720" on="1"/>
        <pt x="272" y="720" on="1"/>
        <pt x="606" y="192" on="1"/>
        <pt x="606" y="641" on="1"/>
        <pt x="522" y="662" on="1"/>
        <pt x="522" y="720" on="1"/>
        <pt x="785" y="720" on="1"/>
        <pt x="785" y="662" on="1"/>
        <pt x="701" y="641" on="1"/>
        <pt x="701" y="0" on="1"/>
        <pt x="590" y="0" on="1"/>
        <pt x="220" y="574" on="1"/>
        <pt x="220" y="79" on="1"/>
        <pt x="304" y="58" on="1"/>
        <pt x="304" y="0" on="1"/>
        <pt x="41" y="0" on="1"/>
        <pt x="41" y="58" on="1"/>
        <pt x="125" y="79" on="1"/>
      </contour>
      <contour>
        <pt x="331" y="817" on="1"/>
        <pt x="331" y="853" on="0"/>
        <pt x="373" y="895" on="0"/>
        <pt x="408" y="895" on="1"/>
        <pt x="443" y="895" on="0"/>
        <pt x="486" y="852" on="0"/>
        <pt x="486" y="817" on="1"/>
        <pt x="486" y="782" on="0"/>
        <pt x="444" y="740" on="0"/>
        <pt x="408" y="740" on="1"/>
        <pt x="372" y="740" on="0"/>
        <pt x="331" y="781" on="0"/>
      </contour>
    </TTGlyph>
    <TTGlyph name="Ntilde" xMin="41" yMin="0" xMax="785" yMax="900">
      <contour>
        <pt x="125" y="641" on="1"/>
        <pt x="41" y="662" on="1"/>
        <pt x="41" y="720" on="1"/>
        <pt x="272" y="720" on="1"/>
        <pt x="606" y="192" on="1"/>
        <pt x="606" y="641" on="1"/>
        <pt x="522" y="662" on="1"/>
        <pt x="522" y="720" on="1"/>
        <pt x="785" y="720" on="1"/>
        <pt x="785" y="662" on="1"/>
        <pt x="701" y="641" on="1"/>
        <pt x="701" y="0" on="1"/>
        <pt x="590" y="0" on="1"/>
        <pt x="220" y="574" on="1"/>
        <pt x="220" y="79" on="1"/>
        <pt x="304" y="58" on="1"/>
        <pt x="304" y="0" on="1"/>
        <pt x="41" y="0" on="1"/>
        <pt x="41" y="58" on="1"/>
        <pt x="125" y="79" on="1"/>
      </contour>
      <contour>
        <pt x="209" y="755" on="1"/>
        <pt x="211" y="828" on="0"/>
        <pt x="281" y="900" on="0"/>
        <pt x="336" y="900" on="1"/>
        <pt x="361" y="900" on="0"/>
        <pt x="399" y="883" on="0"/>
        <pt x="431" y="862" on="0"/>
        <pt x="462" y="845" on="0"/>
        <pt x="482" y="845" on="1"/>
        <pt x="512" y="845" on="0"/>
        <pt x="542" y="871" on="0"/>
        <pt x="547" y="895" on="1"/>
        <pt x="607" y="895" on="1"/>
        <pt x="586" y="744" on="0"/>
        <pt x="480" y="744" on="1"/>
        <pt x="455" y="744" on="0"/>
        <pt x="418" y="761" on="0"/>
        <pt x="385" y="782" on="0"/>
        <pt x="353" y="800" on="0"/>
        <pt x="334" y="800" on="1"/>
        <pt x="304" y="800" on="0"/>
        <pt x="274" y="776" on="0"/>
        <pt x="269" y="755" on="1"/>
      </contour>
    </TTGlyph>
    <TTGlyph name="O" xMin="43" yMin="-10" xMax="731" yMax="730">
      <contour>
        <pt x="731" y="368" on="1"/>
        <pt x="731" y="284" on="0"/>
        <pt x="683" y="131" on="0"/>
        <pt x="631" y="77" on="1"/>
        <pt x="588" y="32" on="0"/>
        <pt x="469" y="-10" on="0"/>
        <pt x="384" y="-10" on="1"/>
        <pt x="299" y="-10" on="0"/>
        <pt x="180" y="32" on="0"/>
        <pt x="139" y="74" on="1"/>
        <pt x="95" y="119" on="0"/>
        <pt x="43" y="264" on="0"/>
        <pt x="43" y="352" on="1"/>
        <pt x="43" y="440" on="0"/>
        <pt x="95" y="592" on="0"/>
        <pt x="143" y="643" on="1"/>
        <pt x="185" y="688" on="0"/>
        <pt x="302" y="730" on="0"/>
        <pt x="387" y="730" on="1"/>
        <pt x="468" y="730" on="0"/>
        <pt x="589" y="691" on="0"/>
        <pt x="634" y="646" on="1"/>
        <pt x="686" y="594" on="0"/>
        <pt x="731" y="447" on="0"/>
      </contour>
      <contour>
        <pt x="188" y="371" on="1"/>
        <pt x="188" y="293" on="0"/>
        <pt x="217" y="173" on="0"/>
        <pt x="242" y="135" on="1"/>
        <pt x="266" y="98" on="0"/>
        <pt x="337" y="60" on="0"/>
        <pt x="390" y="60" on="1"/>
        <pt x="484" y="60" on="0"/>
        <pt x="532" y="126" on="1"/>
        <pt x="558" y="161" on="0"/>
        <pt x="586" y="274" on="0"/>
        <pt x="586" y="354" on="1"/>
        <pt x="586" y="433" on="0"/>
        <pt x="557" y="549" on="0"/>
        <pt x="531" y="587" on="1"/>
        <pt x="505" y="625" on="0"/>
        <pt x="430" y="661" on="0"/>
        <pt x="383" y="661" on="1"/>
        <pt x="335" y="661" on="0"/>
        <pt x="267" y="626" on="0"/>
        <pt x="244" y="595" on="1"/>
        <pt x="188" y="521" on="0"/>
      </contour>
    </TTGlyph>
    <TTGlyph name="OE" xMin="43" yMin="0" xMax="1035" yMax="720">
      <contour>
        <pt x="798" y="238" on="1"/>
        <pt x="781" y="332" on="1"/>
        <pt x="644" y="332" on="1"/>
        <pt x="644" y="75" on="1"/>
        <pt x="918" y="75" on="1"/>
        <pt x="947" y="223" on="1"/>
        <pt x="1035" y="223" on="1"/>
        <pt x="1035" y="0" on="1"/>
        <pt x="381" y="0" on="1"/>
        <pt x="301" y="0" on="0"/>
        <pt x="185" y="42" on="0"/>
        <pt x="143" y="87" on="1"/>
        <pt x="95" y="137" on="0"/>
        <pt x="43" y="283" on="0"/>
        <pt x="43" y="368" on="1"/>
        <pt x="43" y="448" on="0"/>
        <pt x="93" y="588" on="0"/>
        <pt x="140" y="636" on="1"/>
        <pt x="223" y="720" on="0"/>
        <pt x="372" y="720" on="1"/>
        <pt x="1013" y="720" on="1"/>
        <pt x="1013" y="508" on="1"/>
        <pt x="931" y="508" on="1"/>
        <pt x="902" y="647" on="1"/>
        <pt x="644" y="647" on="1"/>
        <pt x="644" y="407" on="1"/>
        <pt x="781" y="407" on="1"/>
        <pt x="798" y="502" on="1"/>
        <pt x="879" y="502" on="1"/>
        <pt x="879" y="238" on="1"/>
      </contour>
      <contour>
        <pt x="514" y="645" on="1"/>
        <pt x="409" y="645" on="1"/>
        <pt x="351" y="645" on="0"/>
        <pt x="270" y="608" on="0"/>
        <pt x="243" y="571" on="1"/>
        <pt x="188" y="496" on="0"/>
        <pt x="188" y="354" on="1"/>
        <pt x="188" y="280" on="0"/>
        <pt x="216" y="175" on="0"/>
        <pt x="243" y="141" on="1"/>
        <pt x="269" y="108" on="0"/>
        <pt x="345" y="75" on="0"/>
        <pt x="399" y="75" on="1"/>
        <pt x="514" y="75" on="1"/>
      </contour>
    </TTGlyph>
    <TTGlyph name="Oacute" xMin="43" yMin="-10" xMax="731" yMax="900">
      <contour>
        <pt x="731" y="368" on="1"/>
        <pt x="731" y="284" on="0"/>
        <pt x="683" y="131" on="0"/>
        <pt x="631" y="77" on="1"/>
        <pt x="588" y="32" on="0"/>
        <pt x="469" y="-10" on="0"/>
        <pt x="384" y="-10" on="1"/>
        <pt x="299" y="-10" on="0"/>
        <pt x="180" y="32" on="0"/>
        <pt x="139" y="74" on="1"/>
        <pt x="95" y="119" on="0"/>
        <pt x="43" y="264" on="0"/>
        <pt x="43" y="352" on="1"/>
        <pt x="43" y="440" on="0"/>
        <pt x="95" y="592" on="0"/>
        <pt x="143" y="643" on="1"/>
        <pt x="185" y="688" on="0"/>
        <pt x="302" y="730" on="0"/>
        <pt x="387" y="730" on="1"/>
        <pt x="468" y="730" on="0"/>
        <pt x="589" y="691" on="0"/>
        <pt x="634" y="646" on="1"/>
        <pt x="686" y="594" on="0"/>
        <pt x="731" y="447" on="0"/>
      </contour>
      <contour>
        <pt x="188" y="371" on="1"/>
        <pt x="188" y="293" on="0"/>
        <pt x="217" y="173" on="0"/>
        <pt x="242" y="135" on="1"/>
        <pt x="266" y="98" on="0"/>
        <pt x="337" y="60" on="0"/>
        <pt x="390" y="60" on="1"/>
        <pt x="484" y="60" on="0"/>
        <pt x="532" y="126" on="1"/>
        <pt x="558" y="161" on="0"/>
        <pt x="586" y="274" on="0"/>
        <pt x="586" y="354" on="1"/>
        <pt x="586" y="433" on="0"/>
        <pt x="557" y="549" on="0"/>
        <pt x="531" y="587" on="1"/>
        <pt x="505" y="625" on="0"/>
        <pt x="430" y="661" on="0"/>
        <pt x="383" y="661" on="1"/>
        <pt x="335" y="661" on="0"/>
        <pt x="267" y="626" on="0"/>
        <pt x="244" y="595" on="1"/>
        <pt x="188" y="521" on="0"/>
      </contour>
      <contour>
        <pt x="405" y="836" on="1"/>
        <pt x="421" y="857" on="0"/>
        <pt x="446" y="882" on="0"/>
        <pt x="467" y="895" on="0"/>
        <pt x="489" y="900" on="0"/>
        <pt x="503" y="900" on="1"/>
        <pt x="527" y="900" on="0"/>
        <pt x="550" y="876" on="0"/>
        <pt x="550" y="861" on="1"/>
        <pt x="550" y="851" on="0"/>
        <pt x="544" y="836" on="0"/>
        <pt x="527" y="821" on="0"/>
        <pt x="498" y="802" on="0"/>
        <pt x="475" y="788" on="1"/>
        <pt x="428" y="760" on="1"/>
        <pt x="345" y="760" on="1"/>
      </contour>
    </TTGlyph>
    <TTGlyph name="Obreve" xMin="43" yMin="-10" xMax="731" yMax="899">
      <contour>
        <pt x="555" y="899" on="1"/>
        <pt x="553" y="831" on="0"/>
        <pt x="493" y="744" on="0"/>
        <pt x="445" y="727" on="1"/>
        <pt x="504" y="721" on="0"/>
        <pt x="597" y="682" on="0"/>
        <pt x="634" y="646" on="1"/>
        <pt x="686" y="594" on="0"/>
        <pt x="731" y="447" on="0"/>
        <pt x="731" y="368" on="1"/>
        <pt x="731" y="284" on="0"/>
        <pt x="683" y="131" on="0"/>
        <pt x="631" y="77" on="1"/>
        <pt x="588" y="32" on="0"/>
        <pt x="469" y="-10" on="0"/>
        <pt x="384" y="-10" on="1"/>
        <pt x="299" y="-10" on="0"/>
        <pt x="180" y="32" on="0"/>
        <pt x="139" y="74" on="1"/>
        <pt x="95" y="119" on="0"/>
        <pt x="43" y="264" on="0"/>
        <pt x="43" y="352" on="1"/>
        <pt x="43" y="440" on="0"/>
        <pt x="95" y="592" on="0"/>
        <pt x="143" y="643" on="1"/>
        <pt x="178" y="680" on="0"/>
        <pt x="268" y="721" on="0"/>
        <pt x="330" y="727" on="1"/>
        <pt x="282" y="744" on="0"/>
        <pt x="231" y="834" on="0"/>
        <pt x="231" y="899" on="1"/>
        <pt x="294" y="899" on="1"/>
        <pt x="296" y="855" on="0"/>
        <pt x="348" y="817" on="0"/>
        <pt x="387" y="817" on="1"/>
        <pt x="437" y="817" on="0"/>
        <pt x="492" y="855" on="0"/>
        <pt x="492" y="899" on="1"/>
      </contour>
      <contour>
        <pt x="188" y="371" on="1"/>
        <pt x="188" y="293" on="0"/>
        <pt x="217" y="173" on="0"/>
        <pt x="242" y="135" on="1"/>
        <pt x="266" y="98" on="0"/>
        <pt x="337" y="60" on="0"/>
        <pt x="390" y="60" on="1"/>
        <pt x="484" y="60" on="0"/>
        <pt x="532" y="126" on="1"/>
        <pt x="558" y="161" on="0"/>
        <pt x="586" y="274" on="0"/>
        <pt x="586" y="354" on="1"/>
        <pt x="586" y="433" on="0"/>
        <pt x="557" y="549" on="0"/>
        <pt x="531" y="587" on="1"/>
        <pt x="505" y="625" on="0"/>
        <pt x="430" y="661" on="0"/>
        <pt x="383" y="661" on="1"/>
        <pt x="335" y="661" on="0"/>
        <pt x="267" y="626" on="0"/>
        <pt x="244" y="595" on="1"/>
        <pt x="188" y="521" on="0"/>
      </contour>
    </TTGlyph>
    <TTGlyph name="Ocircumflex" xMin="43" yMin="-10" xMax="731" yMax="890">
      <contour>
        <pt x="731" y="368" on="1"/>
        <pt x="731" y="284" on="0"/>
        <pt x="683" y="131" on="0"/>
        <pt x="631" y="77" on="1"/>
        <pt x="588" y="32" on="0"/>
        <pt x="469" y="-10" on="0"/>
        <pt x="384" y="-10" on="1"/>
        <pt x="299" y="-10" on="0"/>
        <pt x="180" y="32" on="0"/>
        <pt x="139" y="74" on="1"/>
        <pt x="95" y="119" on="0"/>
        <pt x="43" y="264" on="0"/>
        <pt x="43" y="352" on="1"/>
        <pt x="43" y="440" on="0"/>
        <pt x="95" y="592" on="0"/>
        <pt x="143" y="643" on="1"/>
        <pt x="185" y="688" on="0"/>
        <pt x="302" y="730" on="0"/>
        <pt x="387" y="730" on="1"/>
        <pt x="468" y="730" on="0"/>
        <pt x="589" y="691" on="0"/>
        <pt x="634" y="646" on="1"/>
        <pt x="686" y="594" on="0"/>
        <pt x="731" y="447" on="0"/>
      </contour>
      <contour>
        <pt x="188" y="371" on="1"/>
        <pt x="188" y="293" on="0"/>
        <pt x="217" y="173" on="0"/>
        <pt x="242" y="135" on="1"/>
        <pt x="266" y="98" on="0"/>
        <pt x="337" y="60" on="0"/>
        <pt x="390" y="60" on="1"/>
        <pt x="484" y="60" on="0"/>
        <pt x="532" y="126" on="1"/>
        <pt x="558" y="161" on="0"/>
        <pt x="586" y="274" on="0"/>
        <pt x="586" y="354" on="1"/>
        <pt x="586" y="433" on="0"/>
        <pt x="557" y="549" on="0"/>
        <pt x="531" y="587" on="1"/>
        <pt x="505" y="625" on="0"/>
        <pt x="430" y="661" on="0"/>
        <pt x="383" y="661" on="1"/>
        <pt x="335" y="661" on="0"/>
        <pt x="267" y="626" on="0"/>
        <pt x="244" y="595" on="1"/>
        <pt x="188" y="521" on="0"/>
      </contour>
      <contour>
        <pt x="568" y="769" on="1"/>
        <pt x="485" y="769" on="1"/>
        <pt x="387" y="830" on="1"/>
        <pt x="289" y="769" on="1"/>
        <pt x="206" y="769" on="1"/>
        <pt x="324" y="890" on="1"/>
        <pt x="449" y="890" on="1"/>
      </contour>
    </TTGlyph>
    <TTGlyph name="Odieresis" xMin="43" yMin="-10" xMax="731" yMax="730">
      <contour>
        <pt x="731" y="368" on="1"/>
        <pt x="731" y="284" on="0"/>
        <pt x="683" y="131" on="0"/>
        <pt x="631" y="77" on="1"/>
        <pt x="588" y="32" on="0"/>
        <pt x="469" y="-10" on="0"/>
        <pt x="384" y="-10" on="1"/>
        <pt x="299" y="-10" on="0"/>
        <pt x="180" y="32" on="0"/>
        <pt x="139" y="74" on="1"/>
        <pt x="95" y="119" on="0"/>
        <pt x="43" y="264" on="0"/>
        <pt x="43" y="352" on="1"/>
        <pt x="43" y="440" on="0"/>
        <pt x="95" y="592" on="0"/>
        <pt x="143" y="643" on="1"/>
        <pt x="185" y="688" on="0"/>
        <pt x="302" y="730" on="0"/>
        <pt x="387" y="730" on="1"/>
        <pt x="468" y="730" on="0"/>
        <pt x="589" y="691" on="0"/>
        <pt x="634" y="646" on="1"/>
        <pt x="686" y="594" on="0"/>
        <pt x="731" y="447" on="0"/>
      </contour>
      <contour>
        <pt x="188" y="371" on="1"/>
        <pt x="188" y="293" on="0"/>
        <pt x="217" y="173" on="0"/>
        <pt x="242" y="135" on="1"/>
        <pt x="266" y="98" on="0"/>
        <pt x="337" y="60" on="0"/>
        <pt x="390" y="60" on="1"/>
        <pt x="484" y="60" on="0"/>
        <pt x="532" y="126" on="1"/>
        <pt x="558" y="161" on="0"/>
        <pt x="586" y="274" on="0"/>
        <pt x="586" y="354" on="1"/>
        <pt x="586" y="433" on="0"/>
        <pt x="557" y="549" on="0"/>
        <pt x="531" y="587" on="1"/>
        <pt x="505" y="625" on="0"/>
        <pt x="430" y="661" on="0"/>
        <pt x="383" y="661" on="1"/>
        <pt x="335" y="661" on="0"/>
        <pt x="267" y="626" on="0"/>
        <pt x="244" y="595" on="1"/>
        <pt x="188" y="521" on="0"/>
      </contour>
    </TTGlyph>
    <TTGlyph name="Odotbelow" xMin="43" yMin="-10" xMax="731" yMax="730">
      <contour>
        <pt x="731" y="368" on="1"/>
        <pt x="731" y="284" on="0"/>
        <pt x="683" y="131" on="0"/>
        <pt x="631" y="77" on="1"/>
        <pt x="588" y="32" on="0"/>
        <pt x="469" y="-10" on="0"/>
        <pt x="384" y="-10" on="1"/>
        <pt x="299" y="-10" on="0"/>
        <pt x="180" y="32" on="0"/>
        <pt x="139" y="74" on="1"/>
        <pt x="95" y="119" on="0"/>
        <pt x="43" y="264" on="0"/>
        <pt x="43" y="352" on="1"/>
        <pt x="43" y="440" on="0"/>
        <pt x="95" y="592" on="0"/>
        <pt x="143" y="643" on="1"/>
        <pt x="185" y="688" on="0"/>
        <pt x="302" y="730" on="0"/>
        <pt x="387" y="730" on="1"/>
        <pt x="468" y="730" on="0"/>
        <pt x="589" y="691" on="0"/>
        <pt x="634" y="646" on="1"/>
        <pt x="686" y="594" on="0"/>
        <pt x="731" y="447" on="0"/>
      </contour>
      <contour>
        <pt x="188" y="371" on="1"/>
        <pt x="188" y="293" on="0"/>
        <pt x="217" y="173" on="0"/>
        <pt x="242" y="135" on="1"/>
        <pt x="266" y="98" on="0"/>
        <pt x="337" y="60" on="0"/>
        <pt x="390" y="60" on="1"/>
        <pt x="484" y="60" on="0"/>
        <pt x="532" y="126" on="1"/>
        <pt x="558" y="161" on="0"/>
        <pt x="586" y="274" on="0"/>
        <pt x="586" y="354" on="1"/>
        <pt x="586" y="433" on="0"/>
        <pt x="557" y="549" on="0"/>
        <pt x="531" y="587" on="1"/>
        <pt x="505" y="625" on="0"/>
        <pt x="430" y="661" on="0"/>
        <pt x="383" y="661" on="1"/>
        <pt x="335" y="661" on="0"/>
        <pt x="267" y="626" on="0"/>
        <pt x="244" y="595" on="1"/>
        <pt x="188" y="521" on="0"/>
      </contour>
    </TTGlyph>
    <TTGlyph name="Ograve" xMin="43" yMin="-10" xMax="731" yMax="900">
      <contour>
        <pt x="731" y="368" on="1"/>
        <pt x="731" y="284" on="0"/>
        <pt x="683" y="131" on="0"/>
        <pt x="631" y="77" on="1"/>
        <pt x="588" y="32" on="0"/>
        <pt x="469" y="-10" on="0"/>
        <pt x="384" y="-10" on="1"/>
        <pt x="299" y="-10" on="0"/>
        <pt x="180" y="32" on="0"/>
        <pt x="139" y="74" on="1"/>
        <pt x="95" y="119" on="0"/>
        <pt x="43" y="264" on="0"/>
        <pt x="43" y="352" on="1"/>
        <pt x="43" y="440" on="0"/>
        <pt x="95" y="592" on="0"/>
        <pt x="143" y="643" on="1"/>
        <pt x="185" y="688" on="0"/>
        <pt x="302" y="730" on="0"/>
        <pt x="387" y="730" on="1"/>
        <pt x="468" y="730" on="0"/>
        <pt x="589" y="691" on="0"/>
        <pt x="634" y="646" on="1"/>
        <pt x="686" y="594" on="0"/>
        <pt x="731" y="447" on="0"/>
      </contour>
      <contour>
        <pt x="188" y="371" on="1"/>
        <pt x="188" y="293" on="0"/>
        <pt x="217" y="173" on="0"/>
        <pt x="242" y="135" on="1"/>
        <pt x="266" y="98" on="0"/>
        <pt x="337" y="60" on="0"/>
        <pt x="390" y="60" on="1"/>
        <pt x="484" y="60" on="0"/>
        <pt x="532" y="126" on="1"/>
        <pt x="558" y="161" on="0"/>
        <pt x="586" y="274" on="0"/>
        <pt x="586" y="354" on="1"/>
        <pt x="586" y="433" on="0"/>
        <pt x="557" y="549" on="0"/>
        <pt x="531" y="587" on="1"/>
        <pt x="505" y="625" on="0"/>
        <pt x="430" y="661" on="0"/>
        <pt x="383" y="661" on="1"/>
        <pt x="335" y="661" on="0"/>
        <pt x="267" y="626" on="0"/>
        <pt x="244" y="595" on="1"/>
        <pt x="188" y="521" on="0"/>
      </contour>
      <contour>
        <pt x="475" y="760" on="1"/>
        <pt x="392" y="760" on="1"/>
        <pt x="345" y="788" on="1"/>
        <pt x="322" y="802" on="0"/>
        <pt x="292" y="821" on="0"/>
        <pt x="276" y="836" on="0"/>
        <pt x="270" y="851" on="0"/>
        <pt x="270" y="861" on="1"/>
        <pt x="270" y="876" on="0"/>
        <pt x="293" y="900" on="0"/>
        <pt x="317" y="900" on="1"/>
        <pt x="331" y="900" on="0"/>
        <pt x="353" y="895" on="0"/>
        <pt x="374" y="882" on="0"/>
        <pt x="398" y="857" on="0"/>
        <pt x="415" y="836" on="1"/>
      </contour>
    </TTGlyph>
    <TTGlyph name="Ohungarumlaut" xMin="43" yMin="-10" xMax="731" yMax="730">
      <contour>
        <pt x="731" y="368" on="1"/>
        <pt x="731" y="284" on="0"/>
        <pt x="683" y="131" on="0"/>
        <pt x="631" y="77" on="1"/>
        <pt x="588" y="32" on="0"/>
        <pt x="469" y="-10" on="0"/>
        <pt x="384" y="-10" on="1"/>
        <pt x="299" y="-10" on="0"/>
        <pt x="180" y="32" on="0"/>
        <pt x="139" y="74" on="1"/>
        <pt x="95" y="119" on="0"/>
        <pt x="43" y="264" on="0"/>
        <pt x="43" y="352" on="1"/>
        <pt x="43" y="440" on="0"/>
        <pt x="95" y="592" on="0"/>
        <pt x="143" y="643" on="1"/>
        <pt x="185" y="688" on="0"/>
        <pt x="302" y="730" on="0"/>
        <pt x="387" y="730" on="1"/>
        <pt x="468" y="730" on="0"/>
        <pt x="589" y="691" on="0"/>
        <pt x="634" y="646" on="1"/>
        <pt x="686" y="594" on="0"/>
        <pt x="731" y="447" on="0"/>
      </contour>
      <contour>
        <pt x="188" y="371" on="1"/>
        <pt x="188" y="293" on="0"/>
        <pt x="217" y="173" on="0"/>
        <pt x="242" y="135" on="1"/>
        <pt x="266" y="98" on="0"/>
        <pt x="337" y="60" on="0"/>
        <pt x="390" y="60" on="1"/>
        <pt x="484" y="60" on="0"/>
        <pt x="532" y="126" on="1"/>
        <pt x="558" y="161" on="0"/>
        <pt x="586" y="274" on="0"/>
        <pt x="586" y="354" on="1"/>
        <pt x="586" y="433" on="0"/>
        <pt x="557" y="549" on="0"/>
        <pt x="531" y="587" on="1"/>
        <pt x="505" y="625" on="0"/>
        <pt x="430" y="661" on="0"/>
        <pt x="383" y="661" on="1"/>
        <pt x="335" y="661" on="0"/>
        <pt x="267" y="626" on="0"/>
        <pt x="244" y="595" on="1"/>
        <pt x="188" y="521" on="0"/>
      </contour>
    </TTGlyph>
    <TTGlyph name="Omacron" xMin="43" yMin="-10" xMax="731" yMax="730">
      <contour>
        <pt x="731" y="368" on="1"/>
        <pt x="731" y="284" on="0"/>
        <pt x="683" y="131" on="0"/>
        <pt x="631" y="77" on="1"/>
        <pt x="588" y="32" on="0"/>
        <pt x="469" y="-10" on="0"/>
        <pt x="384" y="-10" on="1"/>
        <pt x="299" y="-10" on="0"/>
        <pt x="180" y="32" on="0"/>
        <pt x="139" y="74" on="1"/>
        <pt x="95" y="119" on="0"/>
        <pt x="43" y="264" on="0"/>
        <pt x="43" y="352" on="1"/>
        <pt x="43" y="440" on="0"/>
        <pt x="95" y="592" on="0"/>
        <pt x="143" y="643" on="1"/>
        <pt x="185" y="688" on="0"/>
        <pt x="302" y="730" on="0"/>
        <pt x="387" y="730" on="1"/>
        <pt x="468" y="730" on="0"/>
        <pt x="589" y="691" on="0"/>
        <pt x="634" y="646" on="1"/>
        <pt x="686" y="594" on="0"/>
        <pt x="731" y="447" on="0"/>
      </contour>
      <contour>
        <pt x="188" y="371" on="1"/>
        <pt x="188" y="293" on="0"/>
        <pt x="217" y="173" on="0"/>
        <pt x="242" y="135" on="1"/>
        <pt x="266" y="98" on="0"/>
        <pt x="337" y="60" on="0"/>
        <pt x="390" y="60" on="1"/>
        <pt x="484" y="60" on="0"/>
        <pt x="532" y="126" on="1"/>
        <pt x="558" y="161" on="0"/>
        <pt x="586" y="274" on="0"/>
        <pt x="586" y="354" on="1"/>
        <pt x="586" y="433" on="0"/>
        <pt x="557" y="549" on="0"/>
        <pt x="531" y="587" on="1"/>
        <pt x="505" y="625" on="0"/>
        <pt x="430" y="661" on="0"/>
        <pt x="383" y="661" on="1"/>
        <pt x="335" y="661" on="0"/>
        <pt x="267" y="626" on="0"/>
        <pt x="244" y="595" on="1"/>
        <pt x="188" y="521" on="0"/>
      </contour>
    </TTGlyph>
    <TTGlyph name="Oogonek" xMin="43" yMin="-210" xMax="731" yMax="730">
      <contour>
        <pt x="363" y="-210" on="1"/>
        <pt x="307" y="-210" on="0"/>
        <pt x="252" y="-163" on="0"/>
        <pt x="252" y="-125" on="1"/>
        <pt x="252" y="-63" on="0"/>
        <pt x="331" y="-7" on="1"/>
        <pt x="267" y="-2" on="0"/>
        <pt x="173" y="39" on="0"/>
        <pt x="139" y="74" on="1"/>
        <pt x="95" y="119" on="0"/>
        <pt x="43" y="264" on="0"/>
        <pt x="43" y="352" on="1"/>
        <pt x="43" y="440" on="0"/>
        <pt x="95" y="592" on="0"/>
        <pt x="143" y="643" on="1"/>
        <pt x="185" y="688" on="0"/>
        <pt x="302" y="730" on="0"/>
        <pt x="387" y="730" on="1"/>
        <pt x="468" y="730" on="0"/>
        <pt x="589" y="691" on="0"/>
        <pt x="634" y="646" on="1"/>
        <pt x="686" y="594" on="0"/>
        <pt x="731" y="447" on="0"/>
        <pt x="731" y="368" on="1"/>
        <pt x="731" y="284" on="0"/>
        <pt x="683" y="131" on="0"/>
        <pt x="631" y="77" on="1"/>
        <pt x="591" y="35" on="0"/>
        <pt x="482" y="-7" on="0"/>
        <pt x="407" y="-9" on="1"/>
        <pt x="387" y="-28" on="0"/>
        <pt x="354" y="-76" on="0"/>
        <pt x="354" y="-98" on="1"/>
        <pt x="354" y="-116" on="0"/>
        <pt x="381" y="-137" on="0"/>
        <pt x="404" y="-137" on="1"/>
        <pt x="420" y="-137" on="0"/>
        <pt x="451" y="-129" on="0"/>
        <pt x="463" y="-119" on="1"/>
        <pt x="487" y="-154" on="1"/>
        <pt x="470" y="-180" on="0"/>
        <pt x="414" y="-210" on="0"/>
      </contour>
      <contour>
        <pt x="188" y="371" on="1"/>
        <pt x="188" y="293" on="0"/>
        <pt x="217" y="173" on="0"/>
        <pt x="242" y="135" on="1"/>
        <pt x="266" y="98" on="0"/>
        <pt x="337" y="60" on="0"/>
        <pt x="390" y="60" on="1"/>
        <pt x="484" y="60" on="0"/>
        <pt x="532" y="126" on="1"/>
        <pt x="558" y="161" on="0"/>
        <pt x="586" y="274" on="0"/>
        <pt x="586" y="354" on="1"/>
        <pt x="586" y="433" on="0"/>
        <pt x="557" y="549" on="0"/>
        <pt x="531" y="587" on="1"/>
        <pt x="505" y="625" on="0"/>
        <pt x="430" y="661" on="0"/>
        <pt x="383" y="661" on="1"/>
        <pt x="335" y="661" on="0"/>
        <pt x="267" y="626" on="0"/>
        <pt x="244" y="595" on="1"/>
        <pt x="188" y="521" on="0"/>
      </contour>
    </TTGlyph>
    <TTGlyph name="Oslash" xMin="41" yMin="-10" xMax="729" yMax="730">
      <contour>
        <pt x="729" y="368" on="1"/>
        <pt x="729" y="284" on="0"/>
        <pt x="681" y="131" on="0"/>
        <pt x="629" y="77" on="1"/>
        <pt x="586" y="32" on="0"/>
        <pt x="467" y="-10" on="0"/>
        <pt x="382" y="-10" on="1"/>
        <pt x="263" y="-10" on="0"/>
        <pt x="191" y="31" on="1"/>
        <pt x="162" y="-10" on="1"/>
        <pt x="61" y="-10" on="1"/>
        <pt x="128" y="84" on="1"/>
        <pt x="88" y="130" on="0"/>
        <pt x="41" y="268" on="0"/>
        <pt x="41" y="352" on="1"/>
        <pt x="41" y="440" on="0"/>
        <pt x="93" y="592" on="0"/>
        <pt x="141" y="643" on="1"/>
        <pt x="183" y="688" on="0"/>
        <pt x="300" y="730" on="0"/>
        <pt x="385" y="730" on="1"/>
        <pt x="491" y="730" on="0"/>
        <pt x="562" y="695" on="1"/>
        <pt x="587" y="730" on="1"/>
        <pt x="688" y="730" on="1"/>
        <pt x="630" y="648" on="1"/>
        <pt x="630" y="646" on="0"/>
        <pt x="632" y="646" on="1"/>
        <pt x="684" y="594" on="0"/>
        <pt x="729" y="447" on="0"/>
      </contour>
      <contour>
        <pt x="584" y="354" on="1"/>
        <pt x="584" y="412" on="0"/>
        <pt x="568" y="506" on="0"/>
        <pt x="554" y="541" on="1"/>
        <pt x="252" y="117" on="1"/>
        <pt x="275" y="88" on="0"/>
        <pt x="341" y="60" on="0"/>
        <pt x="388" y="60" on="1"/>
        <pt x="482" y="60" on="0"/>
        <pt x="530" y="126" on="1"/>
        <pt x="556" y="161" on="0"/>
        <pt x="584" y="274" on="0"/>
      </contour>
      <contour>
        <pt x="186" y="371" on="1"/>
        <pt x="186" y="268" on="0"/>
        <pt x="210" y="199" on="1"/>
        <pt x="505" y="615" on="1"/>
        <pt x="456" y="661" on="0"/>
        <pt x="381" y="661" on="1"/>
        <pt x="333" y="661" on="0"/>
        <pt x="265" y="626" on="0"/>
        <pt x="242" y="595" on="1"/>
        <pt x="186" y="521" on="0"/>
      </contour>
    </TTGlyph>
    <TTGlyph name="Oslashacute" xMin="41" yMin="-10" xMax="729" yMax="900">
      <contour>
        <pt x="729" y="368" on="1"/>
        <pt x="729" y="284" on="0"/>
        <pt x="681" y="131" on="0"/>
        <pt x="629" y="77" on="1"/>
        <pt x="586" y="32" on="0"/>
        <pt x="467" y="-10" on="0"/>
        <pt x="382" y="-10" on="1"/>
        <pt x="263" y="-10" on="0"/>
        <pt x="191" y="31" on="1"/>
        <pt x="162" y="-10" on="1"/>
        <pt x="61" y="-10" on="1"/>
        <pt x="128" y="84" on="1"/>
        <pt x="88" y="130" on="0"/>
        <pt x="41" y="268" on="0"/>
        <pt x="41" y="352" on="1"/>
        <pt x="41" y="440" on="0"/>
        <pt x="93" y="592" on="0"/>
        <pt x="141" y="643" on="1"/>
        <pt x="183" y="688" on="0"/>
        <pt x="300" y="730" on="0"/>
        <pt x="385" y="730" on="1"/>
        <pt x="491" y="730" on="0"/>
        <pt x="562" y="695" on="1"/>
        <pt x="587" y="730" on="1"/>
        <pt x="688" y="730" on="1"/>
        <pt x="630" y="648" on="1"/>
        <pt x="630" y="646" on="0"/>
        <pt x="632" y="646" on="1"/>
        <pt x="684" y="594" on="0"/>
        <pt x="729" y="447" on="0"/>
      </contour>
      <contour>
        <pt x="584" y="354" on="1"/>
        <pt x="584" y="412" on="0"/>
        <pt x="568" y="506" on="0"/>
        <pt x="554" y="541" on="1"/>
        <pt x="252" y="117" on="1"/>
        <pt x="275" y="88" on="0"/>
        <pt x="341" y="60" on="0"/>
        <pt x="388" y="60" on="1"/>
        <pt x="482" y="60" on="0"/>
        <pt x="530" y="126" on="1"/>
        <pt x="556" y="161" on="0"/>
        <pt x="584" y="274" on="0"/>
      </contour>
      <contour>
        <pt x="186" y="371" on="1"/>
        <pt x="186" y="268" on="0"/>
        <pt x="210" y="199" on="1"/>
        <pt x="505" y="615" on="1"/>
        <pt x="456" y="661" on="0"/>
        <pt x="381" y="661" on="1"/>
        <pt x="333" y="661" on="0"/>
        <pt x="265" y="626" on="0"/>
        <pt x="242" y="595" on="1"/>
        <pt x="186" y="521" on="0"/>
      </contour>
      <contour>
        <pt x="401" y="836" on="1"/>
        <pt x="417" y="857" on="0"/>
        <pt x="442" y="882" on="0"/>
        <pt x="463" y="895" on="0"/>
        <pt x="485" y="900" on="0"/>
        <pt x="499" y="900" on="1"/>
        <pt x="523" y="900" on="0"/>
        <pt x="546" y="876" on="0"/>
        <pt x="546" y="861" on="1"/>
        <pt x="546" y="851" on="0"/>
        <pt x="540" y="836" on="0"/>
        <pt x="523" y="821" on="0"/>
        <pt x="494" y="802" on="0"/>
        <pt x="471" y="788" on="1"/>
        <pt x="424" y="760" on="1"/>
        <pt x="341" y="760" on="1"/>
      </contour>
    </TTGlyph>
    <TTGlyph name="Otilde" xMin="43" yMin="-10" xMax="731" yMax="900">
      <contour>
        <pt x="731" y="368" on="1"/>
        <pt x="731" y="284" on="0"/>
        <pt x="683" y="131" on="0"/>
        <pt x="631" y="77" on="1"/>
        <pt x="588" y="32" on="0"/>
        <pt x="469" y="-10" on="0"/>
        <pt x="384" y="-10" on="1"/>
        <pt x="299" y="-10" on="0"/>
        <pt x="180" y="32" on="0"/>
        <pt x="139" y="74" on="1"/>
        <pt x="95" y="119" on="0"/>
        <pt x="43" y="264" on="0"/>
        <pt x="43" y="352" on="1"/>
        <pt x="43" y="440" on="0"/>
        <pt x="95" y="592" on="0"/>
        <pt x="143" y="643" on="1"/>
        <pt x="185" y="688" on="0"/>
        <pt x="302" y="730" on="0"/>
        <pt x="387" y="730" on="1"/>
        <pt x="468" y="730" on="0"/>
        <pt x="589" y="691" on="0"/>
        <pt x="634" y="646" on="1"/>
        <pt x="686" y="594" on="0"/>
        <pt x="731" y="447" on="0"/>
      </contour>
      <contour>
        <pt x="188" y="371" on="1"/>
        <pt x="188" y="293" on="0"/>
        <pt x="217" y="173" on="0"/>
        <pt x="242" y="135" on="1"/>
        <pt x="266" y="98" on="0"/>
        <pt x="337" y="60" on="0"/>
        <pt x="390" y="60" on="1"/>
        <pt x="484" y="60" on="0"/>
        <pt x="532" y="126" on="1"/>
        <pt x="558" y="161" on="0"/>
        <pt x="586" y="274" on="0"/>
        <pt x="586" y="354" on="1"/>
        <pt x="586" y="433" on="0"/>
        <pt x="557" y="549" on="0"/>
        <pt x="531" y="587" on="1"/>
        <pt x="505" y="625" on="0"/>
        <pt x="430" y="661" on="0"/>
        <pt x="383" y="661" on="1"/>
        <pt x="335" y="661" on="0"/>
        <pt x="267" y="626" on="0"/>
        <pt x="244" y="595" on="1"/>
        <pt x="188" y="521" on="0"/>
      </contour>
      <contour>
        <pt x="188" y="755" on="1"/>
        <pt x="190" y="828" on="0"/>
        <pt x="260" y="900" on="0"/>
        <pt x="315" y="900" on="1"/>
        <pt x="340" y="900" on="0"/>
        <pt x="378" y="883" on="0"/>
        <pt x="410" y="862" on="0"/>
        <pt x="441" y="845" on="0"/>
        <pt x="461" y="845" on="1"/>
        <pt x="491" y="845" on="0"/>
        <pt x="521" y="871" on="0"/>
        <pt x="526" y="895" on="1"/>
        <pt x="586" y="895" on="1"/>
        <pt x="565" y="744" on="0"/>
        <pt x="459" y="744" on="1"/>
        <pt x="434" y="744" on="0"/>
        <pt x="397" y="761" on="0"/>
        <pt x="364" y="782" on="0"/>
        <pt x="332" y="800" on="0"/>
        <pt x="313" y="800" on="1"/>
        <pt x="283" y="800" on="0"/>
        <pt x="253" y="776" on="0"/>
        <pt x="248" y="755" on="1"/>
      </contour>
    </TTGlyph>
    <TTGlyph name="P" xMin="41" yMin="0" xMax="628" yMax="720">
      <contour>
        <pt x="349" y="348" on="1"/>
        <pt x="377" y="348" on="0"/>
        <pt x="426" y="365" on="0"/>
        <pt x="440" y="379" on="1"/>
        <pt x="460" y="399" on="0"/>
        <pt x="488" y="456" on="0"/>
        <pt x="488" y="493" on="1"/>
        <pt x="488" y="526" on="0"/>
        <pt x="461" y="589" on="0"/>
        <pt x="440" y="611" on="1"/>
        <pt x="423" y="628" on="0"/>
        <pt x="374" y="647" on="0"/>
        <pt x="345" y="647" on="1"/>
        <pt x="255" y="647" on="1"/>
        <pt x="255" y="348" on="1"/>
      </contour>
      <contour>
        <pt x="255" y="275" on="1"/>
        <pt x="255" y="79" on="1"/>
        <pt x="350" y="58" on="1"/>
        <pt x="350" y="0" on="1"/>
        <pt x="41" y="0" on="1"/>
        <pt x="41" y="58" on="1"/>
        <pt x="125" y="79" on="1"/>
        <pt x="125" y="641" on="1"/>
        <pt x="41" y="662" on="1"/>
        <pt x="41" y="720" on="1"/>
        <pt x="402" y="720" on="1"/>
        <pt x="449" y="720" on="0"/>
        <pt x="526" y="695" on="0"/>
        <pt x="552" y="672" on="1"/>
        <pt x="587" y="640" on="0"/>
        <pt x="628" y="554" on="0"/>
        <pt x="628" y="506" on="1"/>
        <pt x="628" y="456" on="0"/>
        <pt x="585" y="356" on="0"/>
        <pt x="550" y="325" on="1"/>
        <pt x="524" y="298" on="0"/>
        <pt x="446" y="275" on="0"/>
        <pt x="401" y="275" on="1"/>
      </contour>
    </TTGlyph>
    <TTGlyph name="Q" xMin="43" yMin="-185" xMax="731" yMax="730">
      <contour>
        <pt x="731" y="368" on="1"/>
        <pt x="731" y="280" on="0"/>
        <pt x="679" y="128" on="0"/>
        <pt x="631" y="77" on="1"/>
        <pt x="593" y="37" on="0"/>
        <pt x="495" y="-4" on="0"/>
        <pt x="433" y="-9" on="1"/>
        <pt x="433" y="-13" on="1"/>
        <pt x="530" y="-79" on="1"/>
        <pt x="548" y="-91" on="0"/>
        <pt x="590" y="-103" on="0"/>
        <pt x="611" y="-103" on="1"/>
        <pt x="630" y="-103" on="0"/>
        <pt x="654" y="-91" on="0"/>
        <pt x="671" y="-74" on="1"/>
        <pt x="693" y="-114" on="1"/>
        <pt x="672" y="-152" on="0"/>
        <pt x="602" y="-185" on="0"/>
        <pt x="554" y="-185" on="1"/>
        <pt x="498" y="-185" on="0"/>
        <pt x="414" y="-147" on="0"/>
        <pt x="391" y="-109" on="1"/>
        <pt x="331" y="-8" on="1"/>
        <pt x="209" y="1" on="0"/>
        <pt x="139" y="74" on="1"/>
        <pt x="93" y="122" on="0"/>
        <pt x="43" y="267" on="0"/>
        <pt x="43" y="352" on="1"/>
        <pt x="43" y="440" on="0"/>
        <pt x="95" y="592" on="0"/>
        <pt x="143" y="643" on="1"/>
        <pt x="188" y="689" on="0"/>
        <pt x="305" y="730" on="0"/>
        <pt x="387" y="730" on="1"/>
        <pt x="468" y="730" on="0"/>
        <pt x="590" y="690" on="0"/>
        <pt x="634" y="646" on="1"/>
        <pt x="682" y="598" on="0"/>
        <pt x="731" y="453" on="0"/>
      </contour>
      <contour>
        <pt x="188" y="374" on="1"/>
        <pt x="188" y="294" on="0"/>
        <pt x="216" y="171" on="0"/>
        <pt x="242" y="134" on="1"/>
        <pt x="286" y="60" on="0"/>
        <pt x="389" y="60" on="1"/>
        <pt x="486" y="60" on="0"/>
        <pt x="531" y="126" on="1"/>
        <pt x="586" y="196" on="0"/>
        <pt x="586" y="354" on="1"/>
        <pt x="586" y="432" on="0"/>
        <pt x="558" y="550" on="0"/>
        <pt x="531" y="587" on="1"/>
        <pt x="484" y="661" on="0"/>
        <pt x="384" y="661" on="1"/>
        <pt x="289" y="661" on="0"/>
        <pt x="243" y="595" on="1"/>
        <pt x="188" y="528" on="0"/>
      </contour>
    </TTGlyph>
    <TTGlyph name="R" xMin="41" yMin="0" xMax="718" yMax="720">
      <contour>
        <pt x="566" y="382" on="1"/>
        <pt x="548" y="368" on="0"/>
        <pt x="503" y="342" on="0"/>
        <pt x="468" y="334" on="1"/>
        <pt x="473" y="329" on="0"/>
        <pt x="494" y="304" on="0"/>
        <pt x="505" y="287" on="1"/>
        <pt x="629" y="77" on="1"/>
        <pt x="718" y="58" on="1"/>
        <pt x="718" y="0" on="1"/>
        <pt x="482" y="0" on="1"/>
        <pt x="482" y="58" on="1"/>
        <pt x="351" y="315" on="1"/>
        <pt x="255" y="315" on="1"/>
        <pt x="255" y="79" on="1"/>
        <pt x="350" y="58" on="1"/>
        <pt x="350" y="0" on="1"/>
        <pt x="41" y="0" on="1"/>
        <pt x="41" y="58" on="1"/>
        <pt x="125" y="79" on="1"/>
        <pt x="125" y="641" on="1"/>
        <pt x="41" y="662" on="1"/>
        <pt x="41" y="720" on="1"/>
        <pt x="415" y="720" on="1"/>
        <pt x="463" y="720" on="0"/>
        <pt x="535" y="702" on="0"/>
        <pt x="564" y="682" on="1"/>
        <pt x="600" y="656" on="0"/>
        <pt x="642" y="574" on="0"/>
        <pt x="642" y="532" on="1"/>
        <pt x="642" y="490" on="0"/>
        <pt x="601" y="409" on="0"/>
      </contour>
      <contour>
        <pt x="368" y="388" on="1"/>
        <pt x="423" y="388" on="0"/>
        <pt x="459" y="419" on="1"/>
        <pt x="479" y="436" on="0"/>
        <pt x="502" y="493" on="0"/>
        <pt x="502" y="526" on="1"/>
        <pt x="502" y="556" on="0"/>
        <pt x="478" y="604" on="0"/>
        <pt x="458" y="621" on="1"/>
        <pt x="425" y="647" on="0"/>
        <pt x="364" y="647" on="1"/>
        <pt x="255" y="647" on="1"/>
        <pt x="255" y="388" on="1"/>
      </contour>
    </TTGlyph>
    <TTGlyph name="Racute" xMin="41" yMin="0" xMax="718" yMax="900">
      <contour>
        <pt x="566" y="382" on="1"/>
        <pt x="548" y="368" on="0"/>
        <pt x="503" y="342" on="0"/>
        <pt x="468" y="334" on="1"/>
        <pt x="473" y="329" on="0"/>
        <pt x="494" y="304" on="0"/>
        <pt x="505" y="287" on="1"/>
        <pt x="629" y="77" on="1"/>
        <pt x="718" y="58" on="1"/>
        <pt x="718" y="0" on="1"/>
        <pt x="482" y="0" on="1"/>
        <pt x="482" y="58" on="1"/>
        <pt x="351" y="315" on="1"/>
        <pt x="255" y="315" on="1"/>
        <pt x="255" y="79" on="1"/>
        <pt x="350" y="58" on="1"/>
        <pt x="350" y="0" on="1"/>
        <pt x="41" y="0" on="1"/>
        <pt x="41" y="58" on="1"/>
        <pt x="125" y="79" on="1"/>
        <pt x="125" y="641" on="1"/>
        <pt x="41" y="662" on="1"/>
        <pt x="41" y="720" on="1"/>
        <pt x="415" y="720" on="1"/>
        <pt x="463" y="720" on="0"/>
        <pt x="535" y="702" on="0"/>
        <pt x="564" y="682" on="1"/>
        <pt x="600" y="656" on="0"/>
        <pt x="642" y="574" on="0"/>
        <pt x="642" y="532" on="1"/>
        <pt x="642" y="490" on="0"/>
        <pt x="601" y="409" on="0"/>
      </contour>
      <contour>
        <pt x="368" y="388" on="1"/>
        <pt x="423" y="388" on="0"/>
        <pt x="459" y="419" on="1"/>
        <pt x="479" y="436" on="0"/>
        <pt x="502" y="493" on="0"/>
        <pt x="502" y="526" on="1"/>
        <pt x="502" y="556" on="0"/>
        <pt x="478" y="604" on="0"/>
        <pt x="458" y="621" on="1"/>
        <pt x="425" y="647" on="0"/>
        <pt x="364" y="647" on="1"/>
        <pt x="255" y="647" on="1"/>
        <pt x="255" y="388" on="1"/>
      </contour>
      <contour>
        <pt x="335" y="836" on="1"/>
        <pt x="351" y="857" on="0"/>
        <pt x="376" y="882" on="0"/>
        <pt x="397" y="895" on="0"/>
        <pt x="419" y="900" on="0"/>
        <pt x="433" y="900" on="1"/>
        <pt x="457" y="900" on="0"/>
        <pt x="480" y="876" on="0"/>
        <pt x="480" y="861" on="1"/>
        <pt x="480" y="851" on="0"/>
        <pt x="474" y="836" on="0"/>
        <pt x="457" y="821" on="0"/>
        <pt x="428" y="802" on="0"/>
        <pt x="405" y="788" on="1"/>
        <pt x="358" y="760" on="1"/>
        <pt x="275" y="760" on="1"/>
      </contour>
    </TTGlyph>
    <TTGlyph name="Rcaron" xMin="41" yMin="0" xMax="718" yMax="890">
      <contour>
        <pt x="566" y="382" on="1"/>
        <pt x="548" y="368" on="0"/>
        <pt x="503" y="342" on="0"/>
        <pt x="468" y="334" on="1"/>
        <pt x="473" y="329" on="0"/>
        <pt x="494" y="304" on="0"/>
        <pt x="505" y="287" on="1"/>
        <pt x="629" y="77" on="1"/>
        <pt x="718" y="58" on="1"/>
        <pt x="718" y="0" on="1"/>
        <pt x="482" y="0" on="1"/>
        <pt x="482" y="58" on="1"/>
        <pt x="351" y="315" on="1"/>
        <pt x="255" y="315" on="1"/>
        <pt x="255" y="79" on="1"/>
        <pt x="350" y="58" on="1"/>
        <pt x="350" y="0" on="1"/>
        <pt x="41" y="0" on="1"/>
        <pt x="41" y="58" on="1"/>
        <pt x="125" y="79" on="1"/>
        <pt x="125" y="641" on="1"/>
        <pt x="41" y="662" on="1"/>
        <pt x="41" y="720" on="1"/>
        <pt x="415" y="720" on="1"/>
        <pt x="463" y="720" on="0"/>
        <pt x="535" y="702" on="0"/>
        <pt x="564" y="682" on="1"/>
        <pt x="600" y="656" on="0"/>
        <pt x="642" y="574" on="0"/>
        <pt x="642" y="532" on="1"/>
        <pt x="642" y="490" on="0"/>
        <pt x="601" y="409" on="0"/>
      </contour>
      <contour>
        <pt x="368" y="388" on="1"/>
        <pt x="423" y="388" on="0"/>
        <pt x="459" y="419" on="1"/>
        <pt x="479" y="436" on="0"/>
        <pt x="502" y="493" on="0"/>
        <pt x="502" y="526" on="1"/>
        <pt x="502" y="556" on="0"/>
        <pt x="478" y="604" on="0"/>
        <pt x="458" y="621" on="1"/>
        <pt x="425" y="647" on="0"/>
        <pt x="364" y="647" on="1"/>
        <pt x="255" y="647" on="1"/>
        <pt x="255" y="388" on="1"/>
      </contour>
      <contour>
        <pt x="415" y="769" on="1"/>
        <pt x="290" y="769" on="1"/>
        <pt x="172" y="890" on="1"/>
        <pt x="255" y="890" on="1"/>
        <pt x="353" y="829" on="1"/>
        <pt x="451" y="890" on="1"/>
        <pt x="534" y="890" on="1"/>
      </contour>
    </TTGlyph>
    <TTGlyph name="Rcommaaccent" xMin="41" yMin="-240" xMax="718" yMax="720">
      <contour>
        <pt x="566" y="382" on="1"/>
        <pt x="548" y="368" on="0"/>
        <pt x="503" y="342" on="0"/>
        <pt x="468" y="334" on="1"/>
        <pt x="473" y="329" on="0"/>
        <pt x="494" y="304" on="0"/>
        <pt x="505" y="287" on="1"/>
        <pt x="629" y="77" on="1"/>
        <pt x="718" y="58" on="1"/>
        <pt x="718" y="0" on="1"/>
        <pt x="482" y="0" on="1"/>
        <pt x="482" y="58" on="1"/>
        <pt x="351" y="315" on="1"/>
        <pt x="255" y="315" on="1"/>
        <pt x="255" y="79" on="1"/>
        <pt x="350" y="58" on="1"/>
        <pt x="350" y="0" on="1"/>
        <pt x="41" y="0" on="1"/>
        <pt x="41" y="58" on="1"/>
        <pt x="125" y="79" on="1"/>
        <pt x="125" y="641" on="1"/>
        <pt x="41" y="662" on="1"/>
        <pt x="41" y="720" on="1"/>
        <pt x="415" y="720" on="1"/>
        <pt x="463" y="720" on="0"/>
        <pt x="535" y="702" on="0"/>
        <pt x="564" y="682" on="1"/>
        <pt x="600" y="656" on="0"/>
        <pt x="642" y="574" on="0"/>
        <pt x="642" y="532" on="1"/>
        <pt x="642" y="490" on="0"/>
        <pt x="601" y="409" on="0"/>
      </contour>
      <contour>
        <pt x="368" y="388" on="1"/>
        <pt x="423" y="388" on="0"/>
        <pt x="459" y="419" on="1"/>
        <pt x="479" y="436" on="0"/>
        <pt x="502" y="493" on="0"/>
        <pt x="502" y="526" on="1"/>
        <pt x="502" y="556" on="0"/>
        <pt x="478" y="604" on="0"/>
        <pt x="458" y="621" on="1"/>
        <pt x="425" y="647" on="0"/>
        <pt x="364" y="647" on="1"/>
        <pt x="255" y="647" on="1"/>
        <pt x="255" y="388" on="1"/>
      </contour>
      <contour>
        <pt x="399" y="-44" on="1"/>
        <pt x="432" y="-44" on="0"/>
        <pt x="471" y="-79" on="0"/>
        <pt x="471" y="-109" on="1"/>
        <pt x="471" y="-148" on="0"/>
        <pt x="425" y="-212" on="0"/>
        <pt x="371" y="-240" on="1"/>
        <pt x="341" y="-208" on="1"/>
        <pt x="390" y="-169" on="0"/>
        <pt x="393" y="-141" on="1"/>
        <pt x="390" y="-139" on="1"/>
        <pt x="388" y="-141" on="0"/>
        <pt x="378" y="-144" on="0"/>
        <pt x="373" y="-144" on="1"/>
        <pt x="354" y="-144" on="0"/>
        <pt x="334" y="-116" on="0"/>
        <pt x="334" y="-99" on="1"/>
        <pt x="334" y="-73" on="0"/>
        <pt x="366" y="-44" on="0"/>
      </contour>
    </TTGlyph>
    <TTGlyph name="Rdotbelow" xMin="41" yMin="0" xMax="718" yMax="720">
      <contour>
        <pt x="566" y="382" on="1"/>
        <pt x="548" y="368" on="0"/>
        <pt x="503" y="342" on="0"/>
        <pt x="468" y="334" on="1"/>
        <pt x="473" y="329" on="0"/>
        <pt x="494" y="304" on="0"/>
        <pt x="505" y="287" on="1"/>
        <pt x="629" y="77" on="1"/>
        <pt x="718" y="58" on="1"/>
        <pt x="718" y="0" on="1"/>
        <pt x="482" y="0" on="1"/>
        <pt x="482" y="58" on="1"/>
        <pt x="351" y="315" on="1"/>
        <pt x="255" y="315" on="1"/>
        <pt x="255" y="79" on="1"/>
        <pt x="350" y="58" on="1"/>
        <pt x="350" y="0" on="1"/>
        <pt x="41" y="0" on="1"/>
        <pt x="41" y="58" on="1"/>
        <pt x="125" y="79" on="1"/>
        <pt x="125" y="641" on="1"/>
        <pt x="41" y="662" on="1"/>
        <pt x="41" y="720" on="1"/>
        <pt x="415" y="720" on="1"/>
        <pt x="463" y="720" on="0"/>
        <pt x="535" y="702" on="0"/>
        <pt x="564" y="682" on="1"/>
        <pt x="600" y="656" on="0"/>
        <pt x="642" y="574" on="0"/>
        <pt x="642" y="532" on="1"/>
        <pt x="642" y="490" on="0"/>
        <pt x="601" y="409" on="0"/>
      </contour>
      <contour>
        <pt x="368" y="388" on="1"/>
        <pt x="423" y="388" on="0"/>
        <pt x="459" y="419" on="1"/>
        <pt x="479" y="436" on="0"/>
        <pt x="502" y="493" on="0"/>
        <pt x="502" y="526" on="1"/>
        <pt x="502" y="556" on="0"/>
        <pt x="478" y="604" on="0"/>
        <pt x="458" y="621" on="1"/>
        <pt x="425" y="647" on="0"/>
        <pt x="364" y="647" on="1"/>
        <pt x="255" y="647" on="1"/>
        <pt x="255" y="388" on="1"/>
      </contour>
    </TTGlyph>
    <TTGlyph name="S" xMin="58" yMin="-11" xMax="568" yMax="731">
      <contour>
        <pt x="322" y="-11" on="1"/>
        <pt x="265" y="-11" on="0"/>
        <pt x="186" y="22" on="0"/>
        <pt x="155" y="58" on="1"/>
        <pt x="144" y="0" on="1"/>
        <pt x="58" y="0" on="1"/>
        <pt x="58" y="242" on="1"/>
        <pt x="149" y="242" on="1"/>
        <pt x="152" y="192" on="0"/>
        <pt x="177" y="122" on="0"/>
        <pt x="219" y="78" on="0"/>
        <pt x="276" y="59" on="0"/>
        <pt x="312" y="59" on="1"/>
        <pt x="369" y="59" on="0"/>
        <pt x="437" y="106" on="0"/>
        <pt x="437" y="157" on="1"/>
        <pt x="437" y="188" on="0"/>
        <pt x="411" y="232" on="0"/>
        <pt x="363" y="267" on="0"/>
        <pt x="297" y="297" on="0"/>
        <pt x="257" y="314" on="1"/>
        <pt x="210" y="333" on="0"/>
        <pt x="137" y="372" on="0"/>
        <pt x="87" y="421" on="0"/>
        <pt x="61" y="484" on="0"/>
        <pt x="61" y="528" on="1"/>
        <pt x="61" y="625" on="0"/>
        <pt x="180" y="731" on="0"/>
        <pt x="280" y="731" on="1"/>
        <pt x="379" y="731" on="0"/>
        <pt x="441" y="675" on="1"/>
        <pt x="449" y="720" on="1"/>
        <pt x="535" y="720" on="1"/>
        <pt x="535" y="478" on="1"/>
        <pt x="448" y="478" on="1"/>
        <pt x="448" y="572" on="0"/>
        <pt x="378" y="662" on="0"/>
        <pt x="305" y="662" on="1"/>
        <pt x="192" y="662" on="0"/>
        <pt x="192" y="555" on="1"/>
        <pt x="192" y="529" on="0"/>
        <pt x="207" y="493" on="0"/>
        <pt x="242" y="464" on="0"/>
        <pt x="299" y="436" on="0"/>
        <pt x="341" y="417" on="1"/>
        <pt x="404" y="388" on="0"/>
        <pt x="491" y="338" on="0"/>
        <pt x="544" y="286" on="0"/>
        <pt x="568" y="228" on="0"/>
        <pt x="568" y="191" on="1"/>
        <pt x="568" y="141" on="0"/>
        <pt x="530" y="65" on="0"/>
        <pt x="463" y="14" on="0"/>
        <pt x="373" y="-11" on="0"/>
      </contour>
    </TTGlyph>
    <TTGlyph name="Sacute" xMin="58" yMin="-11" xMax="568" yMax="900">
      <contour>
        <pt x="322" y="-11" on="1"/>
        <pt x="265" y="-11" on="0"/>
        <pt x="186" y="22" on="0"/>
        <pt x="155" y="58" on="1"/>
        <pt x="144" y="0" on="1"/>
        <pt x="58" y="0" on="1"/>
        <pt x="58" y="242" on="1"/>
        <pt x="149" y="242" on="1"/>
        <pt x="152" y="192" on="0"/>
        <pt x="177" y="122" on="0"/>
        <pt x="219" y="78" on="0"/>
        <pt x="276" y="59" on="0"/>
        <pt x="312" y="59" on="1"/>
        <pt x="369" y="59" on="0"/>
        <pt x="437" y="106" on="0"/>
        <pt x="437" y="157" on="1"/>
        <pt x="437" y="188" on="0"/>
        <pt x="411" y="232" on="0"/>
        <pt x="363" y="267" on="0"/>
        <pt x="297" y="297" on="0"/>
        <pt x="257" y="314" on="1"/>
        <pt x="210" y="333" on="0"/>
        <pt x="137" y="372" on="0"/>
        <pt x="87" y="421" on="0"/>
        <pt x="61" y="484" on="0"/>
        <pt x="61" y="528" on="1"/>
        <pt x="61" y="625" on="0"/>
        <pt x="180" y="731" on="0"/>
        <pt x="280" y="731" on="1"/>
        <pt x="379" y="731" on="0"/>
        <pt x="441" y="675" on="1"/>
        <pt x="449" y="720" on="1"/>
        <pt x="535" y="720" on="1"/>
        <pt x="535" y="478" on="1"/>
        <pt x="448" y="478" on="1"/>
        <pt x="448" y="572" on="0"/>
        <pt x="378" y="662" on="0"/>
        <pt x="305" y="662" on="1"/>
        <pt x="192" y="662" on="0"/>
        <pt x="192" y="555" on="1"/>
        <pt x="192" y="529" on="0"/>
        <pt x="207" y="493" on="0"/>
        <pt x="242" y="464" on="0"/>
        <pt x="299" y="436" on="0"/>
        <pt x="341" y="417" on="1"/>
        <pt x="404" y="388" on="0"/>
        <pt x="491" y="338" on="0"/>
        <pt x="544" y="286" on="0"/>
        <pt x="568" y="228" on="0"/>
        <pt x="568" y="191" on="1"/>
        <pt x="568" y="141" on="0"/>
        <pt x="530" y="65" on="0"/>
        <pt x="463" y="14" on="0"/>
        <pt x="373" y="-11" on="0"/>
      </contour>
      <contour>
        <pt x="313" y="836" on="1"/>
        <pt x="329" y="857" on="0"/>
        <pt x="354" y="882" on="0"/>
        <pt x="375" y="895" on="0"/>
        <pt x="397" y="900" on="0"/>
        <pt x="411" y="900" on="1"/>
        <pt x="435" y="900" on="0"/>
        <pt x="458" y="876" on="0"/>
        <pt x="458" y="861" on="1"/>
        <pt x="458" y="851" on="0"/>
        <pt x="452" y="836" on="0"/>
        <pt x="435" y="821" on="0"/>
        <pt x="406" y="802" on="0"/>
        <pt x="383" y="788" on="1"/>
        <pt x="336" y="760" on="1"/>
        <pt x="253" y="760" on="1"/>
      </contour>
    </TTGlyph>
    <TTGlyph name="Scaron" xMin="58" yMin="-11" xMax="568" yMax="890">
      <contour>
        <pt x="322" y="-11" on="1"/>
        <pt x="265" y="-11" on="0"/>
        <pt x="186" y="22" on="0"/>
        <pt x="155" y="58" on="1"/>
        <pt x="144" y="0" on="1"/>
        <pt x="58" y="0" on="1"/>
        <pt x="58" y="242" on="1"/>
        <pt x="149" y="242" on="1"/>
        <pt x="152" y="192" on="0"/>
        <pt x="177" y="122" on="0"/>
        <pt x="219" y="78" on="0"/>
        <pt x="276" y="59" on="0"/>
        <pt x="312" y="59" on="1"/>
        <pt x="369" y="59" on="0"/>
        <pt x="437" y="106" on="0"/>
        <pt x="437" y="157" on="1"/>
        <pt x="437" y="188" on="0"/>
        <pt x="411" y="232" on="0"/>
        <pt x="363" y="267" on="0"/>
        <pt x="297" y="297" on="0"/>
        <pt x="257" y="314" on="1"/>
        <pt x="210" y="333" on="0"/>
        <pt x="137" y="372" on="0"/>
        <pt x="87" y="421" on="0"/>
        <pt x="61" y="484" on="0"/>
        <pt x="61" y="528" on="1"/>
        <pt x="61" y="625" on="0"/>
        <pt x="180" y="731" on="0"/>
        <pt x="280" y="731" on="1"/>
        <pt x="379" y="731" on="0"/>
        <pt x="441" y="675" on="1"/>
        <pt x="449" y="720" on="1"/>
        <pt x="535" y="720" on="1"/>
        <pt x="535" y="478" on="1"/>
        <pt x="448" y="478" on="1"/>
        <pt x="448" y="572" on="0"/>
        <pt x="378" y="662" on="0"/>
        <pt x="305" y="662" on="1"/>
        <pt x="192" y="662" on="0"/>
        <pt x="192" y="555" on="1"/>
        <pt x="192" y="529" on="0"/>
        <pt x="207" y="493" on="0"/>
        <pt x="242" y="464" on="0"/>
        <pt x="299" y="436" on="0"/>
        <pt x="341" y="417" on="1"/>
        <pt x="404" y="388" on="0"/>
        <pt x="491" y="338" on="0"/>
        <pt x="544" y="286" on="0"/>
        <pt x="568" y="228" on="0"/>
        <pt x="568" y="191" on="1"/>
        <pt x="568" y="141" on="0"/>
        <pt x="530" y="65" on="0"/>
        <pt x="463" y="14" on="0"/>
        <pt x="373" y="-11" on="0"/>
      </contour>
      <contour>
        <pt x="375" y="769" on="1"/>
        <pt x="250" y="769" on="1"/>
        <pt x="132" y="890" on="1"/>
        <pt x="215" y="890" on="1"/>
        <pt x="313" y="829" on="1"/>
        <pt x="411" y="890" on="1"/>
        <pt x="494" y="890" on="1"/>
      </contour>
    </TTGlyph>
    <TTGlyph name="Schwa" xMin="36" yMin="-10" xMax="665" yMax="730">
      <contour>
        <pt x="520" y="376" on="1"/>
        <pt x="520" y="421" on="0"/>
        <pt x="504" y="514" on="0"/>
        <pt x="487" y="549" on="1"/>
        <pt x="461" y="606" on="0"/>
        <pt x="377" y="661" on="0"/>
        <pt x="312" y="661" on="1"/>
        <pt x="249" y="661" on="0"/>
        <pt x="149" y="598" on="0"/>
        <pt x="116" y="549" on="1"/>
        <pt x="63" y="596" on="1"/>
        <pt x="87" y="632" on="0"/>
        <pt x="140" y="682" on="0"/>
        <pt x="202" y="715" on="0"/>
        <pt x="275" y="730" on="0"/>
        <pt x="320" y="730" on="1"/>
        <pt x="532" y="730" on="0"/>
        <pt x="618" y="577" on="1"/>
        <pt x="642" y="533" on="0"/>
        <pt x="665" y="424" on="0"/>
        <pt x="665" y="362" on="1"/>
        <pt x="665" y="277" on="0"/>
        <pt x="625" y="139" on="0"/>
        <pt x="544" y="42" on="0"/>
        <pt x="422" y="-10" on="0"/>
        <pt x="340" y="-10" on="1"/>
        <pt x="187" y="-10" on="0"/>
        <pt x="36" y="157" on="0"/>
        <pt x="36" y="306" on="1"/>
        <pt x="36" y="322" on="0"/>
        <pt x="38" y="350" on="0"/>
        <pt x="40" y="376" on="1"/>
      </contour>
      <contour>
        <pt x="349" y="59" on="1"/>
        <pt x="430" y="59" on="0"/>
        <pt x="510" y="185" on="0"/>
        <pt x="519" y="296" on="1"/>
        <pt x="180" y="296" on="1"/>
        <pt x="180" y="260" on="1"/>
        <pt x="180" y="213" on="0"/>
        <pt x="207" y="139" on="0"/>
        <pt x="253" y="87" on="0"/>
        <pt x="314" y="59" on="0"/>
      </contour>
    </TTGlyph>
    <TTGlyph name="Scircumflex" xMin="58" yMin="-11" xMax="568" yMax="890">
      <contour>
        <pt x="322" y="-11" on="1"/>
        <pt x="265" y="-11" on="0"/>
        <pt x="186" y="22" on="0"/>
        <pt x="155" y="58" on="1"/>
        <pt x="144" y="0" on="1"/>
        <pt x="58" y="0" on="1"/>
        <pt x="58" y="242" on="1"/>
        <pt x="149" y="242" on="1"/>
        <pt x="152" y="192" on="0"/>
        <pt x="177" y="122" on="0"/>
        <pt x="219" y="78" on="0"/>
        <pt x="276" y="59" on="0"/>
        <pt x="312" y="59" on="1"/>
        <pt x="369" y="59" on="0"/>
        <pt x="437" y="106" on="0"/>
        <pt x="437" y="157" on="1"/>
        <pt x="437" y="188" on="0"/>
        <pt x="411" y="232" on="0"/>
        <pt x="363" y="267" on="0"/>
        <pt x="297" y="297" on="0"/>
        <pt x="257" y="314" on="1"/>
        <pt x="210" y="333" on="0"/>
        <pt x="137" y="372" on="0"/>
        <pt x="87" y="421" on="0"/>
        <pt x="61" y="484" on="0"/>
        <pt x="61" y="528" on="1"/>
        <pt x="61" y="625" on="0"/>
        <pt x="180" y="731" on="0"/>
        <pt x="280" y="731" on="1"/>
        <pt x="379" y="731" on="0"/>
        <pt x="441" y="675" on="1"/>
        <pt x="449" y="720" on="1"/>
        <pt x="535" y="720" on="1"/>
        <pt x="535" y="478" on="1"/>
        <pt x="448" y="478" on="1"/>
        <pt x="448" y="572" on="0"/>
        <pt x="378" y="662" on="0"/>
        <pt x="305" y="662" on="1"/>
        <pt x="192" y="662" on="0"/>
        <pt x="192" y="555" on="1"/>
        <pt x="192" y="529" on="0"/>
        <pt x="207" y="493" on="0"/>
        <pt x="242" y="464" on="0"/>
        <pt x="299" y="436" on="0"/>
        <pt x="341" y="417" on="1"/>
        <pt x="404" y="388" on="0"/>
        <pt x="491" y="338" on="0"/>
        <pt x="544" y="286" on="0"/>
        <pt x="568" y="228" on="0"/>
        <pt x="568" y="191" on="1"/>
        <pt x="568" y="141" on="0"/>
        <pt x="530" y="65" on="0"/>
        <pt x="463" y="14" on="0"/>
        <pt x="373" y="-11" on="0"/>
      </contour>
      <contour>
        <pt x="476" y="769" on="1"/>
        <pt x="393" y="769" on="1"/>
        <pt x="295" y="830" on="1"/>
        <pt x="197" y="769" on="1"/>
        <pt x="114" y="769" on="1"/>
        <pt x="232" y="890" on="1"/>
        <pt x="357" y="890" on="1"/>
      </contour>
    </TTGlyph>
    <TTGlyph name="Sdotbelow" xMin="58" yMin="-11" xMax="568" yMax="731">
      <contour>
        <pt x="322" y="-11" on="1"/>
        <pt x="265" y="-11" on="0"/>
        <pt x="186" y="22" on="0"/>
        <pt x="155" y="58" on="1"/>
        <pt x="144" y="0" on="1"/>
        <pt x="58" y="0" on="1"/>
        <pt x="58" y="242" on="1"/>
        <pt x="149" y="242" on="1"/>
        <pt x="152" y="192" on="0"/>
        <pt x="177" y="122" on="0"/>
        <pt x="219" y="78" on="0"/>
        <pt x="276" y="59" on="0"/>
        <pt x="312" y="59" on="1"/>
        <pt x="369" y="59" on="0"/>
        <pt x="437" y="106" on="0"/>
        <pt x="437" y="157" on="1"/>
        <pt x="437" y="188" on="0"/>
        <pt x="411" y="232" on="0"/>
        <pt x="363" y="267" on="0"/>
        <pt x="297" y="297" on="0"/>
        <pt x="257" y="314" on="1"/>
        <pt x="210" y="333" on="0"/>
        <pt x="137" y="372" on="0"/>
        <pt x="87" y="421" on="0"/>
        <pt x="61" y="484" on="0"/>
        <pt x="61" y="528" on="1"/>
        <pt x="61" y="625" on="0"/>
        <pt x="180" y="731" on="0"/>
        <pt x="280" y="731" on="1"/>
        <pt x="379" y="731" on="0"/>
        <pt x="441" y="675" on="1"/>
        <pt x="449" y="720" on="1"/>
        <pt x="535" y="720" on="1"/>
        <pt x="535" y="478" on="1"/>
        <pt x="448" y="478" on="1"/>
        <pt x="448" y="572" on="0"/>
        <pt x="378" y="662" on="0"/>
        <pt x="305" y="662" on="1"/>
        <pt x="192" y="662" on="0"/>
        <pt x="192" y="555" on="1"/>
        <pt x="192" y="529" on="0"/>
        <pt x="207" y="493" on="0"/>
        <pt x="242" y="464" on="0"/>
        <pt x="299" y="436" on="0"/>
        <pt x="341" y="417" on="1"/>
        <pt x="404" y="388" on="0"/>
        <pt x="491" y="338" on="0"/>
        <pt x="544" y="286" on="0"/>
        <pt x="568" y="228" on="0"/>
        <pt x="568" y="191" on="1"/>
        <pt x="568" y="141" on="0"/>
        <pt x="530" y="65" on="0"/>
        <pt x="463" y="14" on="0"/>
        <pt x="373" y="-11" on="0"/>
      </contour>
    </TTGlyph>
    <TTGlyph name="T" xMin="24" yMin="0" xMax="650" yMax="720">
      <contour>
        <pt x="650" y="720" on="1"/>
        <pt x="650" y="495" on="1"/>
        <pt x="586" y="495" on="1"/>
        <pt x="554" y="645" on="1"/>
        <pt x="402" y="645" on="1"/>
        <pt x="402" y="82" on="1"/>
        <pt x="508" y="58" on="1"/>
        <pt x="508" y="0" on="1"/>
        <pt x="166" y="0" on="1"/>
        <pt x="166" y="58" on="1"/>
        <pt x="272" y="82" on="1"/>
        <pt x="272" y="645" on="1"/>
        <pt x="119" y="645" on="1"/>
        <pt x="88" y="495" on="1"/>
        <pt x="24" y="495" on="1"/>
        <pt x="24" y="720" on="1"/>
      </contour>
    </TTGlyph>
    <TTGlyph name="Tbar" xMin="26" yMin="0" xMax="652" yMax="720">
      <contour>
        <pt x="652" y="720" on="1"/>
        <pt x="652" y="495" on="1"/>
        <pt x="588" y="495" on="1"/>
        <pt x="556" y="645" on="1"/>
        <pt x="404" y="645" on="1"/>
        <pt x="404" y="421" on="1"/>
        <pt x="567" y="421" on="1"/>
        <pt x="567" y="341" on="1"/>
        <pt x="404" y="341" on="1"/>
        <pt x="404" y="82" on="1"/>
        <pt x="510" y="58" on="1"/>
        <pt x="510" y="0" on="1"/>
        <pt x="168" y="0" on="1"/>
        <pt x="168" y="58" on="1"/>
        <pt x="274" y="82" on="1"/>
        <pt x="274" y="341" on="1"/>
        <pt x="111" y="341" on="1"/>
        <pt x="111" y="421" on="1"/>
        <pt x="274" y="421" on="1"/>
        <pt x="274" y="645" on="1"/>
        <pt x="121" y="645" on="1"/>
        <pt x="90" y="495" on="1"/>
        <pt x="26" y="495" on="1"/>
        <pt x="26" y="720" on="1"/>
      </contour>
    </TTGlyph>
    <TTGlyph name="Tcaron" xMin="24" yMin="0" xMax="650" yMax="890">
      <contour>
        <pt x="650" y="720" on="1"/>
        <pt x="650" y="495" on="1"/>
        <pt x="586" y="495" on="1"/>
        <pt x="554" y="645" on="1"/>
        <pt x="402" y="645" on="1"/>
        <pt x="402" y="82" on="1"/>
        <pt x="508" y="58" on="1"/>
        <pt x="508" y="0" on="1"/>
        <pt x="166" y="0" on="1"/>
        <pt x="166" y="58" on="1"/>
        <pt x="272" y="82" on="1"/>
        <pt x="272" y="645" on="1"/>
        <pt x="119" y="645" on="1"/>
        <pt x="88" y="495" on="1"/>
        <pt x="24" y="495" on="1"/>
        <pt x="24" y="720" on="1"/>
      </contour>
      <contour>
        <pt x="401" y="769" on="1"/>
        <pt x="276" y="769" on="1"/>
        <pt x="158" y="890" on="1"/>
        <pt x="241" y="890" on="1"/>
        <pt x="339" y="829" on="1"/>
        <pt x="437" y="890" on="1"/>
        <pt x="520" y="890" on="1"/>
      </contour>
    </TTGlyph>
    <TTGlyph name="Tdotbelow" xMin="24" yMin="0" xMax="650" yMax="720">
      <contour>
        <pt x="650" y="720" on="1"/>
        <pt x="650" y="495" on="1"/>
        <pt x="586" y="495" on="1"/>
        <pt x="554" y="645" on="1"/>
        <pt x="402" y="645" on="1"/>
        <pt x="402" y="82" on="1"/>
        <pt x="508" y="58" on="1"/>
        <pt x="508" y="0" on="1"/>
        <pt x="166" y="0" on="1"/>
        <pt x="166" y="58" on="1"/>
        <pt x="272" y="82" on="1"/>
        <pt x="272" y="645" on="1"/>
        <pt x="119" y="645" on="1"/>
        <pt x="88" y="495" on="1"/>
        <pt x="24" y="495" on="1"/>
        <pt x="24" y="720" on="1"/>
      </contour>
    </TTGlyph>
    <TTGlyph name="Thorn" xMin="33" yMin="0" xMax="631" yMax="720">
      <contour>
        <pt x="258" y="148" on="1"/>
        <pt x="258" y="79" on="1"/>
        <pt x="353" y="58" on="1"/>
        <pt x="353" y="0" on="1"/>
        <pt x="44" y="0" on="1"/>
        <pt x="44" y="58" on="1"/>
        <pt x="128" y="79" on="1"/>
        <pt x="128" y="641" on="1"/>
        <pt x="33" y="662" on="1"/>
        <pt x="33" y="720" on="1"/>
        <pt x="342" y="720" on="1"/>
        <pt x="342" y="662" on="1"/>
        <pt x="258" y="641" on="1"/>
        <pt x="258" y="575" on="1"/>
        <pt x="410" y="575" on="1"/>
        <pt x="457" y="575" on="0"/>
        <pt x="534" y="550" on="0"/>
        <pt x="560" y="527" on="1"/>
        <pt x="594" y="496" on="0"/>
        <pt x="631" y="413" on="0"/>
        <pt x="631" y="366" on="1"/>
        <pt x="631" y="318" on="0"/>
        <pt x="593" y="228" on="0"/>
        <pt x="558" y="197" on="1"/>
        <pt x="532" y="174" on="0"/>
        <pt x="454" y="148" on="0"/>
        <pt x="409" y="148" on="1"/>
      </contour>
      <contour>
        <pt x="357" y="221" on="1"/>
        <pt x="385" y="221" on="0"/>
        <pt x="434" y="238" on="0"/>
        <pt x="448" y="252" on="1"/>
        <pt x="468" y="270" on="0"/>
        <pt x="491" y="327" on="0"/>
        <pt x="491" y="360" on="1"/>
        <pt x="491" y="425" on="0"/>
        <pt x="448" y="466" on="1"/>
        <pt x="431" y="483" on="0"/>
        <pt x="382" y="502" on="0"/>
        <pt x="353" y="502" on="1"/>
        <pt x="258" y="502" on="1"/>
        <pt x="258" y="221" on="1"/>
      </contour>
    </TTGlyph>
    <TTGlyph name="U" xMin="24" yMin="-11" xMax="761" yMax="720">
      <contour>
        <pt x="584" y="641" on="1"/>
        <pt x="500" y="662" on="1"/>
        <pt x="500" y="720" on="1"/>
        <pt x="761" y="720" on="1"/>
        <pt x="761" y="662" on="1"/>
        <pt x="677" y="641" on="1"/>
        <pt x="677" y="243" on="1"/>
        <pt x="677" y="118" on="0"/>
        <pt x="529" y="-11" on="0"/>
        <pt x="384" y="-11" on="1"/>
        <pt x="250" y="-11" on="0"/>
        <pt x="108" y="121" on="0"/>
        <pt x="108" y="244" on="1"/>
        <pt x="108" y="641" on="1"/>
        <pt x="24" y="662" on="1"/>
        <pt x="24" y="720" on="1"/>
        <pt x="322" y="720" on="1"/>
        <pt x="322" y="662" on="1"/>
        <pt x="238" y="641" on="1"/>
        <pt x="238" y="276" on="1"/>
        <pt x="238" y="59" on="0"/>
        <pt x="406" y="59" on="1"/>
        <pt x="500" y="59" on="0"/>
        <pt x="584" y="160" on="0"/>
        <pt x="584" y="274" on="1"/>
      </contour>
    </TTGlyph>
    <TTGlyph name="Uacute" xMin="24" yMin="-11" xMax="761" yMax="900">
      <contour>
        <pt x="584" y="641" on="1"/>
        <pt x="500" y="662" on="1"/>
        <pt x="500" y="720" on="1"/>
        <pt x="761" y="720" on="1"/>
        <pt x="761" y="662" on="1"/>
        <pt x="677" y="641" on="1"/>
        <pt x="677" y="243" on="1"/>
        <pt x="677" y="118" on="0"/>
        <pt x="529" y="-11" on="0"/>
        <pt x="384" y="-11" on="1"/>
        <pt x="250" y="-11" on="0"/>
        <pt x="108" y="121" on="0"/>
        <pt x="108" y="244" on="1"/>
        <pt x="108" y="641" on="1"/>
        <pt x="24" y="662" on="1"/>
        <pt x="24" y="720" on="1"/>
        <pt x="322" y="720" on="1"/>
        <pt x="322" y="662" on="1"/>
        <pt x="238" y="641" on="1"/>
        <pt x="238" y="276" on="1"/>
        <pt x="238" y="59" on="0"/>
        <pt x="406" y="59" on="1"/>
        <pt x="500" y="59" on="0"/>
        <pt x="584" y="160" on="0"/>
        <pt x="584" y="274" on="1"/>
      </contour>
      <contour>
        <pt x="430" y="836" on="1"/>
        <pt x="446" y="857" on="0"/>
        <pt x="471" y="882" on="0"/>
        <pt x="492" y="895" on="0"/>
        <pt x="514" y="900" on="0"/>
        <pt x="528" y="900" on="1"/>
        <pt x="552" y="900" on="0"/>
        <pt x="575" y="876" on="0"/>
        <pt x="575" y="861" on="1"/>
        <pt x="575" y="851" on="0"/>
        <pt x="569" y="836" on="0"/>
        <pt x="552" y="821" on="0"/>
        <pt x="523" y="802" on="0"/>
        <pt x="500" y="788" on="1"/>
        <pt x="453" y="760" on="1"/>
        <pt x="370" y="760" on="1"/>
      </contour>
    </TTGlyph>
    <TTGlyph name="Ubreve" xMin="24" yMin="-11" xMax="761" yMax="899">
      <contour>
        <pt x="584" y="641" on="1"/>
        <pt x="500" y="662" on="1"/>
        <pt x="500" y="720" on="1"/>
        <pt x="761" y="720" on="1"/>
        <pt x="761" y="662" on="1"/>
        <pt x="677" y="641" on="1"/>
        <pt x="677" y="243" on="1"/>
        <pt x="677" y="118" on="0"/>
        <pt x="529" y="-11" on="0"/>
        <pt x="384" y="-11" on="1"/>
        <pt x="250" y="-11" on="0"/>
        <pt x="108" y="121" on="0"/>
        <pt x="108" y="244" on="1"/>
        <pt x="108" y="641" on="1"/>
        <pt x="24" y="662" on="1"/>
        <pt x="24" y="720" on="1"/>
        <pt x="322" y="720" on="1"/>
        <pt x="322" y="662" on="1"/>
        <pt x="238" y="641" on="1"/>
        <pt x="238" y="276" on="1"/>
        <pt x="238" y="59" on="0"/>
        <pt x="406" y="59" on="1"/>
        <pt x="500" y="59" on="0"/>
        <pt x="584" y="160" on="0"/>
        <pt x="584" y="274" on="1"/>
      </contour>
      <contour>
        <pt x="580" y="899" on="1"/>
        <pt x="579" y="856" on="0"/>
        <pt x="553" y="789" on="0"/>
        <pt x="509" y="742" on="0"/>
        <pt x="448" y="718" on="0"/>
        <pt x="412" y="718" on="1"/>
        <pt x="337" y="718" on="0"/>
        <pt x="256" y="818" on="0"/>
        <pt x="256" y="899" on="1"/>
        <pt x="319" y="899" on="1"/>
        <pt x="321" y="855" on="0"/>
        <pt x="373" y="817" on="0"/>
        <pt x="412" y="817" on="1"/>
        <pt x="462" y="817" on="0"/>
        <pt x="517" y="855" on="0"/>
        <pt x="517" y="899" on="1"/>
      </contour>
    </TTGlyph>
    <TTGlyph name="Ucircumflex" xMin="24" yMin="-11" xMax="761" yMax="890">
      <contour>
        <pt x="584" y="641" on="1"/>
        <pt x="500" y="662" on="1"/>
        <pt x="500" y="720" on="1"/>
        <pt x="761" y="720" on="1"/>
        <pt x="761" y="662" on="1"/>
        <pt x="677" y="641" on="1"/>
        <pt x="677" y="243" on="1"/>
        <pt x="677" y="118" on="0"/>
        <pt x="529" y="-11" on="0"/>
        <pt x="384" y="-11" on="1"/>
        <pt x="250" y="-11" on="0"/>
        <pt x="108" y="121" on="0"/>
        <pt x="108" y="244" on="1"/>
        <pt x="108" y="641" on="1"/>
        <pt x="24" y="662" on="1"/>
        <pt x="24" y="720" on="1"/>
        <pt x="322" y="720" on="1"/>
        <pt x="322" y="662" on="1"/>
        <pt x="238" y="641" on="1"/>
        <pt x="238" y="276" on="1"/>
        <pt x="238" y="59" on="0"/>
        <pt x="406" y="59" on="1"/>
        <pt x="500" y="59" on="0"/>
        <pt x="584" y="160" on="0"/>
        <pt x="584" y="274" on="1"/>
      </contour>
      <contour>
        <pt x="593" y="769" on="1"/>
        <pt x="510" y="769" on="1"/>
        <pt x="412" y="830" on="1"/>
        <pt x="314" y="769" on="1"/>
        <pt x="231" y="769" on="1"/>
        <pt x="349" y="890" on="1"/>
        <pt x="474" y="890" on="1"/>
      </contour>
    </TTGlyph>
    <TTGlyph name="Udieresis" xMin="24" yMin="-11" xMax="761" yMax="720">
      <contour>
        <pt x="584" y="641" on="1"/>
        <pt x="500" y="662" on="1"/>
        <pt x="500" y="720" on="1"/>
        <pt x="761" y="720" on="1"/>
        <pt x="761" y="662" on="1"/>
        <pt x="677" y="641" on="1"/>
        <pt x="677" y="243" on="1"/>
        <pt x="677" y="118" on="0"/>
        <pt x="529" y="-11" on="0"/>
        <pt x="384" y="-11" on="1"/>
        <pt x="250" y="-11" on="0"/>
        <pt x="108" y="121" on="0"/>
        <pt x="108" y="244" on="1"/>
        <pt x="108" y="641" on="1"/>
        <pt x="24" y="662" on="1"/>
        <pt x="24" y="720" on="1"/>
        <pt x="322" y="720" on="1"/>
        <pt x="322" y="662" on="1"/>
        <pt x="238" y="641" on="1"/>
        <pt x="238" y="276" on="1"/>
        <pt x="238" y="59" on="0"/>
        <pt x="406" y="59" on="1"/>
        <pt x="500" y="59" on="0"/>
        <pt x="584" y="160" on="0"/>
        <pt x="584" y="274" on="1"/>
      </contour>
    </TTGlyph>
    <TTGlyph name="Udotbelow" xMin="24" yMin="-11" xMax="761" yMax="720">
      <contour>
        <pt x="584" y="641" on="1"/>
        <pt x="500" y="662" on="1"/>
        <pt x="500" y="720" on="1"/>
        <pt x="761" y="720" on="1"/>
        <pt x="761" y="662" on="1"/>
        <pt x="677" y="641" on="1"/>
        <pt x="677" y="243" on="1"/>
        <pt x="677" y="118" on="0"/>
        <pt x="529" y="-11" on="0"/>
        <pt x="384" y="-11" on="1"/>
        <pt x="250" y="-11" on="0"/>
        <pt x="108" y="121" on="0"/>
        <pt x="108" y="244" on="1"/>
        <pt x="108" y="641" on="1"/>
        <pt x="24" y="662" on="1"/>
        <pt x="24" y="720" on="1"/>
        <pt x="322" y="720" on="1"/>
        <pt x="322" y="662" on="1"/>
        <pt x="238" y="641" on="1"/>
        <pt x="238" y="276" on="1"/>
        <pt x="238" y="59" on="0"/>
        <pt x="406" y="59" on="1"/>
        <pt x="500" y="59" on="0"/>
        <pt x="584" y="160" on="0"/>
        <pt x="584" y="274" on="1"/>
      </contour>
    </TTGlyph>
    <TTGlyph name="Ugrave" xMin="24" yMin="-11" xMax="761" yMax="900">
      <contour>
        <pt x="584" y="641" on="1"/>
        <pt x="500" y="662" on="1"/>
        <pt x="500" y="720" on="1"/>
        <pt x="761" y="720" on="1"/>
        <pt x="761" y="662" on="1"/>
        <pt x="677" y="641" on="1"/>
        <pt x="677" y="243" on="1"/>
        <pt x="677" y="118" on="0"/>
        <pt x="529" y="-11" on="0"/>
        <pt x="384" y="-11" on="1"/>
        <pt x="250" y="-11" on="0"/>
        <pt x="108" y="121" on="0"/>
        <pt x="108" y="244" on="1"/>
        <pt x="108" y="641" on="1"/>
        <pt x="24" y="662" on="1"/>
        <pt x="24" y="720" on="1"/>
        <pt x="322" y="720" on="1"/>
        <pt x="322" y="662" on="1"/>
        <pt x="238" y="641" on="1"/>
        <pt x="238" y="276" on="1"/>
        <pt x="238" y="59" on="0"/>
        <pt x="406" y="59" on="1"/>
        <pt x="500" y="59" on="0"/>
        <pt x="584" y="160" on="0"/>
        <pt x="584" y="274" on="1"/>
      </contour>
      <contour>
        <pt x="499" y="760" on="1"/>
        <pt x="416" y="760" on="1"/>
        <pt x="369" y="788" on="1"/>
        <pt x="346" y="802" on="0"/>
        <pt x="316" y="821" on="0"/>
        <pt x="300" y="836" on="0"/>
        <pt x="294" y="851" on="0"/>
        <pt x="294" y="861" on="1"/>
        <pt x="294" y="876" on="0"/>
        <pt x="317" y="900" on="0"/>
        <pt x="341" y="900" on="1"/>
        <pt x="355" y="900" on="0"/>
        <pt x="377" y="895" on="0"/>
        <pt x="398" y="882" on="0"/>
        <pt x="422" y="857" on="0"/>
        <pt x="439" y="836" on="1"/>
      </contour>
    </TTGlyph>
    <TTGlyph name="Uhungarumlaut" xMin="24" yMin="-11" xMax="761" yMax="720">
      <contour>
        <pt x="584" y="641" on="1"/>
        <pt x="500" y="662" on="1"/>
        <pt x="500" y="720" on="1"/>
        <pt x="761" y="720" on="1"/>
        <pt x="761" y="662" on="1"/>
        <pt x="677" y="641" on="1"/>
        <pt x="677" y="243" on="1"/>
        <pt x="677" y="118" on="0"/>
        <pt x="529" y="-11" on="0"/>
        <pt x="384" y="-11" on="1"/>
        <pt x="250" y="-11" on="0"/>
        <pt x="108" y="121" on="0"/>
        <pt x="108" y="244" on="1"/>
        <pt x="108" y="641" on="1"/>
        <pt x="24" y="662" on="1"/>
        <pt x="24" y="720" on="1"/>
        <pt x="322" y="720" on="1"/>
        <pt x="322" y="662" on="1"/>
        <pt x="238" y="641" on="1"/>
        <pt x="238" y="276" on="1"/>
        <pt x="238" y="59" on="0"/>
        <pt x="406" y="59" on="1"/>
        <pt x="500" y="59" on="0"/>
        <pt x="584" y="160" on="0"/>
        <pt x="584" y="274" on="1"/>
      </contour>
    </TTGlyph>
    <TTGlyph name="Umacron" xMin="24" yMin="-11" xMax="761" yMax="720">
      <contour>
        <pt x="584" y="641" on="1"/>
        <pt x="500" y="662" on="1"/>
        <pt x="500" y="720" on="1"/>
        <pt x="761" y="720" on="1"/>
        <pt x="761" y="662" on="1"/>
        <pt x="677" y="641" on="1"/>
        <pt x="677" y="243" on="1"/>
        <pt x="677" y="118" on="0"/>
        <pt x="529" y="-11" on="0"/>
        <pt x="384" y="-11" on="1"/>
        <pt x="250" y="-11" on="0"/>
        <pt x="108" y="121" on="0"/>
        <pt x="108" y="244" on="1"/>
        <pt x="108" y="641" on="1"/>
        <pt x="24" y="662" on="1"/>
        <pt x="24" y="720" on="1"/>
        <pt x="322" y="720" on="1"/>
        <pt x="322" y="662" on="1"/>
        <pt x="238" y="641" on="1"/>
        <pt x="238" y="276" on="1"/>
        <pt x="238" y="59" on="0"/>
        <pt x="406" y="59" on="1"/>
        <pt x="500" y="59" on="0"/>
        <pt x="584" y="160" on="0"/>
        <pt x="584" y="274" on="1"/>
      </contour>
    </TTGlyph>
    <TTGlyph name="Uogonek" xMin="24" yMin="-210" xMax="761" yMax="720">
      <contour>
        <pt x="390" y="-210" on="1"/>
        <pt x="334" y="-210" on="0"/>
        <pt x="279" y="-163" on="0"/>
        <pt x="279" y="-125" on="1"/>
        <pt x="279" y="-63" on="0"/>
        <pt x="354" y="-10" on="1"/>
        <pt x="235" y="-2" on="0"/>
        <pt x="108" y="128" on="0"/>
        <pt x="108" y="244" on="1"/>
        <pt x="108" y="641" on="1"/>
        <pt x="24" y="662" on="1"/>
        <pt x="24" y="720" on="1"/>
        <pt x="322" y="720" on="1"/>
        <pt x="322" y="662" on="1"/>
        <pt x="238" y="641" on="1"/>
        <pt x="238" y="276" on="1"/>
        <pt x="238" y="59" on="0"/>
        <pt x="406" y="59" on="1"/>
        <pt x="500" y="59" on="0"/>
        <pt x="584" y="160" on="0"/>
        <pt x="584" y="274" on="1"/>
        <pt x="584" y="641" on="1"/>
        <pt x="500" y="662" on="1"/>
        <pt x="500" y="720" on="1"/>
        <pt x="761" y="720" on="1"/>
        <pt x="761" y="662" on="1"/>
        <pt x="677" y="641" on="1"/>
        <pt x="677" y="243" on="1"/>
        <pt x="677" y="129" on="0"/>
        <pt x="554" y="2" on="0"/>
        <pt x="434" y="-9" on="1"/>
        <pt x="414" y="-27" on="0"/>
        <pt x="381" y="-76" on="0"/>
        <pt x="381" y="-98" on="1"/>
        <pt x="381" y="-116" on="0"/>
        <pt x="408" y="-137" on="0"/>
        <pt x="431" y="-137" on="1"/>
        <pt x="447" y="-137" on="0"/>
        <pt x="478" y="-129" on="0"/>
        <pt x="490" y="-119" on="1"/>
        <pt x="514" y="-154" on="1"/>
        <pt x="497" y="-180" on="0"/>
        <pt x="441" y="-210" on="0"/>
      </contour>
    </TTGlyph>
    <TTGlyph name="Uring" xMin="24" yMin="-11" xMax="761" yMax="900">
      <contour>
        <pt x="584" y="641" on="1"/>
        <pt x="500" y="662" on="1"/>
        <pt x="500" y="720" on="1"/>
        <pt x="761" y="720" on="1"/>
        <pt x="761" y="662" on="1"/>
        <pt x="677" y="641" on="1"/>
        <pt x="677" y="243" on="1"/>
        <pt x="677" y="118" on="0"/>
        <pt x="529" y="-11" on="0"/>
        <pt x="384" y="-11" on="1"/>
        <pt x="250" y="-11" on="0"/>
        <pt x="108" y="121" on="0"/>
        <pt x="108" y="244" on="1"/>
        <pt x="108" y="641" on="1"/>
        <pt x="24" y="662" on="1"/>
        <pt x="24" y="720" on="1"/>
        <pt x="322" y="720" on="1"/>
        <pt x="322" y="662" on="1"/>
        <pt x="238" y="641" on="1"/>
        <pt x="238" y="276" on="1"/>
        <pt x="238" y="59" on="0"/>
        <pt x="406" y="59" on="1"/>
        <pt x="500" y="59" on="0"/>
        <pt x="584" y="160" on="0"/>
        <pt x="584" y="274" on="1"/>
      </contour>
      <contour>
        <pt x="322" y="824" on="1"/>
        <pt x="322" y="862" on="0"/>
        <pt x="375" y="900" on="0"/>
        <pt x="412" y="900" on="1"/>
        <pt x="450" y="900" on="0"/>
        <pt x="503" y="862" on="0"/>
        <pt x="503" y="824" on="1"/>
        <pt x="503" y="787" on="0"/>
        <pt x="450" y="750" on="0"/>
        <pt x="412" y="750" on="1"/>
        <pt x="375" y="750" on="0"/>
        <pt x="322" y="787" on="0"/>
      </contour>
      <contour>
        <pt x="382" y="824" on="1"/>
        <pt x="382" y="794" on="0"/>
        <pt x="412" y="794" on="1"/>
        <pt x="444" y="794" on="0"/>
        <pt x="444" y="824" on="1"/>
        <pt x="444" y="856" on="0"/>
        <pt x="412" y="856" on="1"/>
        <pt x="382" y="856" on="0"/>
      </contour>
    </TTGlyph>
    <TTGlyph name="Utilde" xMin="24" yMin="-11" xMax="761" yMax="900">
      <contour>
        <pt x="584" y="641" on="1"/>
        <pt x="500" y="662" on="1"/>
        <pt x="500" y="720" on="1"/>
        <pt x="761" y="720" on="1"/>
        <pt x="761" y="662" on="1"/>
        <pt x="677" y="641" on="1"/>
        <pt x="677" y="243" on="1"/>
        <pt x="677" y="118" on="0"/>
        <pt x="529" y="-11" on="0"/>
        <pt x="384" y="-11" on="1"/>
        <pt x="250" y="-11" on="0"/>
        <pt x="108" y="121" on="0"/>
        <pt x="108" y="244" on="1"/>
        <pt x="108" y="641" on="1"/>
        <pt x="24" y="662" on="1"/>
        <pt x="24" y="720" on="1"/>
        <pt x="322" y="720" on="1"/>
        <pt x="322" y="662" on="1"/>
        <pt x="238" y="641" on="1"/>
        <pt x="238" y="276" on="1"/>
        <pt x="238" y="59" on="0"/>
        <pt x="406" y="59" on="1"/>
        <pt x="500" y="59" on="0"/>
        <pt x="584" y="160" on="0"/>
        <pt x="584" y="274" on="1"/>
      </contour>
      <contour>
        <pt x="213" y="755" on="1"/>
        <pt x="215" y="828" on="0"/>
        <pt x="285" y="900" on="0"/>
        <pt x="340" y="900" on="1"/>
        <pt x="365" y="900" on="0"/>
        <pt x="403" y="883" on="0"/>
        <pt x="435" y="862" on="0"/>
        <pt x="466" y="845" on="0"/>
        <pt x="486" y="845" on="1"/>
        <pt x="516" y="845" on="0"/>
        <pt x="546" y="871" on="0"/>
        <pt x="551" y="895" on="1"/>
        <pt x="611" y="895" on="1"/>
        <pt x="590" y="744" on="0"/>
        <pt x="484" y="744" on="1"/>
        <pt x="459" y="744" on="0"/>
        <pt x="422" y="761" on="0"/>
        <pt x="389" y="782" on="0"/>
        <pt x="357" y="800" on="0"/>
        <pt x="338" y="800" on="1"/>
        <pt x="308" y="800" on="0"/>
        <pt x="278" y="776" on="0"/>
        <pt x="273" y="755" on="1"/>
      </contour>
    </TTGlyph>
    <TTGlyph name="V" xMin="-15" yMin="0" xMax="732" yMax="720">
      <contour>
        <pt x="377" y="118" on="1"/>
        <pt x="381" y="118" on="1"/>
        <pt x="551" y="641" on="1"/>
        <pt x="468" y="662" on="1"/>
        <pt x="468" y="720" on="1"/>
        <pt x="732" y="720" on="1"/>
        <pt x="732" y="662" on="1"/>
        <pt x="650" y="641" on="1"/>
        <pt x="431" y="0" on="1"/>
        <pt x="303" y="0" on="1"/>
        <pt x="65" y="641" on="1"/>
        <pt x="-15" y="662" on="1"/>
        <pt x="-15" y="720" on="1"/>
        <pt x="285" y="720" on="1"/>
        <pt x="285" y="662" on="1"/>
        <pt x="203" y="641" on="1"/>
      </contour>
    </TTGlyph>
    <TTGlyph name="W" xMin="-11" yMin="0" xMax="1058" yMax="720">
      <contour>
        <pt x="878" y="642" on="1"/>
        <pt x="799" y="662" on="1"/>
        <pt x="799" y="720" on="1"/>
        <pt x="1058" y="720" on="1"/>
        <pt x="1058" y="662" on="1"/>
        <pt x="975" y="641" on="1"/>
        <pt x="790" y="0" on="1"/>
        <pt x="656" y="0" on="1"/>
        <pt x="525" y="431" on="1"/>
        <pt x="406" y="0" on="1"/>
        <pt x="272" y="0" on="1"/>
        <pt x="67" y="641" on="1"/>
        <pt x="-11" y="662" on="1"/>
        <pt x="-11" y="720" on="1"/>
        <pt x="303" y="720" on="1"/>
        <pt x="303" y="662" on="1"/>
        <pt x="207" y="641" on="1"/>
        <pt x="349" y="128" on="1"/>
        <pt x="353" y="128" on="1"/>
        <pt x="479" y="596" on="1"/>
        <pt x="470" y="641" on="1"/>
        <pt x="392" y="662" on="1"/>
        <pt x="392" y="720" on="1"/>
        <pt x="686" y="720" on="1"/>
        <pt x="686" y="662" on="1"/>
        <pt x="594" y="641" on="1"/>
        <pt x="733" y="127" on="1"/>
        <pt x="737" y="127" on="1"/>
      </contour>
    </TTGlyph>
    <TTGlyph name="Wacute" xMin="-11" yMin="0" xMax="1058" yMax="900">
      <contour>
        <pt x="878" y="642" on="1"/>
        <pt x="799" y="662" on="1"/>
        <pt x="799" y="720" on="1"/>
        <pt x="1058" y="720" on="1"/>
        <pt x="1058" y="662" on="1"/>
        <pt x="975" y="641" on="1"/>
        <pt x="790" y="0" on="1"/>
        <pt x="656" y="0" on="1"/>
        <pt x="525" y="431" on="1"/>
        <pt x="406" y="0" on="1"/>
        <pt x="272" y="0" on="1"/>
        <pt x="67" y="641" on="1"/>
        <pt x="-11" y="662" on="1"/>
        <pt x="-11" y="720" on="1"/>
        <pt x="303" y="720" on="1"/>
        <pt x="303" y="662" on="1"/>
        <pt x="207" y="641" on="1"/>
        <pt x="349" y="128" on="1"/>
        <pt x="353" y="128" on="1"/>
        <pt x="479" y="596" on="1"/>
        <pt x="470" y="641" on="1"/>
        <pt x="392" y="662" on="1"/>
        <pt x="392" y="720" on="1"/>
        <pt x="686" y="720" on="1"/>
        <pt x="686" y="662" on="1"/>
        <pt x="594" y="641" on="1"/>
        <pt x="733" y="127" on="1"/>
        <pt x="737" y="127" on="1"/>
      </contour>
      <contour>
        <pt x="547" y="836" on="1"/>
        <pt x="563" y="857" on="0"/>
        <pt x="588" y="882" on="0"/>
        <pt x="609" y="895" on="0"/>
        <pt x="631" y="900" on="0"/>
        <pt x="645" y="900" on="1"/>
        <pt x="669" y="900" on="0"/>
        <pt x="692" y="876" on="0"/>
        <pt x="692" y="861" on="1"/>
        <pt x="692" y="851" on="0"/>
        <pt x="686" y="836" on="0"/>
        <pt x="669" y="821" on="0"/>
        <pt x="640" y="802" on="0"/>
        <pt x="617" y="788" on="1"/>
        <pt x="570" y="760" on="1"/>
        <pt x="487" y="760" on="1"/>
      </contour>
    </TTGlyph>
    <TTGlyph name="Wcircumflex" xMin="-11" yMin="0" xMax="1058" yMax="890">
      <contour>
        <pt x="878" y="642" on="1"/>
        <pt x="799" y="662" on="1"/>
        <pt x="799" y="720" on="1"/>
        <pt x="1058" y="720" on="1"/>
        <pt x="1058" y="662" on="1"/>
        <pt x="975" y="641" on="1"/>
        <pt x="790" y="0" on="1"/>
        <pt x="656" y="0" on="1"/>
        <pt x="525" y="431" on="1"/>
        <pt x="406" y="0" on="1"/>
        <pt x="272" y="0" on="1"/>
        <pt x="67" y="641" on="1"/>
        <pt x="-11" y="662" on="1"/>
        <pt x="-11" y="720" on="1"/>
        <pt x="303" y="720" on="1"/>
        <pt x="303" y="662" on="1"/>
        <pt x="207" y="641" on="1"/>
        <pt x="349" y="128" on="1"/>
        <pt x="353" y="128" on="1"/>
        <pt x="479" y="596" on="1"/>
        <pt x="470" y="641" on="1"/>
        <pt x="392" y="662" on="1"/>
        <pt x="392" y="720" on="1"/>
        <pt x="686" y="720" on="1"/>
        <pt x="686" y="662" on="1"/>
        <pt x="594" y="641" on="1"/>
        <pt x="733" y="127" on="1"/>
        <pt x="737" y="127" on="1"/>
      </contour>
      <contour>
        <pt x="710" y="769" on="1"/>
        <pt x="627" y="769" on="1"/>
        <pt x="529" y="830" on="1"/>
        <pt x="431" y="769" on="1"/>
        <pt x="348" y="769" on="1"/>
        <pt x="466" y="890" on="1"/>
        <pt x="591" y="890" on="1"/>
      </contour>
    </TTGlyph>
    <TTGlyph name="Wdieresis" xMin="-11" yMin="0" xMax="1058" yMax="720">
      <contour>
        <pt x="878" y="642" on="1"/>
        <pt x="799" y="662" on="1"/>
        <pt x="799" y="720" on="1"/>
        <pt x="1058" y="720" on="1"/>
        <pt x="1058" y="662" on="1"/>
        <pt x="975" y="641" on="1"/>
        <pt x="790" y="0" on="1"/>
        <pt x="656" y="0" on="1"/>
        <pt x="525" y="431" on="1"/>
        <pt x="406" y="0" on="1"/>
        <pt x="272" y="0" on="1"/>
        <pt x="67" y="641" on="1"/>
        <pt x="-11" y="662" on="1"/>
        <pt x="-11" y="720" on="1"/>
        <pt x="303" y="720" on="1"/>
        <pt x="303" y="662" on="1"/>
        <pt x="207" y="641" on="1"/>
        <pt x="349" y="128" on="1"/>
        <pt x="353" y="128" on="1"/>
        <pt x="479" y="596" on="1"/>
        <pt x="470" y="641" on="1"/>
        <pt x="392" y="662" on="1"/>
        <pt x="392" y="720" on="1"/>
        <pt x="686" y="720" on="1"/>
        <pt x="686" y="662" on="1"/>
        <pt x="594" y="641" on="1"/>
        <pt x="733" y="127" on="1"/>
        <pt x="737" y="127" on="1"/>
      </contour>
    </TTGlyph>
</ttFont>
